<mxfile host="drawio-plugin" modified="2024-07-29T16:25:28.834Z" agent="Mozilla/5.0 (Macintosh; Intel Mac OS X 10_15_7) AppleWebKit/537.36 (KHTML, like Gecko) Chrome/122.0.0.0 Safari/537.36" version="22.1.22" etag="H2i0wrmc6xhvrGhIiLM8" type="embed">
  <diagram id="GPNkgwjxcsyrSNk7UgQV" name="Page-1">
    <mxGraphModel dx="876" dy="664" grid="1" gridSize="10" guides="1" tooltips="1" connect="1" arrows="1" fold="1" page="1" pageScale="1" pageWidth="850" pageHeight="1100" math="0" shadow="0">
      <root>
        <mxCell id="0" />
        <mxCell id="1" parent="0" />
        <mxCell id="2" value="" style="shape=image;verticalLabelPosition=bottom;labelBackgroundColor=default;verticalAlign=top;aspect=fixed;imageAspect=0;image=data:image/png,iVBORw0KGgoAAAANSUhEUgAABTAAAAL6CAYAAAABuXk+AAAMQGlDQ1BJQ0MgUHJvZmlsZQAASImVVwdYU8kWnluSkJDQAghICb0JIlICSAmhBZBeBBshCRBKiIGgYkcWFVwLKhawoasiih0QO2JnUex9QUVBWRcLduVNCui6r3xvvm/u/PefM/85c2ZuGQDUT3LF4mxUA4AcUb4kJtifMS4pmUHqBgSgCzQBFWBcXp6YFRUVDmAZbP9e3t0EiKy95iDT+mf/fy2afEEeDwAkCuJUfh4vB+KDAOBVPLEkHwCijDefmi+WYViBtgQGCPFCGU5X4CoZTlXgvXKbuBg2xC0AqFC5XEk6AGpXIM8o4KVDDbU+iJ1EfKEIAHUGxD45Obl8iFMgtoE2Yohl+szUH3TS/6aZOqTJ5aYPYcVc5EUlQJgnzuZO/z/T8b9LTrZ00IcVrNQMSUiMbM4wb7ezcsNkmApxryg1IhJiLYg/CPlye4hRSoY0JF5hjxry8tgwZ3ClAerE5waEQWwIcZAoOyJcyaemCYM4EMMdgk4T5nPiINaDeKEgLzBWabNJkhuj9IXWp0nYLCV/niuR+5X5eijNimcp9V9nCDhKfUytMCMuEWIKxBYFwoQIiNUgdszLig1T2owpzGBHDNpIpDGy+C0gjhGIgv0V+lhBmiQoRmlfmpM3OF9sU4aQE6HE+/Mz4kIU+cFaeFx5/HAu2BWBiBU/qCPIGxc+OBe+ICBQMXesWyCKj1XqfBDn+8coxuIUcXaU0h43E2QHy3gziF3yCmKVY/GEfLghFfp4mjg/Kk4RJ16YyQ2NUsSDLwPhgA0CAANIYU0FuSATCNt6G3rhnaInCHCBBKQDAXBQMoMjEuU9IniNBYXgT4gEIG9onL+8VwAKIP91iFVcHUCavLdAPiILPIU4B4SBbHgvlY8SDXlLAE8gI/yHdy6sPBhvNqyy/n/PD7LfGRZkwpWMdNAjQ33QkhhIDCCGEIOItrgB7oN74eHw6gerM87EPQbn8d2e8JTQTnhEuEHoINyZLCyS/BTlWNAB9YOUuUj9MRe4FdR0xf1xb6gOlXFd3AA44C7QDwv3hZ5dIctWxi3LCuMn7b/N4IfVUNqRncgoeRjZj2zz80g1OzXXIRVZrn/MjyLW1KF8s4d6fvbP/iH7fNiG/WyJLcQOYOewU9gF7CjWABjYCawRa8WOyfDQ7noi312D3mLk8WRBHeE//A2urCyTeU61Tj1OXxR9+YJpsnc0YOeKp0uE6Rn5DBb8IggYHBHPcQTD2cnZBQDZ90Xx+noTLf9uILqt37n5fwDgfWJgYODIdy70BAD73OHjf/g7Z8OEnw5VAM4f5kklBQoOl10I8C2hDp80fWAMzIENnI8zcANewA8EglAQCeJAEpgEo8+A+1wCpoKZYB4oAWVgGVgF1oGNYAvYAXaD/aABHAWnwFlwCVwBN8A9uHu6wAvQB96BzwiCkBAaQkf0ERPEErFHnBEm4oMEIuFIDJKEpCDpiAiRIjOR+UgZUo6sQzYjNcg+5DByCrmAtCN3kE6kB3mNfEIxlIpqo0aoFToSZaIsNAyNQyei6egUtBAtRpega9BqdBdaj55CL6E30A70BdqPAUwV08VMMQeMibGxSCwZS8Mk2GysFKvAqrE6rAmu8zWsA+vFPuJEnI4zcAe4g0PweJyHT8Fn44vxdfgOvB5vwa/hnXgf/o1AIxgS7AmeBA5hHCGdMJVQQqggbCMcIpyBz1IX4R2RSNQlWhPd4bOYRMwkziAuJq4n7iGeJLYTHxP7SSSSPsme5E2KJHFJ+aQS0lrSLtIJ0lVSF+mDiqqKiYqzSpBKsopIpUilQmWnynGVqyrPVD6TNciWZE9yJJlPnk5eSt5KbiJfJneRP1M0KdYUb0ocJZMyj7KGUkc5Q7lPeaOqqmqm6qEarSpUnau6RnWv6nnVTtWPVC2qHZVNnUCVUpdQt1NPUu9Q39BoNCuaHy2Zlk9bQquhnaY9pH1Qo6s5qnHU+Gpz1CrV6tWuqr1UJ6tbqrPUJ6kXqleoH1C/rN6rQdaw0mBrcDVma1RqHNa4pdGvSdccpRmpmaO5WHOn5gXNbi2SlpVWoBZfq1hri9Zprcd0jG5OZ9N59Pn0rfQz9C5tora1Nkc7U7tMe7d2m3afjpaOi06CzjSdSp1jOh26mK6VLkc3W3ep7n7dm7qfhhkNYw0TDFs0rG7Y1WHv9Ybr+ekJ9Er19ujd0Pukz9AP1M/SX67foP/AADewM4g2mGqwweCMQe9w7eFew3nDS4fvH37XEDW0M4wxnGG4xbDVsN/I2CjYSGy01ui0Ua+xrrGfcabxSuPjxj0mdBMfE6HJSpMTJs8ZOgwWI5uxhtHC6DM1NA0xlZpuNm0z/WxmbRZvVmS2x+yBOcWcaZ5mvtK82bzPwsRirMVMi1qLu5ZkS6ZlhuVqy3OW762srRKtFlg1WHVb61lzrAuta63v29BsfG2m2FTbXLcl2jJts2zX216xQ+1c7TLsKu0u26P2bvZC+/X27SMIIzxGiEZUj7jlQHVgORQ41Dp0Ouo6hjsWOTY4vhxpMTJ55PKR50Z+c3J1ynba6nRvlNao0FFFo5pGvXa2c+Y5VzpfH00bHTR6zujG0a9c7F0ELhtcbrvSXce6LnBtdv3q5u4mcatz63G3cE9xr3K/xdRmRjEXM897EDz8PeZ4HPX46Onmme+53/MvLwevLK+dXt1jrMcIxmwd89jbzJvrvdm7w4fhk+KzyafD19SX61vt+8jP3I/vt83vGcuWlcnaxXrp7+Qv8T/k/57tyZ7FPhmABQQHlAa0BWoFxgeuC3wYZBaUHlQb1BfsGjwj+GQIISQsZHnILY4Rh8ep4fSFuofOCm0Jo4bFhq0LexRuFy4JbxqLjg0du2Ls/QjLCFFEQySI5ESuiHwQZR01JepINDE6Kroy+mnMqJiZMedi6bGTY3fGvovzj1sady/eJl4a35ygnjAhoSbhfWJAYnlix7iR42aNu5RkkCRMakwmJSckb0vuHx84ftX4rgmuE0om3JxoPXHaxAuTDCZlTzo2WX0yd/KBFEJKYsrOlC/cSG41tz+Vk1qV2sdj81bzXvD9+Cv5PQJvQbngWZp3Wnlad7p3+or0ngzfjIqMXiFbuE74KjMkc2Pm+6zIrO1ZA9mJ2XtyVHJScg6LtERZopZc49xpue1ie3GJuGOK55RVU/okYZJteUjexLzGfG34I98qtZH+Iu0s8CmoLPgwNWHqgWma00TTWqfbTV80/VlhUOFvM/AZvBnNM01nzpvZOYs1a/NsZHbq7OY55nOK53TNDZ67Yx5lXta834ucisqL3s5PnN9UbFQ8t/jxL8G/1JaolUhKbi3wWrBxIb5QuLBt0ehFaxd9K+WXXixzKqso+7KYt/jir6N+XfPrwJK0JW1L3ZZuWEZcJlp2c7nv8h3lmuWF5Y9XjF1Rv5KxsnTl21WTV12ocKnYuJqyWrq6Y034msa1FmuXrf2yLmPdjUr/yj1VhlWLqt6v56+/usFvQ91Go41lGz9tEm66vTl4c321VXXFFuKWgi1PtyZsPfcb87eabQbbyrZ93S7a3rEjZkdLjXtNzU7DnUtr0Vppbc+uCbuu7A7Y3VjnULd5j+6esr1gr3Tv830p+27uD9vffIB5oO6g5cGqQ/RDpfVI/fT6voaMho7GpMb2w6GHm5u8mg4dcTyy/ajp0cpjOseWHqccLz4+cKLwRP9J8cneU+mnHjdPbr53etzp6y3RLW1nws6cPxt09vQ51rkT573PH73geeHwRebFhktul+pbXVsP/e76+6E2t7b6y+6XG694XGlqH9N+/Krv1VPXAq6dvc65fulGxI32m/E3b9+acKvjNv92953sO6/uFtz9fG/ufcL90gcaDyoeGj6s/sP2jz0dbh3HOgM6Wx/FPrr3mPf4xZO8J1+6ip/SnlY8M3lW0+3cfbQnqOfK8/HPu16IX3zuLflT88+qlzYvD/7l91dr37i+rleSVwOvF7/Rf7P9rcvb5v6o/ofvct59fl/6Qf/Djo/Mj+c+JX569nnqF9KXNV9tvzZ9C/t2fyBnYEDMlXDlvwIYrGhaGgCvtwNASwKADs9nlPGK85+8IIozqxyB/4QVZ0R5cQOgDv6/R/fCv5tbAOzdCo9fUF99AgBRNADiPAA6evRQHTyryc+VskKE54BNkV9Tc1LBvymKM+cPcf/cApmqC/i5/RcmxnxGVi8a/wAAAJZlWElmTU0AKgAAAAgABQESAAMAAAABAAEAAAEaAAUAAAABAAAASgEbAAUAAAABAAAAUgEoAAMAAAABAAIAAIdpAAQAAAABAAAAWgAAAAAAAACQAAAAAQAAAJAAAAABAAOShgAHAAAAEgAAAISgAgAEAAAAAQAABTCgAwAEAAAAAQAAAvoAAAAAQVNDSUkAAABTY3JlZW5zaG90L6q9aQAAAAlwSFlzAAAWJQAAFiUBSVIk8AAAAtxpVFh0WE1MOmNvbS5hZG9iZS54bXAAAAAAADx4OnhtcG1ldGEgeG1sbnM6eD0iYWRvYmU6bnM6bWV0YS8iIHg6eG1wdGs9IlhNUCBDb3JlIDYuMC4wIj4KICAgPHJkZjpSREYgeG1sbnM6cmRmPSJodHRwOi8vd3d3LnczLm9yZy8xOTk5LzAyLzIyLXJkZi1zeW50YXgtbnMjIj4KICAgICAgPHJkZjpEZXNjcmlwdGlvbiByZGY6YWJvdXQ9IiIKICAgICAgICAgICAgeG1sbnM6ZXhpZj0iaHR0cDovL25zLmFkb2JlLmNvbS9leGlmLzEuMC8iCiAgICAgICAgICAgIHhtbG5zOnRpZmY9Imh0dHA6Ly9ucy5hZG9iZS5jb20vdGlmZi8xLjAvIj4KICAgICAgICAgPGV4aWY6VXNlckNvbW1lbnQ+U2NyZWVuc2hvdDwvZXhpZjpVc2VyQ29tbWVudD4KICAgICAgICAgPGV4aWY6UGl4ZWxYRGltZW5zaW9uPjEzMjg8L2V4aWY6UGl4ZWxYRGltZW5zaW9uPgogICAgICAgICA8ZXhpZjpQaXhlbFlEaW1lbnNpb24+NzYyPC9leGlmOlBpeGVsWURpbWVuc2lvbj4KICAgICAgICAgPHRpZmY6UmVzb2x1dGlvblVuaXQ+MjwvdGlmZjpSZXNvbHV0aW9uVW5pdD4KICAgICAgICAgPHRpZmY6WFJlc29sdXRpb24+MTQ0LzE8L3RpZmY6WFJlc29sdXRpb24+CiAgICAgICAgIDx0aWZmOllSZXNvbHV0aW9uPjE0NC8xPC90aWZmOllSZXNvbHV0aW9uPgogICAgICAgICA8dGlmZjpPcmllbnRhdGlvbj4xPC90aWZmOk9yaWVudGF0aW9uPgogICAgICA8L3JkZjpEZXNjcmlwdGlvbj4KICAgPC9yZGY6UkRGPgo8L3g6eG1wbWV0YT4KJWUr3gAAQABJREFUeAHsnQW8dEX9/8cOQskHEMmHh+5OaSSl+YGEiISA0ilKiYTSKSIhjSCgIF1SKt3dSHeICrr/+czf73HO3LO7Z++evXvuve95vXZPzZn5znvmTHynPtXwxmEgAAEIQAACEIAABCAAAQhAAAIQgAAEIAABCNSQwKdrKBMiQQACEIAABCAAAQhAAAIQgAAEIAABCEAAAhAIBFBgkhAgAAEIQAACEIAABCAAAQhAAAIQgAAEIACB2hJAgVnbqEEwCEAAAhCAAAQgAAEIQAACEIAABCAAAQhAAAUmaQACEIAABCAAAQhAAAIQgAAEIAABCEAAAhCoLQEUmLWNGgSDAAQgAAEIQAACEIAABCAAAQhAAAIQgAAEUGCSBiAAAQhAAAIQgAAEIAABCEAAAhCAAAQgAIHaEkCBWduoQTAIQAACEIAABCAAAQhAAAIQgAAEIAABCEAABSZpAAIQgAAEIAABCEAAAhCAAAQgAAEIQAACEKgtARSYtY0aBIMABCAAAQhAAAIQgAAEIAABCEAAAhCAAARQYJIGIAABCEAAAhCAAAQgAAEIQAACEIAABCAAgdoSQIFZ26hBMAhAAAIQgAAEIAABCEAAAhCAAAQgAAEIQAAFJmkAAhCAAAQgAAEIQAACEIAABCAAAQhAAAIQqC0BFJi1jRoEgwAEIAABCEAAAhCAAAQgAAEIQAACEIAABFBgkgYgAAEIQAACEIAABCAAAQhAAAIQgAAEIACB2hJAgVnbqEEwCEAAAhCAAAQgAAEIQAACEIAABCAAAQhAAAUmaQACEIAABCAAAQhAAAIQgAAEIAABCEAAAhCoLQEUmLWNGgSDAAQgAAEIQAACEIAABCAAAQhAAAIQgAAEUGCSBiAAAQhAAAIQgAAEIAABCEAAAhCAAAQgAIHaEkCBWduoQTAIQAACEIAABCAAAQhAAAIQgAAEIAABCEAABSZpAAIQgAAEIAABCEAAAhCAAAQgAAEIQAACEKgtgc8OhWTPPvuse+uttzKvPvWpT7l55503uy5z8uSTT7r33nsvWJ1ooonc9NNPP+C1MnYGvMQNCAySQKPRcDfeeKP76KOPggtKk7POOusgXfvfa4888kjmZrO0/j/bnNWBQK/SQtVhu/fee91LL70UnP3iF7/oll122aq9wL1BEvjkk0/c1Vdfnb09duxYN27cuOxaJ3He8OlPf9rNM888uefphcpExfljjz3mXnnlFTfhhBO6gw46KGetjJ3cC1x0TWAk1FXKpNeuQeHAoAm0i59O85JBC8KLfSdAud/3KBi2AvQjn+iHn+0iqI4ytZOZ5xAY0QR8w7vnxjfEGh5i7nfPPfd05O9KK62Uvf+lL32p8N0ydgpf5CYEBkHAK+WzNKn0vfPOOw/ClYGveKVE5u6UU0450AJ3akegV2mh6oCStqomWp17b7/9dvbdKz/Ze++9Bzgex99444034Lnd+Pe//9044IADGp/5zGdybn75y182K40ydjLLnFRKYCTUVcqk10qh4VhHBNrFT9m8pCNPsVxLAnFcU6esZRTVVqg47bSqc1QZgH742U7+OsrUTmaeQ2AkE+j5CMybb77ZabRBas4666y2o0fSd+z6n//8p502PZax0/RlHkAAAoMm8I9//MOdd9557uOPPw5uzDbbbG7xxRevjXuDFoQXITBMCBx99NHuJz/5SUtpy9hp6QAPcwQGm+9RV8lh5AICEChBYLD5TQmnR42VfjLsp99VRvBICUeVTHALAhDoPYGeKzBPP/30wlCcc8457tBDD3V+hEjhc25CAALDk4CWjNh8880z4bfZZpuuFJhVu5cJxgkERigBdSCkZrLJJnOalm6mjB2zy7E9AfKp9oywAQEIVEOA/KZ7jv1k2E+/uyf3PxdGSjj+FyLOIACB4UCgpwrMDz/80P32t78t5PDyyy+76667zq244oqFz7kJAQg456d8ggECEIBAIDD55JO78ccfP5z76VxNqTz11FPZM605ffvtt7uFF144u6eTMnZyL3ABAQiMGAJl85IRE2ACAgEIdEygH/lEP/xsB6aOMrWTmecQGMkEeqrAvOiii9z777/flN+ZZ56JArMpHR6MVgJ33HGH+89//hOC/9nP9vQTHa2ICTcEhiWBq666qpTc//rXvzJ700477QDlpR6WsZM5wgkEIDCiCJTNS0ZUoAkMBCDQEYF+5BP98LMdlDrK1E5mnkNgJBP4dC8Dl04f32effXLeXXzxxU6jNDEQgMD/CEhp+fnPfz78tNMwBgIQgEAnBD744IPMut+0ITuPT8rYie1zDgEIQAACEIAABCAAAQhAoJ8Eeja8S+ti3HjjjVnYvv71r7t9993XnXLKKe6VV14J96W8lBJz4403zuwN9YkWIL7//vud3xXdffTRR27qqad2c801V1grrM7KI7+zlHvhhRfCBknaJEkbpmizlNlnn91pqHsvzXPPPeeeeeYZpzj+5JNP3FRTTeW+9rWvuemnn95NOOGEXXktd++88073xS9+0S244IJuiimm6Mq9di/3Mv4Vlttuu8298847IU3NPffcXfNpFZ6///3v7r777nMvvfRS4DfddNOFNKEppIMxfhdTd9ddd7lHH33UaaMJjeSaYYYZQhr7whe+MBgn+/JOL+O4bICqTAtVx7OF4ZFHHgnTiv/2t785Kb0WWmihQX9/vcwjTN5ujr1iWEYm5df6jRkzJnxTE088cZnXBm2nzLdaxk4qQNUMVaY98cQT7t577w3l2Wqrrea+8pWvpN7mrquWIXZ8qMui2O86nfcivVYdb//+979Dunn66afdW2+9Fcqo+eabr6slWKqWMY7TKtNWL+InlrXVeRXh0GwTlT0qd9ROUL3lS1/6UitvK33Wy/pBFXwqDWyBY1WW+738ZgpED7dGaluoWXjj+/3gHftfh/N+xn8n4R8OeUEn4cEuBPpOwH/8PTH7779/wwcu++21117Bnx/84AfZPT33a2CW8n+llVbK3vOKxcJ3ytixF/2aYI1555234TcRytyN5fVrDzZ23333hldq2iu541JLLdWYYIIJsp/fbT33PL7wiqvMnt7xmxfFj3PnZ599ds7u73//+9xzXVx55ZUNr2QtlFth8Js1NH70ox81vHJxwLuDveELysavfvWrxhxzzNHUX98Ibmy44YYNr7hu6s1iiy2WhW/11VcP9rwCubHWWms1vOJ1gNteodzYYostGr6S2dTNwTzoNv7lp28o5eTdeeedA/M99tij4RWvuWeKF69IbHgFc+NPf/pTS5G33HLLht9sI/zEq5URl9122y24W5SWfWOg4TsOGu+9914rZ3LPrrjiisa4ceMGyG/fh1dWN4477riGV2rm3rNvwq/Nl3v3c5/7XBbn6667bu6dVhfduldFHLeSL37Wq7RgflQVz/PMM08WN15JGZz/wx/+0FhggQWy+xbPOur722677UrlJVXkEV5BnqUV5ZV+mRFD0PKo/CPOjxWm1FTFMHW3zPVZZ53VWHXVVRuTTjppjrPyhG9+85shT/AdBrlne++99wCnlb9a3qByJTY//vGPs2dxHHplQHZfeay938zOnHPOGTubO6+CYRxX3/rWt4L7vhHdWHTRRXPh9x1ZOb/togoZ5FZVZdFg8qlmdZVlllkml44PP/xwC3bLY/retdde29J+u4dVpdfYn27jzY8YbihtWvr92c9+Fpw//vjjGyrn4vSsc5WHvhO0cffdd8ditDzvVkZzvKq0Ze6lxyrip1VeYv71Mhx+SmZjhRVWaPhOilzcqb6w2WabNZQn+GUuGksssUT282vqm2hdH6uoH/SST7MADia/6WW5X9U30yy8re4Pti00GIYmR7f1nG78lgxDzbtZPtFtOIxn0bGZn6ndwcZ/6k6Z63Yy9SMvKCM3diAwUgm4XgTM96g21BCNK5QPP/xw8OrWW2/N3Vcl048YaytGswp//GIZO5Lt5z//eUOVpFi+ZudS5BQpnLbeeuvc+wceeGAsSnbue5Vz9uTP8ssvnz1PT1Rxi2V56KGHclY22WST3PPYbnq+9NJLN/xmSbn3B3Oh+GmluEz91fURRxxR6FVckVpuueUaJ510Uqm48KNxBijMCj1oc7Oq+Jc3qdJKilYpI4p4xPeU5qVs8KNmC6WNGZmSqcji448/HpTwsdvNzqeZZprG9ddfX+RMdk8Kbym+pVRp5k5834/Qy8XJ/PPP3/Y9KXHKmsG6V2Ucl5W1V2lB/lcZz2naUl5YJr7/7//+r6USs6o8wo/Gz6Uh6+RoFQ9vvPFGLg/R95Xme1UybCVL0TN9U/F3U3QumX/xi1/k7BUpMOP4U0dBbPRtFbkd31PnX3xddK7OuyJTFcO4nFa58uc//7mRdnpIriIFZlUyKHwxy27KosHkUzGDuEP24IMPzsWPFHDtzPPPP5/7hlW3ef3119u91vR5lenVPKki3tI8dscdd2x8//vfz/EqSs/qWFWHWztThYzmR1Vpy9yLj1XFTyxjmpeYf7Gdbr4Rc09Hlc+qL7fLi/xmZY1rrrkmF7/HHHNM7NSgzqusH/SCT7tADSa/ieVUnbKqcr/Kb6ZduNPn3bSFBsNQ/ldRzxms3/K/H7zjtBPnE92EQ2FpZZr5Gb/TTfzH7pQ9bydT/LyqvLKsbNiDwGgk0BMFpkbgxRVJje4xo8qDlCnxczXc2plmFf74vTJ2mmV6GqUyySST5OQyGdW49FPMY68al156ac6uepKLzDnnnJOzJzfVQFTPcpHRiCfzV6MKYnPQQQdlz8yO3JppppkaqpTYvfgoBWwzRVnsdqtzv3ttodsaiSe/VdGM/bTzot7yOJOXvTLKE3NPyt1uTVXxLznSBpXJWfZYpKCQuzGjZgpMjbDRiLOyfsme0rg6EJoZjYwqck/p30/pL3y2/fbbZ85VXaEZrHtVxnEWuDYnvUoLVcdznLaK4rrVvW233bYpharyiKuvvjqXzqR8ePfdd5v6qwcnn3xy7p1USV41w5bCRA/9tNZG2iHVim/6rCh/iOMvbkzI214qMKtkGJfTfvp8Q7807LpOFZhVyiBeMUv5N9iyaDD5VMwgVmD6pRcGyOGXapG4Tc2RRx6Z41dG6V/kWC/Sq/ypKt7K5LEq45rF41FHHVUU7HCvKhnNg6rSlrmnY9XxE8uY5iXmb2ynm2/E3NNxgw02yKXXom/f7vm1wHN2q1BgVlk/6AWfmFXR+WDym1RO41vm2Kzcr/qbKQprs3vdtoUGw1CyVFHPGazf/eIdp504nxhsOJrFaXy/mZ9mp9v4N3c6ObaTKX6u76pZOVT0zVXRtu0kLNiFwEgg0BMF5ne+851cpePoo4/OsdKU1/gjTqfC5Sz/96JZhT+2285OqliVDBpZpIaSKfn8ekKNX//6142JJpooJ6OUsKpAmtF0prhypYzd3DA7OqYjNS3ct9xyS2wtnD/22GM5P+OKg6ayS1lp72uUhUYvxtN4/ZqiDU2n8utQZvZkX/YGa6677rqcW36DmcYBBxyQm5IspbQUD4pHk0/H9dZbb4C3aSZv9jVNSEphNdbUiDv//PMbfk3NnHvi3clU6NTzKuNfbjdrUKngUtwpXSl+FCZNhU2nyKux9eKLL6Zi5hrWRQpMTSFJRzhr2YDf/OY3DY3GkZ9/+ctfGpp+mCqXpRRXfKVG07ksLuy4xhprNC666KKgQFLaV/rUlE97bkdTNPj1xxoaaa137JmOarDovn6Sr6wZjHtVx3FZWXuRFnoRz82+P03f1dIBGrmlEY1KD7POOmsuHpVelcekpso8QulMHSNx+tGyGq2Mertj+3HHSS8YtpIlfnbeeefl5JKMfp3ixhlnnBG+Bb+2bDgvmv4qu50qMPVt2XcWV5414t/uaxS2nTezo6mbsamaYVxOx/EmRZ6WdVFlXsu3xHl91TIofM2+hU7LosHkUzGDWIEpub7xjW/k0k27aeSauhZzVNk5GNOL9FplvDXLY5UvqU7y6quvhmCrrnTBBRcMWAZFdbo333xzAJoqZTTHq0pb5p6OVcdPLGOsmIj9jO3EaazTb8Tc1JTP2B2dr7zyyqHseeaZZxp//etfG1JSqj6T2tN12pYwd8seq64fVM2nTDgGk980k3Ow5X4vvpkyYZedKtpCg2FYVT1nMH73k3ecduJ8YjDhKBvHzfysKv7LyhHbayWT7MXP47xrsHll7DfnEIDAQAKVKzDff//93HQwKbxee+21nM9SeMQfuM4feOCBnJ30olWF3+y2siOljaZjxf5qym+slDR3dNT6OMqsY/tp5UkNw/i5psKlZuaZZ87ZMfs//elPU6uNE044IWf3sssuy+z88Y9/zD3bc889s2fpSWp3zTXXTK2Uvv7JT36S81dTT5oZNSDi9Yw0mjQ1RZm8lH1F8aDpEunonKI1QVM/iq57Ef9FDSqNVJQyt8hIAZiOPt58880HWI0ZFSkwDzvssFycqCfUb4w1wB3dkKI8HampntzYiH2qfFYjukghr/e09o2lYx0POeSQ2LmwdlX8fJtttsk97/RCCpUy7vUijsvK2ou0UHU8Kyxx2jKmUpQVKbWlzJx22mlz7JW3pKbqPEJryJpsOmpkcDOjqeIaIWz2NYo+7tTpBcNmsqT3029K+bDKx9RIqaI1DC0MduxUgRm7Gysnm/ErY0duVs0wLqctrFJa33TTTXEQcudVyyDHi76FbsqisvmU/I4ZpApMrTVtXHRcZJFF9Eqh8Rv55UZ6qPOy2brdhQ5EN3uRXquMt6I8Vh25UooVGeVfaSfMDjvsMMBqlTKa41WnLblbdfzEMsaKCQuDjrEdS5OD/UZUz0jXbi/K4+Sv0nXRCK+0Di67ZU0v6gdV8ikbDrPXSX5TJGc35X4vvhkLV7tj2r7ppi3UCcOq6zmd+N1P3nHaKconOglHu7i15638rDL+zb8yx1Yy6f34ebd5ZRl5sAOB0U6gcgXmaaedlqt8a+3CIqOpx/aR66gRF61Mqwq/vdfKjkYlxP5panVRo93c0vHCCy/MvZNO6dY6j7Gb6eY8alzHz+PzonUwtcGJ2ZEiTItFm5Hi0J7pmCqNzJ6Oqij63Rwz+9o4ZrBmo402ytxRQ0trerYycUNcDeTUpJn8LLPM0nJtPS2cHIf7l7/8ZepkqetexH9Rg0rrU7Uyv/vd73LhkfJFvauxiRmlCkx1BsQjbNWAe/DBB+PXB5yn6VhxGhttCBAz9rvKN1WI6r2LL744Z1/rfsam6gpNWfd6EcdxuFqdV50WehHPkj9OW4pz5Q3NlrOQfTUO4rSh6dqpqTqPUHqO/dQIK414LzLHHntszm68pEGvGBbJkd7TJkJxGLSpVyvFkhrsmi4fv1PUuI/jr6gxYXKUUU6WsdMLhnE5rfCqrNPoq2amFzLIr5il5Oi2LCqbT8nvmEGqwNRmTnFaUDwpfRQZKXTiNFPUIVb0XnqvF+m16ngrymO32mqrNCi56xtuuCHHR7M44o65qmU0z6tOW72In1jGZnlJbKfbbyStZ2hAQas6uMoBfRtx+u5GgdmL+kGVfCztlD12kt+kcnZT7vfqmykb7irbQp0wrLqeU9bvfvOO005RPlE2HGXjV/Za+Vll/FclUypzt3llJ3JhFwKjlcCn/YdWqTn99NNz7vn1ZnLXduGnldppOPq1Ip2vzOTuVXnhp0TmnPMVX+cbBrl76YUfMeP8tN/stp/a7HwjNLteZZVVsnOd+M1+ml77irPzU+Oy57fddpvzFensWmH3le3s2isCnW+4Z9d+ZFF2rhM/zcb5KYi5e3bhK33uvvvuc16BGn6xu2an7NHvQOy8ojb8/NR655VbTV9VGHwjo+nzogd+MXfnlXhFj8I9P+og98xPb81dl73oRfynfo8ZM8bttdde6e3ctZ+W7bwiPLvnlc1O6aqs8YvaOz+1MrP+3e9+1/nKaHZddKJ0HMebV0Dm0rGfVpp7zY+YdApLM6MwzDjjjNljv65mdt7Pk6GI47Lh6zYt9CKei2Tfb7/9nFeCFz0K9/wIptyzou+v6jxC6dmPvsn8VZ57+eWXZ9fxiW+UxpfOK3Cy66FimHkYnfiOvOjKOd9B57yiLncvvvCj1Z2fERDfqsX5UDDcddddc3liGvChkEF+DlVZlIYvvf7qV7/qfMdvdttXTp1fliO7jk/8cgnxpfv2t7+duy570Yv0OhTxtvPOO7cMot/I0PnO8syO76xxfkmX7HooZJRn3aatXsRPBqGDk27CkdZD/Uj7lnVwlQPrr79+B9K1tjoU9YNu+LSWvtqn3ZT7Q/XNNAvxSG0LNQtvv3k3k6tf9/sV/52Gd7jkBZ2GC/sQqAuBShWYfk2MnBLPTyd2UnYUGb/2ZO62Xwswp8DLPazgwq9tmbkixaVfpzO7bnYixZpfnyd7rIZE7I6fHu78WoTZcz9dN6eE9evtZM/84s/OL66fXfvRlc6v95NdS+HopxJm16ly1E/pzZ7pxO+G56Tc8+tMOt877/zadLnnfr0n50f9hJ9fTyj3rJMLv76W22mnncKviJmUln50iFMh69fTCYrTTtz3o/daWp9zzjlzz9Nw5h62uIjjrar4T73zu3I730OZ3s5dK02ts846uXv6bsoaP60+Z3XxxRfPXRddyM/YnhRCfsRTZvWpp57KznUSN55zD/57IQX5Qw895PyouPCTorwOZijiuGw4u00LvYjnItlTBWVqxy/hkLulOE9NL/KIuLNH/vlRxKm3Id+Jled+eqKbb775MntDxTDzMDpJ/VZHQzuT5gvt7A/F8zQccT7SzP92+U36nl9XN72Vux4KGeThUJVFucA1udh4441zT4rSv+oAcfpXJ5U6PgdjUsZVpNfUzarTjsKrOlg7k3bwxeVdr2U02bpNW6mcVcSPydbJsZtwxNxVh1h22WXbeq3O16rMUNQPuuFTVTjLuNNNuZ+mxaq/63byj9S2ULNw95t3M7n6db9f8d9peIdLXtBpuLAPgboQ+GyVgvjNCTQlPXPSr73n/MYi2XW7E7/RifMbMrSzNqjnceVFir20F6eZo34qdu6RX8fQxUo1KRqPO+64YMfvlhsUeH4jgnDt1/TK3lVlTY0LVdxspKkUnFb4+wWiM7s6SRWYUpSuvfbazk9BzuxpNIEaNvr5tUbDqCW/G3pQukphqoZklUaKNvVi33333U7nGskg5WU8krQT/5Q+/CYzLV9p97zly9HDXsV/5IXzmw7Fl03P4xGYstSJAlPpLzb77ruvO/XUU+Nbhed+3dncfTV+/YYi4V7csNBIYUu/uReSCz/F0elXJzMUcVw2vN2mhV7Ec5HsaVpM7Shf6cRUlUeog2uXXXbJ8ha/7lEYNRyPSvcbdeTKm7SDZagYFvGJv2l1Jqkzr53x6+O2szLkz4eCYbvG9FDIMJRlUZlIVPmvdOOnkwfrUlSqo8gvKZK9rlGZcX3LL7cS6heZhQ5OepFeex1vfgpyqRBKgXnJJZdkduPyrtcyytMq0lYv4icDUvKk23DE3FWfVfpuZ6rME3tdP+iWTzsWVT7vptwfim+mVVhHYluoVXj7zbuVbP14Vof4bxfu4ZQXtAsLzyFQVwKdtU5bhEIVaSkwY6NRlX4X7vhWy3Mp5/xGNs7vtt3SXqcPNdpRChszqVLS7hcdU0WnlHax0QhNU2DqvqaRSwHkF5B3frfXzKqUlxrN5Nf2CApAPZAC06+ZGOzE03jTkZ3miN+F0qmRUjSd7JNPPnF+5+nw8xsEBb80JdEvWu/8BgnmxKCOfoMY53f5dH5zASd/qjKxMqIqN4vc6WX8x/61qxSaXU0XjY2+k7Im7Y3VSMp4NGVZd2wpBL/+pvPrmmavTTrppNn5cDoZqjguy6TbtFB1PBfJrfyo3YjhoveK7lWdR2jUuPJWv2lX8E4jr/1mHc5vSJN5r/zQjKbBp9Nnh4Kh+R8fpWhSejTjN0Ky05bHTsqllg5V+LDXDNWh1y4N9loG4Rqqsqhs1KgjSdNn/ZrP4RXVr1Tu+zVeMyfSUZnpqM3MYpuTXqXXXsdb2bLKOuoMgzpdzfRaRvnTbdrqVfwYg7LHbsLhN1bL1TPSenUzGapSYA5F/aAbPs3C34v73Zb7Q/HNtAv3SGsLtQpvHXi3kq8fz/oV/2XDOlzygrLhwR4E6kjg01UJpfVtOlnLr8hfv0Oru/TSS4sedXXP746de79Mz6+9EK83qHtppTldq9JGXcbrYWrtM7+TaHDSb95jTjtbB1MjGGP7q666amYnPlEjXY0W+aGpNa0UvVqL0i927DStMu3Bi91sdy4Zx44d60488cSmyks1QjWKxu9OWXoUovyteoRos7D0Mv5jP8uGRyNnY5NO042fpedpWNLnZa/VoJBR4ygexVNmpFhZP4bSXsqlym98MOHoNi2k4RmMDHrH4rno/apG0PYqj9h0001zYscKG43miUcVa8RavF6xXhwKhjkB/3vhF90vut32nvLRdusyt3WkYgv9YhgHYyhkKPu9xnL1+jxVSMbpX/m2lqwxo1GG6hwdjOlVeu11vLVTfBuLdBR5XG/qtYySodu01av4MT5lj92E45133slmHsm/snGnPLEKk8ZzL+oH3fCpIoxl3ei23E9ZlvU3tdeqbpLaTa9HWlsoDV98XQfesTx1OO9H/HcS7uGSF3QSJuxCoG4EKhuBmW7eo4pHmcqHplPblGrB0TRyjTKs0mjalWQxf1T5L2vi0Wl6R8PXY6OelqWXXtpdccUV4fbNN98cFEIaXWlGa8RZpUFT5A877LDwSL3CWgdTCqR4bcd0+ri5Y8elllrK6afRc1JmSnks/9Sg16YwsZEiU2txaDRop71CUiirERXLpga2lLb6STmqqbLa0MUaBfJrMCMCY5mrPu9l/Meylt3AKE1TZacbyy+N5orfP/74413Z0X6xrDZNXJvNKE5NiVm0SUv8Xl3PhyqOy4a/27RQdTyXlbtTe73MI7QWq5T7xvKyyy4LClnlpenmPen0cYWjXwzTkZRpJ1gzxvqu7TtsZmeo7/eLYRzOOsgQyzNU51peRnm7zfpQ3UKNWeXZmq1i9RnJkyo7O5GxV+m11/FmXNqFNZ3hEHcY9lrGdrKVed6r+Cnjd1V21LmkfNuUVmWVsmXttZOzbvWDdvLW+XmdvpnR0BaqE++6pcuhiv+6hRt5IAAB5ypRYKoRm05r1jqJ6Q7SRcC1AU280c/VV1+dVdKL7A/mnkZAatru888/H163Yxm30tGLqQJTbkjhaApMKYCkLLSRmHouZZ+ZJZZYwml6mI3Ck+IxnpattTOWXHJJs97yqHCttNJK4SeLWi9La1SefPLJuQ2RVNG/5557nBSpnRiN+IiVkeo115TOVouv25pdnfjTa7u9jn+TP53qYffTY5r+itJU+o5djxs3LozctWspP+ONpux+2aMUz1piwBp5WvpAinExa2W0JlusSK1yt9BW/jZ7NlRx3Mz/9H63aaHqeE7lq+q6l3mEGrwbbLBBGP0teaUIVPmgzdDi6eOabl40ar1fDKUgiRWv+rakmGw3ujKe2lpV/HTrTr8YxnLXQYZYnqE6V3rRsggHHXRQ8FIKy4svvthts802Lt59XPY22mijQYvVq/Ta63h74IEHSoU5/a7i6cu9lrGUgG0s9Sp+2nhb6WOl0em8Mt7q02mcNPPsrrvuavaoo/t1qx90JHzNLNfxm1H8jtS2UB151yxJhvZKL+O/buFFHghAwLlK5mdoM4V4za855pijlPJSEaBM56tf/WoWFxpBeO6552bXVZ3MNNNMmVOazhJPP8weJCda1y2epqUGtXa+TE06YlKjIx588MHMWqzAlMJIu3WbkQIzXv9SIzSl4EzNj3/8Y7fzzjuHn0apFhlNi9HmF3Iv3aWyTHhTN9MGwv77799SeSkFgxTXdTS9jH8LbxyPdi89WiM0vt+pAjN+V7vXlzFaAsDSj9ZIjUfvqIIUG430aWWkjJHCUsol/XbfffdW1ofs2VDEcdnAdJsW0jipIp7Lyt6JvV7nEUXTyNVBFPsrJY+mFKWmnwzjtKjOqmuuuSYVb8B1GTsDXurxjX4ytKDVQQaTZaiP6bqu6jDQKMw4j9YolG7XCuxFeu11vKlj9oMPPmgZJSqr1OkRm/nmmy+77LWMmUddnvQifroUqePX43qONrx84okn2rpR5ZJSMcOq2wBtAzKCLPT7mxltbaF+865b0u1H/NeNAfJAAAIVKTDT6eObbLJJabZS1n3rW9/K2W+moMtZ6vBCG+PE5qijjoovC8+lmI2nZGvkYdG0eFXMYvelILKpgBq1uNBCC+Xcj9fBvPbaa0utfynGRx55ZPhJYRQroHKO//divfXWy91Wha1Tk44ia7dbrKayx6NJO/Wvl/bj+JE/Vca/ya2GpW06YvfSozYiideKVdroZN3JNBxSTLbbBV7KdG3+YOnnrLPOyqXjOeecMyemNtJqZaScizfF6mYEaCt/On2WsulFHJeVqdu0kIalinguK3sn9nqdR2jt4LgCr+8rLR8233zzQpH7yXCWWWbJyRRv9JZ78N8LLdPR7rsreq/X9/rJ0MJWBxlMlqE+qsydf/75M2/V4amNfeLyP1XyZ5Y7OOlFeu11vKmO1a681e7j8WaKmkoc5ye9lrGDKGhptRfx09LDHjyMFZhy3pZSauaVlgzRryqTxnU/6wdVhakf7qQch7puMtraQv3m3Y801srPfsR/K3l4BgEI9IdA1yMwn3zyydwoRSn4Op3OpFFcsdEovkceeSS+1fW5NpiJF9aVcjIeXZl6IP8PPPDA3G31/DQzsRLHpofLrtaxSkcHaZRlMxO7E9tZcMEFs0uNDNUU3lbm3nvvzT2ORx3kHrS4UGU/NjbNOL5n59oBfauttrLL2h17Hf8W4F133dW9+eabdpk7aj2nPfbYI3dvn332yV23u9BUWa05akbT0bUOZjMjhfIuu+ySa/Cm3+dOO+2UrdEqd7Ssw3XXXVfopHYv32677XLPmqVZs2RrGNp1t8dm7g1VHJeVv5u00It4Lit3J/aGIo+IFTTqiDnkkEMyEbWWq9biLTL9ZLjDDjvkOgkuv/zylo1xlTXN8o2isA3VvX4ytDDWQQaTpZNjs3yqEzdkNx6FqQ7VfffdN3NCMzrSzsrsYQcnvUivQxFvW2+9dU5BGQdZ39NPfvKT+JZba621ctdDIWPOw0Fe9CJ+BinKoF/TOq3xMhq/+c1vciOJY4eldFa6jxX18fPBnNetfjCYMLR6p6r8ppUfetbvb6aXbaFmDIeintPM737zbpce0ufNwpHaG+x1L+N/sDL16j2V9+qwtN8pp5zitGQfBgIQ8AR8L3ZXxitgGnLGfn66dMfueYVfw6/zk7kht/baa6+cO36qefbcK0lzz+yinZ0tt9wyc0N++CnhDb8ZhL2eHf2ItYZfMzNn14+azJ4XnfhpSjn7xsM3tgdY9yPmGn6tywH2/ZqhA+zaDd9bnLPv1y1s+CmH9jg7+qn8DV8xbPiRrZl98fKV+cxO2ROvGMvcUHj8VP/G7bffnntd/vk1Nxt+g6CcXQt/6q/fKTWz5ysFObeKLvxaopl9ubn33nsXWSt1r+r49wV1TjYL82yzzdbwoxQzmXwh1PBK+YYfRZGzLxZFph0jPyoh54783XPPPRteWZlzzncuNBZeeOGcXb/MQMMronP2dOGnl+fs6dvw6ww29G2a8aPtGl4hn7M3xRRTNPw0PrMSjnLfWOjod4Ft3HHHHQ1x0K9T04l7VcdxWVl7kRZ6Ec/t0lYaXr+2by4u0++vF3lEKoOfKtrwDd+cHJa+jjnmmNR67roXDHMetLjwGwvlZNZ38Otf/zr3nfpNLRp+TcOcPQtbylpexfHnR/c39T3m5ZU2hfbK2NGLVTNsV04XCVu1DPIjZllFWdRJPtUJA7/pYMN3vhamEa/kKcI1qHu9SK9VxluzPNaPqGz4DreGX7s5C7dfcqPhO/pyzFSm+Q6/zI6dVCmjuVl12pK7VcdPLGOzvCS2U8U34pc2ysWJ6ql+ZkiIF9VfVL/0M5gafkmEnD3LE48++mhDPKhj1fWDqvl0EqhO8ptO5WxX7vfimykb9irbQmUZ9qKeU9Zvcekn7zjtFOUTnYSjbBy38rPK+C8rj+y1kil9XkVeKTdVplneZ0e/8a8eYSAw6gl0pcCUMsLvkJj7wE499dRBQd1iiy1y7qgC43tfM7fKVPjb2VFDYPzxx8/5o0xh0kknbay44ooNKSmV8VhGYUe/QPQAxV0m2H9PlNEoc7d37OhHJqZWw7XfYXeA3VRpG78o9/1Ugtw7aoD63qiGn7Lf2HHHHRt+g6Cc4tJkaOVu7Ed6roJJSktzx45+za3gp3gXKWLNno5qRKywwgoNKSFk4kKgqkw+lbvZddXx36xBZeGXknmBBRZo+CniAxj6UbkNVRKLTBlGfiOTAW4qbfuNmhprrrlmSCtSXJssdvRrShV5GRTc+g7Mnh2lmPbT3IN7aSNa135K4wD3lC+osWhu2FHy+N7kAfbb3ejEvarjuJ1s9rxXaaHqeC6TtixMOrZryPQij4j9t3N1jFk6sqMav37TNLPS9Fg1w6YeJQ/8JlcNP0JugNy6p44A5dcqWyw86bEuCkwFq0qG7crpBGN2WaUMcrTTb6FdZ1on+VSnDFQ/SdOHros6MTNgHZ70Ir1KhKrirV0eq7JK5V9aJzVuBxxwQFMiVcloHlSdtuRu1fETy1ikmJCfsZ0q6mt+FkphnVJxlNYvLN7iY7cKzKrrB1XzEfOyppP8plM525X7krHqb6ZsuKtsC5Vl2It6Tlm/jUu/eMdppyif6DQcFp5Wx1Z+Vhn/rWRIn7WSSXbj51XklXJTYY3zP52jwBQZDAT8GkLdQFDlOf64VIH0i3MPysmiEYw33HBD5laZCn8ZO/r4/Vo8ObnjMKTn0047bcPvhJjJ0erE76aec3fCCSfMjbaJ3017keSvn9IeWxlwrgZUkWIolTm+VoVeIz4Ha84+++xcmGK303M/lTiMhEjv69pPyQ8i9CKT7yRsVcZ/2qCSEtnvcNqWlxSafu3TpmKXYeR3e2/4pRfa+hXHhZ+m2tRPPfA7zjf8lNxSbkp5fvjhhzd1b7PNNit0ZzAKTHnSiXtVxnHTACYPepUWqo7nMmkrDlqZhkzVeUTsv52fdtppA9LTOuusY49bHqtm2NKz5KFGFKkjI/4Om537KY65UWN1UmBWybBMOZ1gDJdVyiAHO/0W2ikw5WbZfKpTBppVkaab6aefPtfJK/+7NVWnV8lTVbyleaxmrGgGQMql6FqjnFuZqmQ0P3qRtuR2lfETy1ikmJB/sZ2qGuUPPfRQw69t3Dbexo4d2/BLPeXsaSRct6bK+kEv+HQSvrL5Tadylin3q/5mOgl3lW2hsgx7Uc8p67fY9It3nHaa5ROdhKNMPLfzs8r4LyOP7LSTKX5eVV6JArNs7GBvNBLoSoHp1+XJVS6kUBmskZJtsskmy7nn1wvMnIt7n5pNIS9jRw5Kyep36875VVTpVSOjzAgfE/Kkk07KudlKWeN30c3Z1RT6dAqwuRsfNY232WiMOAwaOSkFUzwFOHank/OLLrqoZSNcDSm/sHJwUqNmi9j6NY3Cc43mMzn9rpBtxSjTaGzrSGKhqviXO/EoR78+SVB2+01xsjBaWO3oN2VoqALfynRSEJ5xxhkNKcrN/fQoReMqq6ySm9Leym8tCeA3RWlohGjqll3ru7jnnntaOdPw67Q2ikbNtfomWjnYqXtVxXErmeJnvUoL5kdV8dzp9+d3O86lgyKlmmSsMo+wMMfH9957b8BoRr9Wa2yl7XlVDNt6lFhQ2tWodft+0qNGZNpUeCll7HkR6zj+xowZk/j0v8sy08PL2Pmfi///rAqGZcvp1G+7rkIGuRWzrKosKptPdcrAr3s1IP2365AyXp0eq0yvsd/dxluqwNT0+ccee6wxxxxzZN+MfTt2VGe137k9FqPlebcymuO9SFvmdlXxE8vYLC+J7VT1jSgcGrV1xBFHNPwGVQM65TWTxK/T3dBoSS0NYHGpo5a1qcJUVT/oFZ+yYSyb33QqZ9lyX3JW9c2UDbPZq6otVJah/K26ntOJ3xbuoeYdp51m+cRgwmHhKTqW8bOq+C/yv+heO5ni51XllVpiSEsPxXmg39+iSDzuQWDUEfiUQuw/jlFptBu0NrvRzysUna84Od+ADJtC6Oin1NaWizYg8oow9/TTT4efNrfw0+6ddnrUJi/a6bxK+b0CwV111VXBz6eeesp5pZnz64Q6Pw0y/HxjOGOlJKVNfcTUK/icz8ydHwnqfEac2anDSa/iX+H3o5OdV/I5P3XeeWWy82tRhp/vmWsbdG1MYpswyX6843fRy34NyuCXNr/SjuPaNMpPTXV+Kl1YcD3edbXo/aJ7vuB0fh0xd+eddzrFt+Ja8agdEXUsY8TBT71xvqLh5J5X0jvf2AzfWZn3UzuDca9XcZzK1uy627QQu9uLeI7d7/Z8OOQR/WKodKCN4W677TbnR1GFhdinmmoqp2997bXXdn4pjm7xD9n7/WIYB7AOMsTyxOeDyafi95udzz777NmGNX66rVPe5kf3NrPe1f1epddu4s2PQApliAVMm7ycddZZ4dLPaAjflja1k+zatVu8tGGin7Vir5Q6diNjKQ8qsNSr+KlAtI6d0EaDjz76qPOdp27yySd3yhf98iDBHb9GvfMd4pmb2lxw2WWXza67Pel3/aBb+fV+r/KbTmTr5zdTRVuoE4ZV13M68dvipJ+8TYb0OJhwpG4M5rqK+B+Mv7wDAQj0l8CoVmD2Fz2+Q6CYQKcKzGJXuAsBCEAAAiOBwP333x86Vy0s2k37d7/7nV2OimMrBeaoADDMAykFh35m1Lndzuy0007OL7eUWVMHrRTTGAhAAAIQgAAERi+B9jWI0cuGkEOgLwQ++uijvviLpxCAAAQgUD8CJ5xwQk6o7bffPnfNBQTqTuAXv/iF08hh++23334tRdYoM7/7cmbHr3fq/BI82TUnEIAABCAAAQiMTgIoMEdnvBPqmhLQNCq/22gmnd/wJzvnBAIQgAAERhcBLcNx5plnZoHWMhxVTqPNHOYEAj0k4NfEzrl+3HHHuQ8//DB3zy782u1haY0nn3zSbjmNOi4zajN7gRMIQAACEIAABEYkgXotSjgiERMoCLQncNBBB4U1zW699VankQdmtB4UBgIQgAAERgcBrQm42267hbWs/WYj7rTTTgvrA1ro/eaGdsoRAsOGgN+wx/mNOt3rr78eZH7zzTfD+umHHnqoW3TRRcPa2FovW+unn3POOWEdcQuc1vXeeuut7ZIjBCAAAQhAAAKjmAAKzFEc+QS9PgSOPfZY9+qrrw4QaI011hhwjxsQgAAEIDAyCfgdx3Pr/sWh1BTaeFOT+BnnEKgzAW30ePTRR7uNN97Y/ec//wmiarPClVZaKZxLSfnxxx8XBuGnP/1pbg3YQkvchAAEIAABCEBgVBBgCvmoiGYCORwJqKG61VZbDUfRkRkCEIAABCokoNFrGo352c/S71whVpwaQgIbbrihU2et1sFMTZHyUkpNrZ2pEckYCEAAAhCAAAQgIALUhEkHEKgBgdlmm82NN954TlPGdb7EEku4TTbZpAaSIQIEIAABCAwVASkoZ5hhBvfCCy8EZaVGXc4999zugAMOcFNPPfVQiVE7f8RlkUUWyeQaO3Zsds7J8CGw7bbbulVXXTUoMrW262uvvTZAeG3Ys/7667stt9zSac1XDAQgAAEIQAACEDACn2p4YxccIQABCEAAAhCAAAQgAAEI9JqA1vx+7rnnnNbEnGSSSZyUlxNPPLHTlHMMBCAAAQhAAAIQSAmgwEyJcA0BCEAAAhCAAAQgAAEIQAACEIAABCAAAQjUhgBrYNYmKhAEAhCAAAQgAAEIQAACEIAABCAAAQhAAAIQSAmgwEyJcA0BCEAAAhCAAAQgAAEIQAACEIAABCAAAQjUhgAKzNpEBYJAAAIQgAAEIAABCEAAAhCAAAQgAAEIQAACKQEUmCkRriEAAQhAAAIQgAAEIAABCEAAAhCAAAQgAIHaEECBWZuoQBAIQAACEIAABCAAAQhAAAIQgAAEIAABCEAgJYACMyXCNQQgAAEIQAACEIAABCAAAQhAAAIQgAAEIFAbAigwaxMVCAIBCEAAAhCAAAQgAAEIQAACEIAABCAAAQikBFBgpkS4hgAEIAABCEAAAhCAAAQgAAEIQAACEIAABGpDAAVmbaICQSAAAQhAAAIQgAAEIAABCEAAAhCAAAQgAIGUAArMlAjXEIAABCAAAQhAAAIQgAAEIAABCEAAAhCAQG0IoMCsTVQgCAQgAAEIQAACEIAABCAAAQhAAAIQgAAEIJASQIGZEuEaAhCAAAQgAAEIQAACEIAABCAAAQhAAAIQqA0BFJi1iQoEgQAEIAABCEAAAhCAAAQgAAEIQAACEIAABFICKDBTIlxDAAIQgAAEIAABCEAAAhCAAAQgAAEIQAACtSGAArM2UYEgEIAABCAAAQhAAAIQgAAEIAABCEAAAhCAQEoABWZKhGsIQAACEIAABCAAAQhAAAIQgAAEIAABCECgNgRQYNYmKhAEAhCAAAQgAAEIQAACEIAABCAAAQhAAAIQSAmgwEyJcA0BCEAAAhCAAAQgAAEIQAACEIAABCAAAQjUhgAKzNpEBYJAAAIQgAAEIAABCEAAAhCAAAQgAAEIQAACKQEUmCkRriEAAQhAAAIQgAAEIAABCEAAAhCAAAQgAIHaEECBWZuoQBAIQAACEIAABCAAAQhAAAIQgAAEIAABCEAgJYACMyXCNQQgAAEIQAACEIAABCAAAQhAAAIQgAAEIFAbAigwaxMVCAIBCEAAAhCAAAQgAAEIQAACEIAABCAAAQikBFBgpkS4hgAEIAABCEAAAhCAAAQgAAEIQAACEIAABGpDAAVmbaICQSAAAQhAAAIQgAAEIAABCEAAAhCAAAQgAIGUAArMlAjXEIAABCAAAQhAAAIQgAAEIAABCEAAAhCAQG0IoMCsTVQgCAQgAAEIQAACEIAABCAAAQhAAAIQgAAEIJASQIGZEuEaAhCAAAQgAAEIQAACEIAABCAAAQhAAAIQqA0BFJi1iQoEgQAEIAABCEAAAhCAAAQgAAEIQAACEIAABFICKDBTIlxDAAIQgAAEIAABCEAAAhCAAAQgAAEIQAACtSGAArM2UYEgEIAABCAAAQhAAAIQgAAEIAABCEAAAhCAQEoABWZKhGsIQAACEIAABCAAAQhAAAIQgAAEIAABCECgNgRQYNYmKhAEAhCAAAQgAAEIQAACEIAABCAAAQhAAAIQSAmgwEyJcA0BCEAAAhCAAAQgAAEIQAACEIAABCAAAQjUhgAKzNpEBYJAAAIQgAAEIAABCEAAAhCAAAQgAAEIQAACKQEUmCkRriEAAQhAAAIQgAAEIAABCEAAAhCAAAQgAIHaEECBWZuoQBAIQAACEIAABCAAAQhAAAIQgAAEIAABCEAgJYACMyXCNQQgAAEIQAACEIAABCAAAQhAAAIQgAAEIFAbAigwaxMVCAIBCEAAAhCAAAQgAAEIQAACEIAABCAAAQikBFBgpkS4hgAEIAABCEAAAhCAAAQgAAEIQAACEIAABGpDAAVmbaICQSAAAQhAAAIQgAAEIAABCEAAAhCAAAQgAIGUAArMlAjXEIAABCAAAQhAAAIQgAAEIAABCEAAAhCAQG0IoMCsTVQgCAQgAAEIQAACEIAABCAAAQhAAAIQgAAEIJASQIGZEuEaAhCAAAQgAAEIQAACEIAABCAAAQhAAAIQqA0BFJi1iQoEgQAEIAABCEAAAhCAAAQgAAEIQAACEIAABFICKDBTIlxDAAIQgAAEIAABCEAAAhCAAAQgAAEIQAACtSGAArM2UYEgEIAABCAAAQhAAAIQgAAEIAABCEAAAhCAQEoABWZKhGsIQAACEIAABCAAAQhAAAIQgAAEIAABCECgNgRQYNYmKhAEAhCAAAQgAAEIQAACEIAABCAAAQhAAAIQSAmgwEyJcA0BCEAAAhCAAAQgAAEIQAACEIAABCAAAQjUhgAKzNpEBYJAAAIQgAAEIAABCEAAAhCAAAQgAAEIQAACKQEUmCkRriEAAQhAAAIQgAAEIAABCEAAAhCAAAQgAIHaEECBWZuoQBAIQAACEIAABCAAAQhAAAIQgAAEIAABCEAgJYACMyXCNQQgAAEIQAACEIAABCAAAQhAAAIQgAAEIFAbAigwaxMVCAIBCEAAAhCAAAQgAAEIQAACEIAABCAAAQikBFBgpkS4hgAEIAABCEAAAhCAAAQgAAEIQAACEIAABGpDAAVmbaICQSAAAQhAAAIQgAAEIAABCEAAAhCAAAQgAIGUAArMlAjXEIAABCAAAQhAAAIQgAAEIAABCEAAAhCAQG0IoMCsTVQgCAQgAAEIQAACEIAABCAAAQhAAAIQgAAEIJASQIGZEuEaAhCAAAQgAAEIQAACEIAABCAAAQhAAAIQqA0BFJi1iQoEgQAEIAABCEAAAhCAAAQgAAEIQAACEIAABFICKDBTIlxDAAIQgAAEIAABCEAAAhCAAAQgAAEIQAACtSGAArM2UYEgEIAABCAAAQhAAAIQgAAEIAABCEAAAhCAQEoABWZKhGsIQAACEIAABCAAAQhAAAIQgAAEIAABCECgNgRQYNYmKhAEAhCAAAQgAAEIQAACEIAABCAAAQhAAAIQSAmgwEyJcA0BCEAAAhCAAAQgAAEIQAACEIAABCAAAQjUhgAKzNpEBYJAAAIQgAAEIAABCEAAAhCAAAQgAAEIQAACKQEUmCkRriEAAQhAAAIQgAAEIAABCEAAAhCAAAQgAIHaEECBWZuoQBAIQAACEIAABCAAAQhAAAIQgAAEIAABCEAgJYACMyXCNQQgAAEIQAACEIAABCAAAQhAAAIQgAAEIFAbAigwaxMVCAIBCEAAAhCAAAQgAAEIQAACEIAABCAAAQikBFBgpkS4hgAEIAABCEAAAhCAAAQgAAEIQAACEIAABGpDAAVmbaICQSAAAQhAAAIQgAAEIAABCEAAAhCAAAQgAIGUAArMlAjXEIAABCAAAQhAAAIQgAAEIAABCEAAAhCAQG0IoMCsTVQgCAQgAAEIQAACEIAABCAAAQhAAAIQgAAEIJASQIGZEuEaAhCAAAQgAAEIQAACEIAABCAAAQhAAAIQqA0BFJi1iQoEgQAEIAABCEAAAhCAAAQgAAEIQAACEIAABFICKDBTIlxDAAIQgAAEIAABCEAAAhCAAAQgAAEIQAACtSGAArM2UYEgEIAABCAAAQhAAAIQgAAEIAABCEAAAhCAQEoABWZKhGsIQAACEIAABCAAAQhAAAIQgAAEIAABCECgNgRQYNYmKhAEAhCAAAQgAAEIQAACEIAABCAAAQhAAAIQSAmgwEyJcA0BCEAAAhCAAAQgAAEIQAACEIAABCAAAQjUhgAKzNpEBYJAAAIQgAAEIAABCEAAAhCAAAQgAAEIQAACKQEUmCkRriEAAQhAAAIQgAAEIAABCEAAAhCAAAQgAIHaEECBWZuoQBAIQAACEIAABCAAAQhAAAIQgAAEIAABCEAgJYACMyXCNQQgAAEIQAACEIAABCAAAQhAAAIQgAAEIFAbAigwaxMVCAIBCEAAAhCAAAQgAAEIQAACEIAABCAAAQikBFBgpkS4hgAEIAABCEAAAhCAAAQgAAEIQAACEIAABGpDAAVmbaICQSAAAQhAAAIQgAAEIAABCEAAAhCAAAQgAIGUAArMlAjXEIAABCAAAQhAAAIQgAAEIAABCEAAAhCAQBYvDdIAAEAASURBVG0IoMCsTVQgCAQgAAEIQAACEIAABCAAAQhAAAIQgAAEIJASQIGZEuEaAhCAAAQgAAEIQAACEIAABCAAAQhAAAIQqA0BFJi1iQoEgQAEIAABCEAAAhCAAAQgAAEIQAACEIAABFICKDBTIlxDAAIQgAAEIAABCEAAAhCAAAQgAAEIQAACtSGAArM2UYEgEIAABCAAAQhAAAIQgAAEIAABCEAAAhCAQEoABWZKhGsIQAACEIAABCAAAQhAAAIQgAAEIAABCECgNgRQYNYmKhAEAhCAAAQgAAEIQAACEIAABCAAAQhAAAIQSAmgwEyJcA0BCEAAAhCAAAQgAAEIQAACEIAABCAAAQjUhgAKzNpEBYJAAAIQgAAEIAABCEAAAhCAAAQgAAEIQAACKQEUmCkRriEAAQhAAAIQgAAEIAABCEAAAhCAAAQgAIHaEECBWZuoQJC6EvjPf/5TV9GQCwIQ6ICAvuVGo9HBG1iFAAR6RUDfIuVrr+jiLgSGjgDf8tCxxicIQAACo50ACszRngIIf1sCn/rUp4Kdf//7323tYgECEKgvAfuW6yshkkFgdBHgmxxd8U1oRxYBKS6tbsy3PLLiltBAAAIQqCuBT/nCh+EodY0d5IIABCAAAQhAAAIQgAAEIAABCEAAAhCAwCgn8NlRHn6CD4EBBNDpD0DCDQiMaAKMHBnR0UvgakKAsrUmEYEYEBgiApStQwQabyAAAQiMIgIoMEdRZBPU1gRsGky8Jhdr5rVmxlMIDDcCalB9+tP/Wz1F57pnv+EWHuSFwFARMAVkp0oJvWdlqbkhma3MHSr58QcCEOgtAStP5YuVqTrGZW5vJcB1CEAAAhAY6QRQYI70GCZ8TQlYo8oUlmpMffzxx+4f//hH+On8n//8p/voo4/c+++/H3461/N//etf7pNPPgmNMh3lFo2xpqh5AIGeErBGk476feYzn3Gf/exnw+8LX/iC+9KXvuTGH398N95447kJJpjAfe5zn3Nf/OIXnZ7pp2v9rMGl91Ojb1y/omepXa4hMBIJKP3LxArMVvdUNsrITlyeqly16w8//NC999577u9//3v46R2VryqXrYw1PyhjA07+IDCkBKzM01E/lbEqLz//+c+7L3/5y1n5+pWvfCUrW1X+6pns6Gd5ht7Xub5vc9fq4HIXAwEIQAACEGhHgDUw2xHi+YgjYI0gNaDUMHr33Xfd448/7h599FH31FNPhfPnn3/evfrqq+7NN98MCssRB4EAQWCUElCjSQ2tMWPGuCmmmMLNNNNMboYZZnCzzDKLm3nmmd3UU0+dKT+FyJSaNK5GaYIh2AMImEJR34aVp/ad6JkpHtXh99xzz7kHHngglK1PPPFEuH7ppZfcW2+9FcreAY5zAwIQGJYEVEaqk3CSSSZxU045ZShXp59++lC2jhs3zuknZabKYFNkWr4xLAOM0BCAAAQg0BcCKDD7gh1Ph5qAGlX6qbGl3wcffOCefvppd+mll7obb7zRvfjii0FZqdEgRcYqWXY0O7ouMrov/+LnusZAAAKDI9Dpt2TfvPmmUR7NvkE1piaeeGI36aSTuvnmm8+tttpqbvHFF3cTTTRR1uBS4yyWQe6ae+l985MjBEYigTjdqzzVt2FKS42ufPnll91NN93kLrroIvfMM8+41157LcxgsJFWKZP427JvyY6p3fja7Jg88TPOIQCB8gTsW9Ib7b4nex4fm33bck8dhipb1Vm4wgoruFVXXTV0IGqEpvzVaE3zX/mJymMMBCAAAQhAoBkBFJjNyHB/xBBQhUgVLTWwNCJECsvzzz/fXXHFFWHqWhxQNaS++tWvBsWFKl2abqrpp+l0U+tBtoqWHc0tVcbkp9wz06qCZ3Y4QgACxQT0Tel70nfV7FuyZ/a9a5S17Orb19IPUq6ok0LTVTXyWj+NBNOz1Mw777xuvfXWc+uvv76baqqpQiNL33n6TUsua3ylbnANgZFIwL4/fQv2fWna93333Rc6Bc8999zQKZiGXWWqOgV01JIO+tkyDipjpcjQN6bpqVam2nefuqVr+a/nKuMxEIDA4AlY2arvyb7v1DXdt/q0ylad21IQKltVjqps1ZIQ77zzjnv77bfDYAGVx7HR6Mw111zTbbrppm622WYLeYApMePyNX6HcwhAAAIQgIARQIFpJDiOOAKmzJDyQpUrTV878cQT3eWXX+5eeeWVEF41ktQLrGmjc845Z5hCOvnkk7sJJ5wwKC/VwNKUF2tYqXJljaYiYPa86Bn3IACB3hCwRlXquvIA/ey5jmpk6adGln5SYmrJCE1z1VISanRJGSMj5cr888/vttpqK7fyyiuHfMHW80JpmdLmeiQRMKVDs3QuZYZ+UmBoxOXFF1/sjj/+ePfCCy+EDgO9J6WkRl7NM8882fIMUl5qmqnKVnUOxmVrrLSMWcotexbf5xwCEOgdAfvGVa/VeWysfq37VsZaR6HWjLeyVXXthx56yD3yyCOh3q26uN7RNz127Fi3wQYbuO9973tusskmCx0XpsiM/eIcAhCAAAQgEBNAgRnT4HxYErCKlSpE+plRZUoKC61jeckll7hDDz00KCr0XJUkVZ4WWWQR941vfMNNM800WYPKRoSowWQbe1jjSe7HSkpV3OKGXuy/ycERAhDoDwFrXFkeISmUL9hP+YNGZetnG3XdfvvtTr977703W6NP3/xmm23mfvCDH4T1vGyEGN97f+IVX3tPwBQUVvaZj3bflBV33nmn22effdxf/vKXrCxUh+Bcc83lll9++aC41KhLlavqLNRR34/KYH1X5r6VrTrqZ2Wr7GAgAIH+EbA6rklg36fKVStb43xB5ao6NpRHqGzVkk1SaEqReeutt7q//vWvQZmpd+WW6uG77bZbyC+UP1jeYP5xhAAEIAABCMQEUGDGNDgflgRUWZKxSpUaPKoYaZSVpocefPDBTlPaNKVFz7Rxx+qrr+6WXHJJN+OMM4Yp4xoRYlPYVHlSA8vclLuxUUXNGlVqfFnlLrUXv8M5BCDQGwL6/u2bN2WINYysURX7rHt2X+/qXI0tU2Qqn9AGXnfffbe78sor3V133RVGZCpf0CjtI444wi2wwAIhv7DvX26Y37FfnENguBPQN2LpXGGx70VTRc8++2x31FFHhQ169EwzFxZbbLEwPVQdhJrNoLJVP9u8w5QTcXlp53Jb53at71rnJoO+ayt75R8GAhAYOgL6PvUt2vepaxn7bnW0e/pWZVe/eNaDZjg8/PDD7vrrr3d//OMfQ7mrd9Tpsddee7l111031Mktn7Bvf+hCiU8QgAAEIFB3Aigw6x5DyFeagFWeVHGyKeP777+/+8Mf/hAqUZqutuyyy7qNN944jL7UTolqcNmIEGukqeJkbule2miKK3BxY0rvyC4GAhAYWgKmwFTDKv4m08aPvk99p7Knoxnd189GlWmdTDW0Xn/99aDEvPDCC8PuybL/9a9/3R100EFujTXWCFNg1dkht2J/zV2OEBjOBOwbse9F35N++i7OOOMMt++++4ZrlZOzzjqr23rrrcPIS3USqmzViEspLvVt2Lcpu2asLNUz/az8lL9mr9k3a25whAAEeksg/RZ1rW9U36a+bSv/7PuVNJZ36Fz39a1raRZbI1N5iEZvn3feednobXV0bLnllm7PPfcMSkwbSCA3KF9FAQMBCEAAAiKAApN0MGIIqMKkSpJGU7300kthuuc111wTlBLamEdTQFdZZZUwXVzrcklxqZ9VxgRC59ZYiytlqjzJbRmrSMlebGQ/rrTFzziHAAR6R8C+Wfs2zSdTkKgBpY4JHc2u7Ng3bN+unuunPESNLa2PqTW87r//fnfSSSeFo56PGTPGnXDCCW7FFVfMRmKaW+Y3RwgMZwJxWWbfjL4JLbVw+OGHh/Uuda7vSsp8bXglJebEE08clA+p4lIs5I6+H32n9r3YNyr/4vsxO71jMsT3OYcABHpPIC1XzUd9s/b9mpIzfmbfuo6yq6Psa4CBFJmvvfaae/LJJ92ZZ57prr766jBSUzOhdt55Z7f99ts7DTKwOnkzGcw/jhCAAAQgMHoIoMAcPXE94kOq0VNqYGkTgb333juse6kK07TTTuu23XZbt9xyyzntfqiRIerZVcVIja/YyL4aSta4ip/ZuSpi1tiyexwhAIH6E7DGlr5zff86pkoT3dP3rfxEP63f9cYbb4Rpb6eddlpoaMkdTXk7+uijBygxzc3600BCCDQnYN+KbKg8VNmqdezOOusst8suu4RvRGXpOuus47bYYouwNIuUl+oUNOVlWaWD+dWu7G0uLU8gAIGhJqCyrtNvVt+63tNRSkzNdFCd/aKLLnKnn356KG81W2rHHXd0u+++exjFrXq68hKVyzKt6udDzQD/IAABCEBg6Al8Zj9vht5bfIRAtQRUGdJPUz+POeaY0MiS8kEjLW1x8KmmmsppB1Q1rqxC1Kwi1Oy+pO60wlZtSHENAhAYLAFTqJjS0o6xe/Z965l+6uyQUkbT26affvqw47J2LdfoTG1KoI1KNMI7HoHSKv+I/eIcAnUlIGWBpWOVrRqVrDXrVGXUyEuldyku119//fBdSHkpxYPKVz3Tt1PW2Hdo/pV9D3sQgED/CFhZ2YkEVq7qqHq4zYTSQAPlM4899lhQbD744INu9tlnD3lLmp+QT3RCHLsQgAAERh4BFJgjL05HVYjUkyujo3pzL730UnfggQeGqSiafqIe3JVXXjmMlhp//PFDZUmVpmYVr2b3RxVUAguBEUygzDeu/EQNLDWcZF9KTE1tm2CCCcKI7pdfftlJiakpcNrwRxuCab0/a5yNYHwEbZQQUFqWElM/jb584okn3DbbbBNGS0npIMWl1qubYYYZwlRPfR/6XuybGSWYCCYEINAhAZWpVlbqqPxEnR/TTTddKG+1gZ421ZMSUxvmafBBnK/ofQwEIAABCIxeAuW7yEcvI0JeYwKqyEjZYA2sE088MYzCVKVIDSxt2qP16jR6yhSXNg2lxsFCNAhAoI8ErLGkvMKUMlLQqFNk5plndt/97nfDlFmJqLW7LrnkkpAHmcKnj6LjNQQqI2Dlq0YbH3fcce7pp58Obi+88MJuww03DEuySKlvm22Y/coEwCEIQGBEEtBoS5WXqpdr1LaWo9CyLNqFfPHFFw+KTI3GPP7448O0cs2owkAAAhCAAAREAAUm6WDYEjBlgSo2Gn2ptbnuuOOOUPFZeumlw27j2jFYI6NUSdLPRmwO20AjOAQgMGQElF8on5FiRvmHRomoQ2T++ecPOy5rVLfWyDz22GPdU089FZSYQyYcHkGgxwSU9rXhxlVXXeUuvvji4JvS/0477eRmm202N9FEE4XRU1Jg6mejqnosFs5DAALDnIB1DCrPUNmqUZhahmLGGWcMZauOKn+1NuaNN94YylbV9ZUnYSAAAQhAYHQTQIE5uuN/2IdeFRytzfX444+7Cy+8MIRnsskmcxtssEHozdXIS2tYmRJCRxkqQgEDfxCAQBMCamTFShldK09RHrPEEku4RRddNCg3tZOqGloaCa6RJRgIDHcCKh+lMNB6l9ol+K233gplqUZIzTTTTLn1pOOw6j3K1pgI5xCAQCsCsRJT60nPNddcYSSm6uoqT0899VT30ksvUba2gsgzCEAAAqOIAArMURTZIzGoaihZA+uVV14JQVx11VWDckEb9qhXV0qHogYVozFHYoogTBConoB1fmikiDpENG12Or9e10YbbRRGjcjHc88910mRKaUPeUv1cYCLQ0tAaVgK+VtuucVdf/31wfN55pnHrbbaakGBr9HI+h5UvsaGtB/T4BwCEChDwJSYmjGlDsLVV1/dzT333OFV5UE333xzKFvLuIUdCEAAAhAY2QRQYI7s+B3RobMG1rPPPhsqN7qW0lIKTE1t07o6qhRJ+WCjLmMgacMrfsY5BCAAgSIC1tDSml1zzDFHmE4uey+++KK74YYbwpRblDhF5Lg3HAios0+jnpSGtTzCBRdcEMRWGbr88suHXYGlZFD5qW8h7RzU/aLydjiEHRkhAIH+EVC+ofxDsxwmnXTSsAGn1p7WIIXLLrssbM7JNPL+xQ8+QwACEKgLARSYdYkJ5OiYgBpZ+t1zzz3ukUceCe9r055x48blNu1RpYgGVcd4eQECECggIKWNGllS4mhTH40U0VqY//jHP9wVV1zh3n777ZAvpYqdAqe4BYFaEjAl5kMPPeS0I7CM1r5U56A6CTXyUmWqlJwo62sZhQgFgWFHwOrpGnygsnXJJZd0Y8eODeFQ2apOQi0ZpXo/BgIQgAAERi8BFJijN+6HfcjVcProo4/c7bffHhpR6rVdcMEFw+hLTfOUkgElwrCPZgIAgVoQUH5jDScbhak8Rw0srQkoc//994e1As1eLQRHCAh0SECKBCkKHn300bD2nF7Xeq9SKsRTx2XPlA4deoF1CEAAAoUE1EGikZfahFPLVshoOYs///nP4ah6ffordIibEIAABCAwIgmgwByR0TryA2UjPzS1ROvjyGjdHO0OrJFR6sFVBUdKTAwEIACBbgnYyEu5I6WN8hYpc6aeemo3++yzh3tvvPGGu/POOxmZ1i1s3u8rASng1TmotKyRxVpLerHFFnNaNkFlq9K/vgf79VVYPIcABEYMAesUUfmqDX2WWWaZEDbV52+66aaQL6n+bwpMOgtHTNQTEAhAAAKlCaDALI0Ki3UioMqLRoho/cs333wziDbllFO6aaaZJmyyoRsoL+sUY8gCgZFFwEZhavr4LLPMEhQ7CuG9997LNLeRFdWjLjQ2u+HBBx8MYZ988slD2apRUabIVxmM8mDUJQ0CDIGeE7CyVfmNLQklT1XfVyeh8icZ2WMEeEDBHwQgAIFRRQAF5qiK7pEVWC3mrTW6/vnPf4aAaaqJpnTazuMjK7SEBgIQqBsBm+qmzXzU2JK57777wqi1usmKPBAoS0AKAs1usLWlv/a1r7lpp502KOm1PIuMjUIu6yb2IAABCLQjIKWkjPIXla8ahTnzzDOHey+//HJYB9MUmLqpgQrxdbDIHwQgAAEIjGgCKDBHdPSOnMBppIeN9rCpI1oT5/nnn8/uay06m942ckJOSCAAgToQUCPJ8iDJo4aWflLoSMGj6bUyGhH+1ltvhXPZV36FgcBwIKA0ro5B/aQs+PDDD4PYU0wxhZt44olDeh8O4UBGCEBgeBKwMtbKVi0JNd1004XAvPPOO6FstbLY2gKm9ByeIUZqCEAAAhDolAAKzE6JYb8vBNTLalPCVWmxRpZ2JbQKjzbSkAITAwEIQKBqAmokWR4Uu608R40srYUp88EHH4SNT9TI0igSFJgxLc7rTMCmY6pMffzxx4OouqfNNKSoR1FQ59hDNggMbwIqKy0PUkiU32hmg+1E/u6777rXXnst1PnNnspZDAQgAAEIjC4CKDBHV3yPqND+/e9/d++9914IkxQIGgGlSg2NrBEVzQQGArUnIOWONhGT0ZIWGoGpThZGYNY+6ka9gFIaWCegzvVT2tVaczIqUzUCU2lcCnxTHIx6cACAAAR6RkB5kurymkau0d/Kf2Ref/31MGVc+ZQMeVLAwB8EIACBUUUABeaoiu6RE1j1umqkk3pkZVTB0Y7AquygwBw58UxIIFBnAmo8mWLHFJjatVkKTBsZQn5U5xhENikk05HFSruvvvpqgKP0O2bMmGx5FhSYpBkIQKAXBJS3WHlpiknd00Z5tsa08iV1sFj52gs5cBMCEIAABOpNAAVmveMH6ZoQUO+rFAUahSmD8rIJKG5DAAI9J6DGlq2BqcaV8iUaWD3Hjgc9IqC0a52D8mKCCSbokU84WyWBwY74Hux7Vcpexi2lS/LVMqSGvx1TZqpsVf3elofSOphpGrAR5MM/1IQAAhCAAATKEECBWYYSdvpOQBUWmzJiwmgTHykxZdRDaxUce86xOwJxo2Y0VhCV3hTutLLcHdWhe9u+mfS7GToJRodPamipkaXdUmWUZqxjZXQQIJTDnUCaz0kJrxkOMkrfStua3YCpH4E4n7fRa7GUVo7pns6LyoOi92I3en3eTC7z154rLeqHGR0EFNdKm1oiyur3li/FBPqdfmNZOIcABCAAgd4ToEbae8b40AMCqrR//PHHYSqJnNf0EikRMNUQUIMhbiyIbazI03Pd01GNX6tA6h3ds+tqpOmPKwqXhcckEIOYi92v+1EKCcWJ4kZG5woHphoCYqlRIjJKI+JtRsxHyjdhYeI4sghYnmb5g47WOahnKl/JL+oV52l5bHGocktls5VfklrPFKd6Jy6b4/Istm8hje3avX4eSYP9pD/0fiu+lZa/8IUvZB0oH3300YAp5KSLoY8bfIQABCDQTwIoMPtJH79LE1DlO66k6FxKAikxZdTA0giR2E5px7FYSEDMjbsaOtqc5NFHH3X33nuvu+WWW9wzzzzj3nzzTfeVr3zFTTfddGGnyPnnn9/NN998YUMTiwtVQIejMfn/+te/umeffTYEQRXpFVZYIYwIqHu41PiUEuK2224LG3IoDieZZBK36KKLuvHGGy+L2+EYN3WTWWlBo0RkpAhQI8u+HUtHdZMZeSAgAnE61bkp35WGzSi/wNSLgOUrijPlOQ8++GAolx9++GH35JNPhjz/a1/7mhs3blwok5dZZhk31VRTBSWmlV3mhkKmeL/55pvDJim61qyW1VdfXac9N7EcH374obvsssuCnLo/44wzBvlN5p4Lgwe1I6DRl7aJj2Y3KM1jIAABCEBg9BJAgTl6435YhTytvEoZo58q7jKmvIwrwsMqgDUUViyN51NPPeWOOeYYd+WVVwbFpXE3sdXwkdE6gAsvvLBbd9113cYbb5wpdczecDoq7FICHnfcce6cc84JomuzqDvuuMPNMMMMwyIoagwecsgh7pprrgnyLrDAAu7CCy8MCsxhEYBhIKSlE2tgSWQ1sJQ/WUPLvqNhEBxEHIUElE4tjaqsjctW3VfHjT0fhXhqGWTFh+JJnYgnnXSSO/vss93jjz+e5TkSWp2Nl19+eejgXWyxxdx2223nVltttWy2Shynmpp7wAEHBCWm3p1++umHTIEp/8xo7dVNNtkk65z+3ve+50444YRMZrPHcfQQUJ5ko4Gtg2X0hJ6QQgACEIBASgAFZkqE62FDQGtgmiJNygOr4AybANRYUDWMVGmUAuzcc891++yzT7YrbSux33vvvaAsu+GGG0LD6bDDDnMzzzxzq1e6ftYrJdFQpadm8isOrIFpx1aw5I5+7eTW82Z+tnKfZ60JxJ0sGhlueVPrt3gKgf4SUN4S5y9Kt/aTZHoWp+3+SovvMYH333/fbbPNNu7iiy/O8nQ9Vx6veLM8SCPxr7/+evfnP/85dMhtttlmbcsJ86fqssLKKZPT/NHR5G13T2VjWs6ZnHo3Ts+6LrKv+5jhQUD5j+VBqvfHcT08QoCUEIAABCBQJQEUmFXSxK0hJaBKjFV4NQLTKjhDKsQI9UyNA/V0//KXv3Q//elP3dtvv52FVKMsl1pqKbfQQgu5ySef3KkRpSnWf/jDH9zzzz8f7OldTQPTqA65oRGL1uBQYyI2dj++F5+b/Xb29I7Sg+xZ463bNGF+F8kT3ys6FwPJ0kxuyWryKS2nja4iN4vu6d1OG2jNZCpyn3vlCCguxVVxYflSuTexBYF6EYgVBDa7gTyjXnEkpeSpp54aOgotvlQeb7rppm6uueYK5Ymmlf/mN79xL7/8chBe029/9rOfudlmmy2U31butCt7zF5ZAlZu6j0r4+J3Td74ns6L7BbdKyrvTEZ7FodJz3Tfnlk+LTuxvVQerutBQPFl+Y/isFn6qYe0SAEBCEAAAr0mgAKz14Rxv2cErFIqD6iEVotZI8g0bfrAAw9077zzTnBca/ytvPLKQaE5duzYUKEUd8WDfmoYaRqb3lGDSRVNjfr44Q9/6E477TQ3ZsyYzK4qo1YJtfel9NH0MSlBNfJTCkCtbTrZZJOFtbvkf6ygtBBb3KtB98orr2TKowkmmMBNOumkwZqm2UnJKnflpqaCq7Gn9Tvlv1WOzU0dX3rppbCWoRS0ZiTTCy+8kEtvkk9K3djITTW8dJTfL774YlD0avSANnuR/1NPPXWYyi35LQxyQ++89dZbGXfdU9jFr0hO2VfYZMRc0z2nnHJK99prr4V4iHfE1jqmzz33XFjPVPYloxhpvbNYBj3DlCegeInjUelU8YKBwHAjoHQcjyC2tK1wFOU/wy18w11ey1dUTp588slZXq4p32eddZZbcMEFsw1PZHfLLbd0m2++eTY1XMvBXHrppWFdScWn4vrVV18N5UW87qnKKtk1o3ShcsU2K7P7KnP0THmeZHrjjTdCOat1CyeaaKJQzln5qLJIfukdGe1ur3WZ9a7KVpWTKrcsjLKjOoHksCU65Ne0006rR5mRfXtHbqmMe/3110P5LUuqC0h2lfl63+yb3LqWoh5TTwKqpyiuZOKy1eLcntVTeqSCAAQgAIGqCVBiV00U94aMgFVC5aFVcKjIVINfDYmf//znmRJNmzjsuuuuYQ0tNTjU8LFGiHwUdynBtthii6Ag3G233YLiTs9uuukmd+2117pvf/vbwZ7iSsbiSvGoEZ4nnnhiaGQ98cQTQdmnhpUUd2p4aBq6psppAxoZcyNc/PdPjZzdd989m+q+zjrruJ122imMUtEUO60PpinuclMNGTX4NFpllVVWcWpsyVhjTLJp5Kk28Hn66af/64MLI0qlkJWS0Mx+++0X1hWza4VH7qjhpREy1113XWiASREsBaL5rzBpfa+ll14689/cEIN99903Y6iNDA499FD39a9/fUDYJeP2229vr4a1RzfYYIMw7f+ee+7JyS9G2267bdYYVANy//33d0sssUT2PiedE1B60U/fhRpY8bfRuWu8AYH+EjDFgKSwfLq/EuF7TEDxI0VhrGBccskl3SKLLJJTMivuVM5JiamyQDMi9K7WxlRZKAWjjirbVT5q8x8zUiSqHDGjOsCRRx4ZFJ+6J3fs99hjj7lf/epXYRMhdV6q009lpDr3VM5997vfdcsvv7x74IEH3I9+9KOsXqGp7D/4wQ9CmaZydqONNnJSnEqZaUadoAqnpUO5Ga/jbHmtnmt96tNPP93dddddoQNSHZYy6qiU0lPlnFhMM800wT29U1SXML851oOA4sniX+WrnddDOqSAAAQgAIGhJoACc6iJ419PCahCjemOgBhKmajdTM1861vfcnvttVemaDNFn55bZVL3NIpBm/doJKRGeZj54x//GDb2UaPGetBlVwo9jfSUsvBZP4rQGiP2npSAahDdfffd7pJLLgnKxsMPPzxrgMie3pHMGt2hBpJGSMpI0XrrrbeGjYfkpxkpEjW6Uo04TXvXhgE/+clPQgPHwiK7UiKqIRQb+aVpebHRaEkZPbMRLdrsaM8993Rq2KVhUoNRfO6///4QJu30qjCpgSX/9Zt33nnd7LPPHhqMclvhV3iOPfbY4J7JKTZqEJqcasBKISvlr/y+77779HpmjJHdkJuSB9M9AYs7uUQ+1D1PXOgPAaVdy6MlgfI0M/G53eM4tAQsn1HZqHzezEwzzZSLK903Zc9aa60VdiM3++pEU4ej4lPKwkceeWRAuSa7Vq7ILY2iNIWgrmWkqNSoz7333jucp/melKAPPfSQU/m/5pprujXWWCOUSVK+yiy33HKZjBr9qXIuLS81g0E/M9pZPVZwiodGdUq5evzxxw+QUe+pzNeoTG02KEXrQQcdFJSlmo2BAtPI1vOoNKo4sjqP0pilM/sW6ik5UkEAAhCAQK8IoMDsFVncHVICVrkZUk9HqGdqXPz+97/PQjfVVFO5HXfcMYyoSCuPsqQGh/irkqnnOmrk43e+853wTBVQq4TKvjUY9N55553ndtlll9wam7Ijoylj1uDStRo4F110UXBTjRWbRia300aP7Gvkp963Z/JXdmM31RBSA0zTqLUDqxo03Rr5q1GOf/vb33JOaRqbGo1q1JlCVbJIMStuUk6qcSYjRe8OO+wQNmeQYlfPNT1fo1i1y7ux1shSbcxgZuedd3aa3p/6bc+bHY2R+GC6JyCeijMMBIYLAaVXyweGi8yjWU5TQFqc3XnnnU7LqMRlmMoJPZddlRtmdK/bOpPKMK2vqc6/ok4wzWrQaEoZyXX++eeHTtF4SRM9Mxl1PhgjOdSJp3Lc/JM7Ct8UU0wRRp3aMjBK45pavsceewSvVEeR/5j6ErC02m16rW8IkQwCEIAABDolQGu1U2LYrw2BuMGF4qX7aBFP/TRqUSMaZFRp1DQybQpg12Id89a5VS511LUaUZr6LeWnjlq/0daYsni74oorwqhO2yBIa2tpRIbuay0tyaBGmZSncseMFH5S1MWNlVges6fRnfJzvfXWc1dffXUYyamRj5rSrVGiGoUiIyXicccdl60RZu9LOaiRG3rfjKaiaZSI7ttv/fXXz5RVGp253XbbZQpEhWm11VZzt912W1jfS1P0ND1f/hlTVdAVJk3l1rkZTRfXPVs/TI1EjXTR6FFxljtSuqpBqPBrOp6mzetcvK666qowfXxpP0XdjEZ2akSMya5peyuuuGJwz+LQ7HKEAARGF4GiPMAUPEV57OiiU6/QSjk366yzZkKp3NSSJBrZr7JPxkZgZpb+exLHszrvVD6pLNAIfjOaZm3lhI4qk+Pnt9xyS5hloGcycnO++eYLHXGajq6OOslyzDHHhGnssqPrVIGp+0pbCotmM2jmgNUV9EwzJKR0NFk0M0SdgTIqu4866qic8lJrSx988MFBXs2iUGeeppZrHVCV3zKqc0iJGXf+hQf8QQACEIAABCBQewIoMGsfRQgIgaEhIMWijKaT2YgFKeCkaIvXfOxEmrihZO/JHzViTjrppKBU1H01YLbaaqvQEPnmN78ZRiJqfa75558/NEa0rpUp8vS+pqdL0drOaNqapsOvsMIKYT0urfn4jW98I0w1U8PIjEZ3arf0WIGoUStq8NjmAbKrxrwaTzaaUs/FRu+p0agRpc8880xwVmFae+213SmnnBJGv8g9KXbV8Pz+978f7k/v1yeTUZg0ulRT4M3ofU0vl4LRjBpcGokpvzQKVY1EGa0zJkWv3pExOcWsSH4Lm56rsah4Koqr4Bh/EIDAqCBgZUAcWMsX7Bg/47x/BNTBpc5FW79ZHXo2Sl/rSqqMtM7BVMo4v1f5oPJMa1ymZYXKt/hnz1V+a8ZArIxc2neUaTmYrbfe2mk6u96bc845w2yEM888M2wulMoRX8ttvaOyKU5rKl9VTklGPde5lXOaFh6PvNT6mForWmt6SpGp+ovCpY47dRpqtoe9Kzaach7PyIjl4RwCEIAABCAAgXoSQIFZz3hBKggMCYFYYaeKvaZUa7SD3VcDwKY1VyWQ/JGSVOtimZlnnnnCOpjaXEfGGtI6qmGz7LLLhk1tJI+MRpaoQaKpac3MDDPMEBoyavRYeNQwkv9q1GgznngEi2Sy9TPlpliYHLEf1viTO3pubmrq/e9+97tsfS75r42QbOdTe09u6T01qjT9Tg02GY0wueCCCzJZdU8KV40mkdJTRo3UQw45xB1xxBGhsap74rOf30jIRnTqnhkLt13raKNy9KwofLFdziEAgdFDgPyg/nGtONJPnWFS1G244YahPDPJNQtAnWaaGSBFotavPuOMM8L0bSnrisoEvavyKTXml96x93TUxnHx6EXbZG7cuHG50ZNyT51piy22mDv66KOzsi71x67ldpoGda37ki9+rvs33HBDGNVp72ujP4VbnXJ6bmWujqo7qONQMyLMqBM07jS0+xwhAAEIQAACEKgvARSY9Y0bJIPAkBNQA8dGX8pzNQRMwValMNdcc03WIJK7ani08kcNEG0AECscNT1M60M2MxqBMcsss2QKRtmzBo0aVZpmPdtss2WvazSJbchjN9PGVHrfnuso5adkMqNdYTV9Xn6aPZ3L6CgFqJSOprRV40yNKZuSZ+5MN910QdlqI200lfzAAw8MimbZ0aY9Gmkq98oYhR1TPQGL0+pdxkUIDA0By5+Gxjd8GSwBK0+klFMnmTaBU1lnRs/V2aWyRBvVbbHFFmHTGs1GiMt3s9/saP7Ez3VPSlIb/a80I6VgUQea3lOHmcq2BRZYIJRVsVtlzuVfUdmm+3/605+yslXlmpS1kkfP9JOxcx0nnnji0HFoZaBGYaab8pWRCTsQgAAEIAABCPSPAJv49I89PkOg7wTihoEq+FJY2tqQEk6jED/44IPK5JQfaszcc889mZsaZagp0DImjx1jpZBGgmranNaglNF6lloPMm64hQf//ZP9VkpRTUmzkY16RcrbeJdVNXKKGvS6Z/etcSR5te6XeJmRnFqTspXRCNJ4h1U1CtXAVENLRu7LbTVAtU7ZZZddFu5ryrvMHHPM4fbzoy8lqxqK1jALD/2fcbRrO8rd1K494wgBCIxOApavKY/WD1M/AlbmmGSaNq3yYd1113X33nuv++1vfxvKSHWoqTxRPKpsuO+++8KIzdtvvz0sq6JyNzZFZYX8komfyS11HFpZpxkAUk7aUiSxm3au9+XWEkssEWYZ2P30KHuWBu2ZyaCjyaEw6TxWPsr/fffdt+1yN5Ld3FSnpeoQuk79Nf85QgACEIAABCBQLwIoMOsVH0gDgb4RUCVejRGtPanKvK611qKmlJvRPf2sIWH3yx6tMRWPdFQDTH6mxhRy1rDQlDltLGBGjY9Y4Wj37agGmr1r9+KjFHhScFpY42c61/2iRrzCbw2oWAkYh0nvq8GoXydGisl0cyL5p40WtNOqNiAy5aXk23LLLYMSM5ajjH+d2i/jJnYgAIHhS0D5iX4yyt8Hm8cPXwLDQ3KVB2n+LeXdJJNMEjbB0xrPKrOl3JOyUsuaWDmkTjqtjbngggu67bffPls/s1nIY3/kr34ql+OyTn6PHTs2J5OVm0pDsRvqgFQHabx2ZjO/7b7eV7osSo9x55/qKpdffrm9Vuqo8KgOIXljOUu9jCUIQAACEIAABPpCAAVmX7DjKQTqR8AaCFp4X6MTNVVZoy+1E7hGEmoxfVX4rZE7mBCYH3FjQY0q/UxhKT9kZNcUhbrW/XjNSz2P3ZGdqk2zsMrv+JlkS2URLzXuOjFSukqJLBbWaNNRPylwjZ/clJ/a1VVMpIiNWXXiJ3YhAAEIQGB4ELAyoFl+r3JIMwv0kzJTnVzaqVub7qjzS79TTz01lOnTTjttqUBbeWRlni1nopdVDsWzNCSX2bPnJquV86U8TSyZu3LbGMTlq+5rSn3sd+LEgEvZjTcFGmCBGxCAAAQgAAEI1I5AZ63r2omPQBCAQNUEFlpoobB5jBSYMtpsR4vfa0MAmU4aCLKvhoeMKf3UwNJoETMaLaK1umIFoBpF+sV+aaREvMmONuJpNUXc3O/mKBlSI5liuWRHYdRI0thoh9iVV1452I3tmx1T2Nq1juJi7sTvaMSLNu9JR5xefPHFYf0xrYEpOWI3dY6BAAQgAIGRQyAuF1TuWBll5Wv8XIrGMWPGhM3itL7yFVdcEUA89thj7t133y0NJS6b5Y8tcSIHNJVcy6cs6zfa0zMrD+0dyaNz2XvmmWfCrI7SHrexqLJSbsqoLvCLX/wiKCTlZ8zBnJFs+klOGdnR2p1Fdu0djhCAAAQgAAEI1IsACsx6xQfSQKDvBLR2pBbD14gNGTV2DjvssLDrt0Y8SDGmBoAaTzqq8m+NKNnXFOjTTjvNSbkmo2fT+Y1ojjzyyLBbqt6XkvS8884Lz6WU0xQ3NYBkrDGho53rHW2QY40V2dN0tLIjSGS/UyO5zf/43SLFoDjMPvvsYQSITfEWBykxZcRKbhknNejMfblnjT3Z1X2zr2u5c/rpp7vf//73unTaVV3T5TTyUorNPffc0y2++OJhmnmw8N8/a6TF93Qu/8zv9BnXEIAABCBQfwJPPfVU2IXbJJ1hhhnc8ssvb5fZUeWAOvvmn3/+TIGp8iWezZBZLnEipag2v9NoR5V1GlWp9Zk33njjAaMZrayUDLKnXcNbGZVL+qVG7mhmQmo0FV47ostoFKjWhF500UXDdVp2yw0rE+2ZlbV6FpfBwQH+IAABCEAAAhCoJQEUmLWMFoSCQP8IqJK/+eabu4suuigscC9JLrzwQrfUUkuFjQLUcJFJK/zW8FCD4uCDD3bPP/98sCf3NHpQjSjZUeNBDS01SNSokdHuqGoAFY0+1HO9I6Xok08+qctg5ptvPidlay+Nhcn8UMOvyOi+RrrMM888Yd0x2bn11lvdww8/nO10LrfETI0l2deIFG3KY5sSSTm8+uqrh4ZmzFYcjzjiiNBYFAeNhv3b3/7mzjzzzCCKFMwnnHBCUGRq2roZa6TZtR3ltmTRzxp09owjBCAAAQjUn4DKwq233joTVBvkLLbYYk2nUcezF1RWqSOslVE5VWRUrmiZmammmspJiSqjWRpSTtou4PaelWMqa66++mp3zTXX2KOmx7TcUllp5abKKz03haM6PU8++eRQj5AfZ599dig/VbfQe+aWnulcG/+d7jsDbSaD6huaYh9vXNhUMB5AAAIQgAAEIFALAv9/HkUtREEICECgDgTUONBown322SeMqJBMmuKtxtKOO+4YRkKa4tHkVQNBowGl9JQiMm4sSVm54YYbZiP/ZFeL/mtdTWtgqCG02267uUcffdScDEfZ1U6qaqT88pe/DG7ogaaL7bDDDh2vMZlzvMWF/JVRg2nqqafObGqUxxtvvJFd24nsqTH07W9/OzQgdf/FF190u+++e1BiKpymLNRRykttyLPNNtsEZa8UvlLQat0yNbxkFA9vv/122LxHCksZKZEVD3vssYeTAteM2Mi91IhT3FDVsgDa+CBu3KXvcA0BCEAAAvUkoLJJP80+0KhLM5rF8Ktf/SpTztl9jeCXgvHKK6+0W0EBGU8D1wMp/SaffPLMjkb5a4fuIqORjmussUb2SOXUrrvu6q699toBG/RolKbqBZop0EwpKoeszNUyKvFoy+eeey7MQrC6guxaWbrIIou4pZdeWreCkQJTnXnvv/9+sKN37CcZ999//zCdXuWtfipXtbY0BgIQgAAEIACB4UOAEZjDJ66QFAJDQkCjHfT7zne+E0Y8agMAKbzUEDnllFPcX/7yF7fMMsu4ueeeO+werh1FpbD805/+5G655Zbc2lozzzyz23fffcNIybgBokbDdtttF6aeaYSh3NeIQu2cutFGGzm9p9GEUmxecskl7qabbspGa+q+dlCVnV4ZNaZM3hlnnDHzRopHhWe99dYL64TKjqbmqTEpZmuvvXaYOi9lotxQw1EK2E033TSMztTIl1dffTU0JhVe2+HdeKcjSi+44IJs2p9GaP7whz8MfsltKXA322yzINvLL7/sDjrooLALbTwKUw1BjZQx8+yzz7oDDzzQrbrqqkE5remAmoY35ZRTmhWOEIAABCBQYwLK/1XmqLxR+axySUo7lQFPP/10KAeU76uzTTuRS7GnckdGG/SpjJ1ooolyIVS5EXfWqUNSnYrLLbdcKCtUlmiEpzrqVF6pI01lsy3rohGh6rxca6213JJLLhnKHSkf77jjjuC/OkFbGStzJYcUs6oLyGgmg8KlTlU902jJFVZYISg51eGnuoCmsGtUpdb1VPl87733htkM48aNC+X4I4884s4///ww40GsZMRP5acpQ8NN/iAAAQhAAAIQqD8BX2nAQGBYEfC9+A1fUW34CmnD79qsoXINr1Bq+MpywyvZGl4ZNqzCU1dhfUW/4RsdDb8wfsMr1gJnsdbPK+4aXgnZ8NPCG35KecM3bnLPfQOnseKKKzZ8QyIXH4obuaujH8XZ8OtkNv4fe/cBL0dVL3D8hAQINQFCF0h49N6RjoqowFMpiigqYiiCgCLKU0GR9kSNGkGkiiAIiIj0IlWKhE5o0nvvCUlIAty3v+P7r5PNrZu7e7f85vPZu7uzM2fOfOfunjn/OedMqRIyw7qkRbqlilZHqcIyw2ds88ADD+wotaaYIV0MS13XO0rjYpaXL3W1zrTd/T+UWjLmfWGf2Mcbb7xxpsNRuvlBR+kGRuV0WZZ8lSpS+XHmmWeW88K2WH699dbrwCC8SoHCjtLdTjtKlcb8XPnZd77znY5SMLO8bdIpVbrK7niXxtPMZrEQ/+ulymI5/yxzzDHHdJTGNsv5IQ0e7BPbjrzEsSP/pQprRynIWs5/pO1z7wVKLZU6SoGCjlJAOn8ncB49enRHKajcUWr9pG3vKV1ygAUoW0uBoI7x48d3lC7M5N+MUsCqo9QyPs8f4Oy5+YIA5WcpyNhRuoFbRykIV/595zXlZ6nlfUepBX5H6cJX+TPKz9JFsA5+s6J84JmJ54svvriD4x1lBWmxDmVF6eJbR+kCZTkH/K9Qfpcu8JWXZz3KF84JKL9Zl/fM5/U222wzQ1lUarXZQToxRZ6OPPLIGcp+ykvSJB+l3hsdpZ4EOb+sy75wjlJqUVrOB9tkWc4PefA68kFeSKM0fEteN7btc+MJcHw51vzflYYtyMe3FHjuePLJJztKF84tWxvvkJkjBRRQoC4CdiEvnc04KaDAfwRKlYjcerBUacjdj2npR8tLWnvQAoKp9OuUbwJAqwdaZkaX8lIlIbeM/P73v59OOOGETu/wyTJMtHxgzEe6vXETmphIi3RpUUI3tphoMUHrCloQ0ookJvLLo3SyG7NmeCavszLR0vOHP/zhTN3raHnKg+3GPvHMDQ7oDk4rTVpNMtGNj+7bdGPjOfJKy8dS8DIdeuihuUVM7Atd1Rk3NLqOL7300rnFJenHuhwLWsiMLN0giYn9pKs9rU9in1meVjP77bdfuSt5HDvyzrHjfeQ/J+QfBRRQQIGGFyhdmEpjxozJrRBLgbqcX8qQaI1IORItDmldedhhh+WhYSiXoqyJnaQMoGUjw5qUAn7ltLjZT5QVrBMT5fd2222Xx69m7OcoQyhPKFcov1mX97SUpAyl1wWt/mMiDR6VEz0Wdtppp3KalHmkGfkgTR6sS3r77LNPGjt2bB6ahrT4jGVp9cmD18xjvxkrlFarn/zkJ3NL0spt+14BBRRQQAEFGlvALuSNfXzMnQJ1F4iKSATKOOn/xCc+kU/8GaOSsbRKrfpy9zQCc3QtY5xFun1tscUWuWJA9zQqF1HRIM1IN17H+1KrjBxk44Y2pRYg+a7nVHyoLJVabeRubVuWxrmiexpdsCMoGDCRDpU5unNzd3KmUaNG5ef4PL+p+ENgMO5aOmLEiBwYJc/Fddg/utzR1fq8887LY1oyNlhU5uhSVznR3Y1g4u67757H/+LGRlSiqExyMyPG+WL8rlJLvdy9nmAk242JICTdwskbeaEyx76FKcsxnzwxttjpp5+e12ceN0tgfuwD6zCeKQHoUmvRRLc+bmbA9jhuUfGNbfusgAIKKNDYAlxgZKKc+9nPfpbLkrPPPjtfwKK7OAE/luH3naAd3aUZDoXyk7KB8p2ygddR9lAOcfGR4N6FF16YHnnkkVzOU9YR1IwLh8VzA26kw1AplN8MeUK5RflNYJHzALbNTQE5P2CcTsomunozcVGSKbYfZRZDqXABlHGyGVeTbvFc+GOinGa/imUhNxZknG3GiI7zCMagJh8sy7kBaVKO0yUeE7YZ28sJ+0cBBRRQQAEFmkJgUKkQ/0+tuSmybCbbXYCTaVoWEEhjHCausNPardSNKLeS4yTcE9Pa/JfwcxE/GbSw4DhQeSAQRkUhPqdywcR7jldUlHrKFRUjKl9UVgj2UWFiLC/WjzQrj23kp3J+bDeee9p2fN7d8nzGdorbIs+8j/xVrk/+qLAx3iUBXypgUQmLbfJMOhjGRDpMpFvcx8r04z3L8Ih8RDrxjCfpR95ZL/alctuxjs89C3BM+S5cfvnl+Y62VJoJTNNSmEB1BAx6TsklFBhYAX4T+P9l7GGCTnfeeWce85ALVlwYipZ5A5tLt96dAMeQ3yPGsCSIyG8QFwK7m4plQSzHvK7KEj6jrKE8oexg4jX/O5RzlHdcqOOmQPzPRNlULN9iOzzzOVOUTflNL/6wXuSzuC49Nxj/k3xgQAtQbmgXy0bSka+u9jOW83lgBDhetCYuDWmRSkMCpdLwPDnoff311+eL2fxfF4/7wOTSrSqggAIK1FvAFpj1Fnd7CjSxQAS82AWCljyKU/Fz5vO+q0pLcb14zbIELHkUKzW87upEtav5USmJ59hGT8/dLd/ZZ5XzKt+TP1p89NTSsXK94vviPhbnsy/xnmWKy1XuZ+VxiPWKaVSu43sFFFBAgeYR4He9s7K5uz0olgWxXGfz4rNiWVNcjoASge7oBRHL89xd2dTdZ8U0Kl+zXnH78TkXsWlxyaM4dbZstdsuputrBRRQQAEFFKifgAHM+lm7JQUU6INAsWJRfN2HJOqyaH/lrb/S6Wqnu0u/u8+6Ss/5CiiggALtJ1AsL4qvu5LozTJdrdvT/FlJe1bW7Slffq6AAgoooIACtRGYefTs2mzHVBVQQAEFFFBAAQUUUEABBRRQQAEFFFBAgT4LGMDsM5krKKCAAgoooIACCiiggAIKKKCAAgoooEC9BAxg1kva7SiggAIKKKCAAgoooIACCiiggAIKKKBAnwUMYPaZzBUUUEABBRRQQAEFFFBAAQUUUEABBRRQoF4CBjDrJe12FFBAAQUUUEABBRRQQAEFFFBAAQUUUKDPAgYw+0zmCgoooIACCiiggAIKKKCAAgoooIACCihQLwEDmPWSdjsKKKCAAgoooIACCiiggAIKKKCAAgoo0GcBA5h9JnMFBRRQQAEFFFBAAQUUUEABBRRQQAEFFKiXgAHMekm7HQUUUEABBRRQQAEFFFBAAQUUUEABBRTos4ABzD6TuYICCiiggAIKKKCAAgoooIACCiiggAIK1EvAAGa9pN2OAgoooIACCiiggAIKKKCAAgoooIACCvRZwABmn8lcQQEFFFBAAQUUUEABBRRQQAEFFFBAAQXqJWAAs17SbkcBBRRQQAEFFFBAAQUUUEABBRRQQAEF+ixgALPPZK6ggAIKKKCAAgoooIACCiiggAIKKKCAAvUSMIBZL2m3o4ACCiiggAIKKKCAAgoooIACCiiggAJ9FjCA2WcyV1BAAQUUUEABBRRQQAEFFKiVwKBBg2qVtOkqoIACCjSpgAHMJj1wZlsBBRRQQAEFFKi1wGyzeapYa2PTV0CBmQU6OjpmmPn+++/P8N43CiiggALtJzCk/XbZPW5VgVdeeSWdd955afr06cmrtq16lN0vBRpLgArVSiutlKxYNdZxMTf9IzBt2rR04oknpmHDhqU555wzVQYU+mcrpqKAAgrMKMBvDb8/L730Unr11Vfzh57bz2jkOwUUUKAdBQxgtuNRb9F9fv7559ORRx6Z3nrrrRbdQ3dLAQUaUWD06NFp4403bsSsmScFZkmAC4JjxozJaRA8MIA5S5yurIACsyBgAHMW8FxVAQUUaBEB+wW1yIF0N/4tYOXK/wQFFFBAAQX6X8Dytf9NTVEBBXovYACz91YuqYACCrSqgC0wW/XItuF+rbDCCumSSy7Je+5JThv+A7jLCgyAAC3U5p9//nT//fcPwNbdpAK1FRg6dGg69dRT00ILLZTmnnvu2m7M1BVQQIH/F+CCyZQpU9Jjjz2WfvGLX6QnnnhCGwUUUEABBZIBTP8JWkZgnnnmSaNGjcrjdBnAbJnD6o4o0NACjNE1ceLE9OCDDzZ0Ps2cAtUIDB48OK2zzjppiSWWSPPOO281SbiOAgoo0GcLkywnAABAAElEQVSBDz74IE2aNClfOOH83kkBBRRQQAEE7ELu/4ECCiiggAIKKKBApwJcEPSiYKc0zlRAAQUUUEABBRSoo4ABzDpiuykFFFBAAQUUUKCZBGgJZQCzmY6YeVVAAQUUUEABBVpTwABmax5X90oBBRRQQAEFFFBAAQUUUEABBRRQQIGWEDCA2RKH0Z1QQAEFFFBAAQUUUEABBRRQQAEFFFCgNQUMYLbmcXWvFFBAAQUUUEABBRRQQAEFFFBAAQUUaAkBA5gtcRjdCQUUUEABBRRQQAEFFFBAAQUUUEABBVpTwABmax5X90oBBRRQQAEFFFBAAQUUUEABBRRQQIGWEDCA2RKH0Z1QQAEFFFBAAQUUUEABBRRQQAEFFFCgNQUMYLbmcXWvFFBAAQUUUEABBRRQQAEFFFBAAQUUaAkBA5gtcRjdCQUUUEABBRRQQAEFFFBAAQUUUEABBVpTwABmax5X90oBBRRQQAEFFFBAAQUUUEABBRRQQIGWEDCA2RKH0Z1QQAEFFFBAAQUUUEABBRRQQAEFFFCgNQUMYLbmcXWvFFBAAQUUUEABBRRQQAEFFFBAAQUUaAkBA5gtcRjdCQUUUEABBRRQQAEFFFBAAQUUUEABBVpTwABmax5X90oBBRRQQAEFFFBAAQUUUEABBRRQQIGWEDCA2RKH0Z1QQAEFFFBAAQUUUEABBRRQQAEFFFCgNQUMYLbmcXWvFFBAAQUUUEABBRRQQAEFFFBAAQUUaAkBA5gtcRjdCQUUUEABBRRQQAEFFFBAAQUUUEABBVpTwABmax5X90oBBRRQoMEEOjo6Eg8nBRRQQAEFFFBAAQUUUECBvgkYwOybl0sroIACCijQK4FBgwbNsNwHH3yQ30+cODHdcccdafr06eWAZnw2wwq+UaAbgSlTpqS77ror8eykgAIKKKCAAgoooECrCxjAbPUj7P4poIACCgyoQLS8nG222dKkSZPS2LFj01e+8pV00UUXpffeey+9//77OX/xPKCZdeNNIzBhwoT07W9/O+21114zBcRt6ds0h9GMKqCAAgoooIACCvRSwABmL6FcTAEFFFBAgb4IROAyApPvvPNOOvLII9OPf/zj9NBDD6U999wznX322TlJgpu02DTw1Bdhl33xxRfTH//4x7TJJpukL3/5y+nKK69MkydPLgfFbdnr/4gCCiiggAIKKKBAqwgYwGyVI+l+KKCAAgo0nABBySFDhuSgEi0vjzvuuBRBpTfeeCMdcsghuSXmtGnTcgCz4XbADDWFAP8/5557btp9993T3nvvne6+++7cupfMGxRvikNoJhVQQAEFFFBAAQV6EDCA2QOQHyuggAIKKDArAox5efjhh+eWl3QhL07PPvtsGj16dG6JSWCzctzM4rK+bm8B/j96CkYWW2Tuuuuu6aqrrsrDFrS3nHuvgAIKKKCAAgoo0AoCBjBb4Si6DwoooIACDSlAwPI3v/lN+u1vf1tueVmZ0WJLzOhuXrmM7xUoBrd7CmRygyhaZO62225p3333zWNk8r9VuR7vK+cRKI1WwqoroIACCiiggAIKKNAoAgYwG+VImA8FFFBAgZYSYMxLWl7+6Ec/6rEV3HPPPZdbYp5xxhnlrr8theHOzLIAAcwIYvY2wPjyyy8n/qc23njj9KUvfSmPkVnZCrgygDl48ODEmKxOCiiggAIKKKCAAgo0ksCQRsqMeVFAAQUUUKAVBLiRysknn9xty8vK/aQl5ve///102223pUUWWcQgUiWQ72cQIBD5+uuvzzCvqzfRIvO6665Ln/zkJ9M+++yT1l133USwMoKirEvgsjKg2VWazldAAQUUUEABBRRQoJ4CBjDrqe22FFBAAQVaXoDg5dFHH51+//vf9zkYRIu5E044oeWN3MGBEXjllVdyi8yzzjor7bjjjrmL+WabbZbmmWeenKHetuwcmNy7VQUUUEABBRRQQIF2FjCA2c5H331XQAEFFOh3AVq50TLOlmz9TmuC/STAeJh//vOf0/XXX58+9alPpYMOOiitssoq/ZS6ySiggAIKKKCAAgoo0P8CDnLU/6amqIACCijQxgJ0/x4+fHgbC7jrzSAw55xzpmWXXTZtueWWaZllliln2fEvyxS+UEABBRRQQAEFFGggAVtgNtDBMCsKKKCAAs0vsM4666Q11lgjHXHEEYlxLZ0UaDSB5ZdfPh144IF5PMyRI0fm7EX38XhutDybHwUUUEABBRRQQIH2FjCA2d7H371XQAEFFOhnAW6M8vnPfz4RGDrggAPSM8880+strLfeeukHP/hBWmqppXq9jgu2pwDB8T322KPX/19Dhw5Na621Vtpzzz3TTjvtlOaee+4ZbuDTnorutQIKKKCAAgoooECzCBjAbJYjZT4VUEABBZpGgG6422yzTXrnnXdyELM3LTFptXnsscem9ddf3/Ezm+ZI1y+j/E9F60hec8MnuoH3ZlphhRXSt771rbT11lvnwDrrF+8+3ps0XEYBBRRQQAEFFFBAgYEUMIA5kPpuWwEFFFCgZQUIEO2yyy55PMx9992325ZyG220UTr11FPTSiut1LIe7tisC9C6N6aeApC0uFx77bVzi0vuOD7vvPPGqj4roIACCiiggAIKKNB0AgYwm+6QmWEFFFBAgWYRoKUbd3k++uij0/7779/pmJi0vPzVr36VVl555WbZLfPZAALdBTAJhDN8wSc+8Yk0atSoGXJLK87u1p1hYd8ooIACCiiggAIKKNAgAgYwG+RAmA0FFFBAgdYUoNXcF77whTTffPOl/fbbb4aWmBtvvHE65ZRTbHnZmoe+rnsVLS4ZF5MWl/y/dTYRVHdSQAEFFFBAAQUUUKDZBAxgNtsRM78KKKCAAk0nQBBz2223TRMnTiy3xFxzzTVtedl0R7IxM7zKKqukb37zm3ncVW4AZZCyMY+TuVJAAQUUUEABBRSoXsAAZvV2rqmAAgoooECvBDo6OnJQiZaYjEV4xhlnpCOOOGKGbuPvv/9+Xsbuvb0ibfuFCIp/+MMfTgcffHDaYYcdcovL4hiZbQ8kgAIKKKCAAgoooEBLCRjAbKnD6c4ooIACCjSqQAQxuTs5XccXXnjhGbJq8GkGDt/0IDBs2LDcgneBBRbIS9rqsgcwP1ZAAQUUUEABBRRoagEHQmrqw2fmFVBAAQWaQYBWlRFgGjJkyEzBS26s4qRAXwRmn332tNBCC5Vb7dKC10kBBRRQQAEFFFBAgVYVsAVmqx5Z90sBBRRQoOEE7B7ecIekJTLE/5UteFviULoTCiiggAIKKKCAAl0I2AKzCxhnK6CAAgooUC+BaJ1Zr+25HQUUUEABBRRQQAEFFFCgmQQMYDbT0TKvCiiggAIKKKCAAgoooIACCiiggAIKtJmAAcw2O+DurgIKKKCAAgoooIACCiiggAIKKKCAAs0kYACzmY6WeVVAAQUUUEABBRRQQAEFFFBAAQUUUKDNBAxgttkBd3cVUEABBRRQQAEFFFBAAQUUUEABBRRoJgEDmM10tMyrAgoooIACCiiggAIKKKCAAgoooIACbSZgALPNDri7q4ACCiiggAIKKKCAAgoooIACCiigQDMJGMBspqNlXhVQQAEFFFBAAQUUUEABBRRQQAEFFGgzAQOYbXbA3V0FFFBAAQUUUEABBRRQQAEFFFBAAQWaScAAZjMdLfOqgAIKKKCAAgoooIACCiiggAIKKKBAmwkYwGyzA+7uKqCAAgoooIACCiiggAIKKKCAAgoo0EwCBjCb6WiZVwUUUEABBRRQQAEFFFBAAQUUUEABBdpMwABmmx1wd1cBBRRQQAEFFFBAAQUUUEABBRRQQIFmEjCA2UxHy7wqoIACCiiggAIKKKCAAgoooIACCijQZgIGMNvsgLu7CiiggAIKKKCAAgoooIACCiiggAIKNJOAAcxmOlrmVQEFFFBAAQUUUEABBRRQQAEFFFBAgTYTMIDZZgfc3VVAAQUUUEABBXoj8P7776fZZvNUsTdWLqOAAgoooIACCihQW4EhtU3e1BWor8CgQYMSFS6enRRQQIFaC3R0dNR6E6avQF0F3nvvvVyOstFp06als88+Ow0fPjzNMcccdc2HG1NAgfYVoGydb7750qhRo9oXwT1XQAEFFJhJwADmTCTOaEaBp556Ko0ZMyYNHTrU1iLNeADNswJNKkAliyDP448/nj744IMm3QuzrcB/BKZPn554ML3zzjvpqKOO8qLgf3h8pYACdRJYbbXV0tixY+u0NTejgAIKKNAMAgYwm+EomcceBZ577rl0/PHHJ1qOOCmggAL1Fhg8eHDi4aRAqwkQoHdSQAEF6i0wderUem/S7SmggAIKNLiAAcwGP0Bmr3cCs88+exoxYoQtoHrH5VIKKNCPArTC5OLJpEmT+jFVk1KgfgL8DzP8ChPl6ZAh/z49nHfeedNPf/rTtNBCC6U555yzfhlySwoo0NYC/CbNNddcbW3gziuggAIKzCxgAHNmE+c0ocBKK62Udt999zRs2LBc+XIMzCY8iGZZgSYUIHA5efLkdNttt6Vf/vKXTbgHZlmBlLuI04KYruMELyOASQBhq622SksttVSae+65pVJAAQXqIsCQLFwUHD9+fF2250YUUEABBZpDwABmcxwnc9mDAIHLjTbaKC2yyCK5lYgBzB7A/FgBBfpFgO61EydOzGMF+rvTL6QmooACCiiggAIKKKCAAgrMJDDbTHOcoYACCiiggAIKKKCAAgoooIACCiiggAIKNIiAAcwGORBmo38EZpvNf+n+kTQVBRToiwDjdfFwUkABBRRQQAEFFFBAAQUU6H8Boz39b2qKAyjAmDlOCiiggAIKKKCAAgoooIACCiiggAKtI2AAs3WOpXuigAIKKDBAAox/6RiYA4TvZhVQQAEFFFBAAQUUUKDlBQxgtvwhdgcVUEABBRRQQAEFFFBAAQUUUEABBRRoXgEDmM177My5AgoooIACCiiggAIKKKCAAgoooIACLS9gALPlD7E7qIACCiiggAIKKKCAAgoooIACCiigQPMKGMBs3mNnzhVQQAEFFFBAAQUUUEABBRRQQAEFFGh5AQOYLX+I3UEFFFBAAQUUUEABBRRQQAEFFFBAAQWaV8AAZvMeO3OugAIKKKCAAgoooIACCiiggAIKKKBAywsYwGz5Q+wOKqCAAgoooIACCiiggAIKKKCAAgoo0LwCBjCb99iZcwUUUEABBRRQQAEFFFBAAQUUUEABBVpewABmyx9id1ABBRRQQAEFFFBAAQUUUEABBRRQQIHmFTCA2bzHzpwr0BYCHR0diUd3U2+W6W59P1NAAQUUUEABBRRQQAEFFFBAgcYVMIDZuMfGnCmgQEmgN8HJDz74IPFwUkABBRRQQIF/C1gu+p+ggAIKKKCAAq0kMKSVdsZ9UUCB1hKYNm1a+sMf/pDuvPPONNdcc6Wvf/3reQdPPfXU9O6776Z11103ffWrX02DBw9OgwYNaq2dd28UUEABBRTohQAX+ghWzjbbbLksfP/999OECRPS1KlT87xhw4al6dOn53mUl/PPP38uU3uRtIsooIACCiiggAINI2AAs2EOhRlRQIGiAJWtc845J+27777pvffeS3vvvXdacskl8yJUyk488cQ0ZMiQNOecc6ZddtklzT777MXVfa2AAgoooEBbCBDA5CIeDwKZ9913X/rud7+bnnvuubT66qunY489No0bNy4dfvjhadKkSWn77bdPhxxySA5ievGvLf5F3EkFFFBAAQVaQsAu5C1xGN0JBVpLgArYFVdckQ499NBcGdt0003TT37yk7TAAgvkx2GHHZY222yz/BnLXH755TnI2VoK7o0CCiiggAK9E4jhVl566aX0ve99L1199dU5WLnbbrulESNGpI9+9KNpww03TI899lj67W9/m04++eRELwcnBRRQQAEFFFCgWQQMYDbLkTKfCrSRwNtvv52+/e1vp2eeeSatvPLKubK1yCKL5IAlwc2FF144HXfccWmVVVbJyxx44IFp4sSJbSTkriqggAIKKPBvAbqO0zX8zTffTAcffHC69tprczfxo446Km2zzTb5s3nnnTdfCPzsZz+bA5tcFLzwwgslVEABBRRQQAEFmkbAAGbTHCoz2kgC0dKhnnmKbTK2Fa+ZKp97yk8sz3LFdIrrxfzYXvGzrl6zLOsRXKyciunEa567mkiDruOPP/547g5H65FVV101L04FjYoaD+bxGd3fWJZ1Ott+V9txvgIKKKBA/QUoK5i6Kwfqn6tZ32KxfON1lKXFlDubV/x8Vl9fd9116S9/+Uu2/fKXv5x22GGHGfIxfPjw9OMf/ziNHDkyBzuPOeaY9MYbb7TcsZhVR9dXQAEFFFBAgcYUMIDZmMfFXDWoAAEyKibx3F02Y7nuluGz3i4XwbnieFUxL54r06p8H8ux3a5ufMN8psp188wu/pAu+SKwWDlFOoy7NWXKlNxlrZiPyuWfeuqp3LWN+csuu2zaa6+9cl5judh/8rnnnnvmZfiM7nCs66SAAgoo0LgC3IDt4osvzuMY0wKQ8Y6beYryjGceBCnPPffcxM3mLrroojR58uTy7l1//fXppJNOyp+/9tpr5fn98YJeCL/61a/yDe6WWWaZXHbOM888M5T1lJ+rrbZa2mOPPfImH3zwwfSnP/3Ji3/9cQBMQwEFFFBAAQVqLjBztKHmm3QDCjS2AAG34qOY2wieEahjmc6mqMBES4uo3HS2bMwjXZbnwRSvO9tGLBt5JH1ex3Yij8W0uQkOj5g6Szc+i3yzTAQz47PKZ9JkebYZ+alchvm08GD8rY985COJFh/Mi30tLs8+XHPNNemBBx7I2/7GN76R5ptvvuIiM7zms3322Scvyzp0mwuHGRb0jQIKKKBAQwjQzZlA2/77759+8Ytf5DtlN0TGqsxElLmcF8SFQbpuf/Ob30xjx47Nd/6OpM8444y033775ZvpcIOd/pooUxkL+t57781Jfu5zn8tDrFSmH2X6TjvtlD8nmHz22Wcnxs10UkABBRRQQAEFGl3AAGajHyHzNyACVAaYeC4GxOI9z1ERqMxgfFas1FQuU3zPcjxIL9KM15EGyzMvlo0AKnfh5nU8s20eMfGa/LMuy0T6xX2KZeO5uJ2Y19VzpBkVt0g3thvbJlh522235ceTTz6Zk4u8FNNmObrAcWOBkaUubgQ9I83icsXXBEVZlnVo3dJZYLS4vK8VUEABBQZWgItftLwsXlgb2BxVv/Uop+OZlNi3zvaP8qmz+dVv/d9r0vryb3/7W3rnnXcS40V//etfz+V9V+XnUkstlb74xS/m84Jbb721HPic1Xy4vgIKKKCAAgooUEsBA5i11DXtphSgEkJALiojBMamTp2aKx0RmKNLGPO6mugqTZdpKiq9CahRyWA50qQiEuuyPR6kx2fkhfeRx8hbzCffPGI9lot0WZ/5TJXBQ+aTV7ZLBYjXsf9d7SPzqXxiQZ55jvT5LNZnu8X0ivkh38WJ9zfffHOetfzyyye6wUU6xeWKr1lmhRVWyLNuvPHGbFT83NcKKKCAAo0hwO9/sZxojFwNTC5w6C8LuqPff//9eUc+/OEP5yAmb6L8ZDvY82Di4uMGG2yQFlhggXyR0It/mcU/CiiggAIKKNDgAkMaPH9mT4EBFXj++efTCSeckF5//fVEpeC///u/0/nnn5/+/ve/p+222y599atfLeePisG4ceNyAI7uzC+88EJaeumlE4G4j3/842mNNdbIlYbyCv//gooF27niiivS3XffnZ544ok099xz5+5d3C10zTXXzIPuT5gwIa244op5XKu55porr/3zn/88Pfvss2nUqFFp3333TdxllCkqRQQYzzrrrJwvxsL60Y9+lLtkE+SMiTt+X3bZZWn8+PHpX//6Vw42EhBcffXV07bbbluuCMXyPBOQJK+sxzpUnmj1wdha3DSAfSZIyvYvuOCCvG+RJ1pictdwKlaMcfm9732vnPQjjzyS7yrOjI033jgtuOCC5c+6esEyG220Ud4Gdy0njbXXXrurxZ2vgAIKKDBAApQLURYUs8BFvJdffjnRrXrOOedMSyyxRP79L16QK5ZbsS4XvSg/X3zxxVxuckGLG9VQHtMtmjJo6NChabHFFotV8rJcWCMvSy65ZJ7PtkmHbS+++OJpxIgR5eW7esE2WIeynvXYdm/KrEivMwc+w4IylXQpa8njoosuOtOFx0iHZ84bKIvZJ8rOGHolApg881lMWK633np5X1999dXc84HtFpeJZX1WQAEFFFBAAQUaRcAAZqMcCfPRkAKM3UgA8Omnn86VobvuuisPzE9rQwJ8TFRiaLn4+9//Pv3yl7/MFZqoCPAZE4P577333nlMrDnmmKNcgWO5e+65J4+JRdpUqmIi8PfnP/85ffvb306nnXZartDQXXr06NHlVhUEUwkkElyNQflZPyp6bJ8u2X/84x/TQgstlA466KA0//zz501QeaLFxhFHHJHHzqLlZVQWL7300kSQlLuZcsfStdZaK80+++x5PfJ85plnpp/85Cc5eEo6rMe2qPxwN3AcPvaxj+WK2C233JJOP/30vC5/Hn744fzgNYHHYgDzoYceYnZOZ9111y2nmWd284dlIw/clMAAZjdYfqSAAgoMoECUT2SB8uOxxx5Lv/vd7/IQI2+99Va+0EfLQG7g9vnPfz5fmItAXKxDWfmPf/wj/frXv87lEBfiKFsJfHJzt8033zyXuVzg23DDDdMpp5xS3uPvf//76c4770wLL7xwvpHQcccdl9OKbVNW7rbbbnnbw4YNy2VLcfsEFblY+Zvf/CYHDdk2LRq5iMd6XMTrzYRDMV3KUMpAxs3kfIB0mUceuHj5rW99K1HWsZ+V0x133JGDnewT5XVvApEEekmPi5cEjp8q3QSPi49sk3wVj1Pl9nyvgAIKKKCAAgoMhIABzIFQd5tNKXD11VfnQCUn/bS0oEUEEy08CNj97//+b+6+HC0uacFB4POmm25Kjz76aA7UEQTkxjRRMSB4ucsuu+TPSYvAGy01aUlJZYKWngcccEA54MkyszJRKYkKEy1HGAOLICYtVLbeeutc8SH9++67L11fGk+SFpa07CBQutJKK+V80ILykEMOya1DaEFJq1QqmwQmL7nkkrwueeZmPFQEN9tss3KAl7RJh7EtMaDlaHGiFQ0TeaTVSW8qYSzPsqRHxcubESDipIACCjSmQLHlIYGz7bffPpd3ETTjd5yJ8pHyZsyYMbl1ZZRdDFlC4JIeCFx4Y+L3n88ff/zxRDBv5513zkHKV155ZaZeBIzDHOXejjvumMss1udBeU5A9fbbb883hePCJD0iYtvc9IYLkj/4wQ9muDkPAUzKSsaTpLwkj32ZCMhywZCLjFGG0WuCC4acC3BzniuvvDIdeuihubcFZTafkS8e5JmJC5QjS2NC92ZiPXp4MLF9jkX0nujN+i6jgAIKKKCAAgrUW8AAZr3F3V7TCtDq8pOf/GT6zne+k1t50NqCiS7Lxx9/fA5e0hKSu6rS4oPgG5UdgoF0Nad7F8ttsskmOVBJRYkWHFS4qDh94QtfyK0aCcbRwoJu67Sc/OlPf5pbX/YHHBVHHlRWTjzxxBx0JJ9UmuiCzj5RqWHbtFjhTqrkmxYhv/3tb/M+UbGjyxkTgcxdd901z6eLO3k/9thjc1dAWpB86lOfyq1Rtthii9yKlG3TvY2AL13uKie6zTGRB1qS9HYqLht56+26LqeAAgooUB+BCE7G1riQRtCN1paf/vSnc1lCrwHKH8ohekAwn+FMmChDrrrqqnLwkuDil7/85Vw2E9QjgHjSSSfl9ShjK6coA5lP+Uz5TRlGwDPWZ9gY8sUFOYKKpM9EwJBWn0cffXQOXrI8AVDyx4VNWk/+7Gc/S1zspAzry0RPCoZ4IXhJN/Tvfve7uawkDcpSykxakxK0pTXmNttsM8M2ouykXKXFJvvZmzwUL8Ryd3iOT28vHPZl/1xWAQUUUEABBRToDwEDmP2haBptIcAYWgTylltuuRxwjJ2mezRBMypSVEAIUDJRgaAywThTtJqgWxvBQCpAdPFiHQKULEdQ78gjj8wtEqlARABvv/32y5U4Wnf210QljLEiaSVCVzi6pdM1jdaSMdF6lEAtrTBp9cH4nKxDi0kqN1ExovLHGGRU5KjAkQ4tSAnIjiy1AmG5WJ7XUXmM9WN78UyXfSY+780YZLEey7JNpkgjPvNZAQUUUKAxBIrlQeSI8pGhUiJwxpjRjKdMUJPhWc4444xyAJNA3eGHH55bXtLynwtmBB9pAcnERUaCe/RsoEVk5UQZFBPrUMaSXowrvdVWW+XymJ4FXLT861//mj7zmc/kXgYEPAleMjYlrSNZb//99y+XcQybQnnKHcBpBdqXifKf/Ea39gjmkgbd4bk4+qUvfSkvc8wxx+TzDPY/prhwxzkHAdCuythYPp6LAUzKzt6uF+v7rIACCiiggAIK1FPAAGY9td1WUwsQvKN7VfEEnxYejLnIxHy6q1HhIUhIRYmgGs9PlbqAUUGiMkaLTObT5ToqU7RQ5IY/TFTiYj6vqZzRqqOy5UpeuJs/kUZxEfJImnRvo7sYE4P901U9KoDF5QnKMlGRYx/oMk5FipaWdMOjVSZd8ahs0QWdyheVrAgmFtOK1+SraBjzeY6xvViGO6/H++Iyxdexjywbrztr2Vlcx9cKKKCAAo0hQOtLeh9E8JJcUX4QNPzhD3+YL5xR9vAbTxka4zWyHMFKxpusLLu4QEgQkXGaucBWnEg7yh/KPtaP4GUsx7iQPG688cYcrKQlKMFCAnw333xzXoyhUWiZWcw3rwm80qOBfertRO8FLmwysd0tt9wyX1wstiBl6BW2SZCTXhCU4cUAZnRZZ19ivOrebJ/WmkycXxCg7a7s7k16LqOAAgoooIACCtRSwABmLXVNu6UEGPcygmRRAWLQ/xiviuDkbqUB/HuaYqyqYuCTSk+xIhTpM4+KCxWSvgQwySdB1Mop5hO8jArPRRddlHh0NxHApPsaExUsur5zcx/G5aKbHQ8qTtyUh+54tF6hFUhXlaHYv9gm+eIR3fKZT4uSqFzFcpXP7CPbYFnWZyp2J69c3vcKKKCAAgMvEL/XI0st9ePGcsVcEVz8r//6rxzApKziN56LfLT6pzxiosVjZfCR+ZSbBPsI8HF38ZiivIj3XOziomTlxHzKXQKYbDfG2XzggQfyGJmUX5R1lWVN7BOBVcpsejj0ZuJcIAKtdF2nNWpn5TcXC9k2Q8BwATQuerKNCGZyHkIgsjOXzvISPRYIAjP2NhPbZjuV5XRn6ztPAQUUUEABBRSop4ABzHpqu62mFuAEv/KEnq7T0UqQQBoVrliG951VQliGqVhpo4IWlZ9Yn/esT2UkPusKkOUqA5yx/cr5pB8tK0mPruPF7uPFbUQaLE9AMiYqaCussEJuNfK3v/0tjzvGPlx77bX5pgvcuIjWmfgwkf/KfYj9KwZuo0LIZ3QVLHrGtovPsS7LRvpd7UtxPV8roIACCgy8AGUL5UxnE920mfhtpxzjmYBkBAaXWmqpzlbLAUzKkp5a47Ndtk/aUZaQIPMjAEjZGmULXcfjcy628RnlaZTZ+cPSnygvi8HT+KyzZ25eR1pMBCkJlHY1xfbo7RH5Yl6UzwRCuXs5ZW9lvoppsi7bjDyy/5yTxD4Vl/W1AgoooIACCijQKAIGMBvlSJiPphCorBBQUaFb9bhx43JrQVpsULGhcsCjWCmq3MG4+yfLcadVbvRDqw3WYV5Uqvis2JWsmE6MX0XwkCBeMQBIGrQcoQVJcWI+43myLpUX7kROF3UqPGwzKkgsxyPex75HRYuxQAlijh49OnetY6zMk08+OXEDhj/96U+JbvFf+cpXypsmLaZIJ9KOecyPFiVsg1Yp66+/freGOcHSH26eEPka2cs7sMa6PiuggAIKNLZAlB8ELQlM0qWcG+AVJ8oAgo8sS88ILv4Vp84CpSzbXTldXD8uPrIdxoRm4nXl+rSCpDzu7US5F3ljiBbKTqZiGRnbCQe6yRc/j3MB9pltx/uu8hDlegRlOffg4h/zYxtRVneVhvMVUEABBRRQQIF6CxjArLe422spASodBNnOOeecPL7lBRdckAN6ceJPpYPWInweY18yRiTBSwKf3HyGygZjUHL31Ki4gESliOAjd2MlsNjZRDc3brBDl/A777wzBxSjIkQlhAoe2y1O5I3WGgQfCWCybbqtEfgrBk+poHGDIipjiy++eL5LOesyj3VoeUo3ctKhqzdjflHB23TTTXMXN7qXRxCW7ZMvPAjGMr9y3DKWoVLGfJa55ZZbynd/rawgsmxM+LIsabMuaTgpoIACCrSOQATVKKe42EYAkxb/u+++ey6L+P2nfGI5yhfu6k1LxOIU5WikxWdRVvO6OJ/3lRMX7aJ8In3K7hj2JLZLOcd4lrGtyjQ6e083dtKlazjjSzN2J+Vr5Ic8UiZS1jGPbUTr0sg/5xNM7PNTpTFDV1111c42NcM80rrnnnvyPNL70Ic+lF/HOcQMC/tGAQUUUEABBRRoAIHO++00QMbMggLNIsBA/htuuGEew4q7kjI+JAHFGDfypJNOyjcUGDNmTKJrdYwzRetNAoB0VWN8yd1K42eee+65eYwvAor//Oc/811YuSlQVxMBT7p90QLzsMMOy3cWJ2hJ8JHK3YEHHlgeo5M0qOzwICDJ3VPJC3dG32efffJ4X1TISItg6De+8Y18l9Vf/vKXuSULlUYqVVTMLr744tzKkruu01KSfSXPBGGpZFEZYxsRtOR5iSWWyLtBFzluhMBNgOg6FxOVKVqAEBBmIgCKS1TQYrnKZ6xZlol1+3L38sq0fK+AAgooUFsBftP7GiTjIhbrMQYzF82YaPV/wgkn5PKJz6O8IYBIOUxAsDixTKTDfNKrLF8iaFhcL15z4e8Tn/hEfnvNNdek448/PgdSmRGBRW6wQ7nYl4kyfNttt82r3HDDDbkcp5wt5u/SSy/NFzjZ/3333Tf3rijmdZNNNsmB3TfffDP36Oiq10YxX5T3cbd0Lj4Wx/kuLudrBRRQQAEFFFCgUQRsgdkoR8J8NK0ArQ+/973vpf322y8H8Q455JB01lln5bt7Ewx89NFHc9Bv+PDhic9GllqQUPGgcrLjjjsmKkLcROfpp59Oe++9d+5GTbCQMa4IRNK9jJaYceOCIhQBTO4ATpdtApcEHeliR0WOrmFUZmhZUVmR43MqTDvttFM688wzc4tKxt2iAkNXMoKR3O2U5T71qU/l7u1slzxzgx4CrVQS//KXv+QWnnRdp0UMNxZgIngZFTLWIVhL17hYfo899sitNtdYY430hz/8Ia/DHyqXVMQI3rI/3PBoZA9dwvGNGyOxLmk4KaCAAgo0pgDlHy0mq5koR7kwt1vpgh/l65FHHpkv+lEOUm5ykZAyjfK0OEWwj/KoODE/ymM+q/y8uCxl6Te/+c3cupPylYt7XECjTKQMpFXmsccem8su0oltFtPo6vUBBxyQg4mUuwcffHBOd+utt84XOBlGhlaZlHPc3IgbCFGmFvNKmUsLUS4QEkRl+BisYiouG/niwl/cxIeeE1F2RvCU8t9JAQUUUEABBRRoJAHPThrpaJiXhhLobQWLgN/222+fLr/88vTZz342t4i86667Ei0peGb6zGc+k4N3BAOpFESliUoHwcfvfve7+W6oVDro8k0FhMrZLrvskoObcTODSiDuPEolikoVgUvuik6lhEoMrSsZ25I8dTbR8pPK1u9+97vcpZ116YpNvqlEjRo1KueLLux0a4uJlpQEHb/2ta/lcbZogck6VLJofbnVVlvlbuYrrrhirmBRcaKyRauUHXbYIfsQmKWyxx1lY2I5KlAYMUYnwdfjjjsuPu70mWNE/lmWdVg3KmGdruBMBRRQQIGmFuDiGL0dCBrSipCWkNxYbsstt8wXCQleMrZzjANJedtVeR5lcW9BuPM5PScoEymjTz311FzGcvGMcvipUvdtyvsYz5lyrRg87Go7XOA75phjcutSeh5wUZThUChH6eVB8JKWmpSjjJdNmhGIJE32lZ4gzKccp2yNz+M5ts17xsrknOX111/PgV9aljKfB2WowcvQ8lkBBRRQQAEFGknAFpiNdDTMS8MJjCy1/qOCQuvCYhCvs4yuttpq+SY2dMmmAkLLDCoVrMeYl3Q/i3Gx6GIdlQVajVApIVhJq0OCh7TqpEsXLRRjYP3Otsk8Pj/iiCPSrrvumitPtAwh37SmXHnlldPmm2+ePyPQSosMtktljgoKgUUqQxtvvHFudcn22VfWJ4BJV70Ya4u8sw4VJNL+1a9+lWhJSVdw9pW0GUOLfWW/KytAq6++eu7uxw13GFeT9AjARsUy0t5ggw1yK8zzzz8/XX311TkgS5qRXuSffSfYe9VVV/Eyr0P3OicFBkIgvs8DsW23qUCzCTAcSQxL0lXeKbNYhjKoGASk3CJYSBnJRTguFFJuUUYwLvRee+2Vx2KOcTDZVpQvbCu2HWVbbJ/vcEyU0Z1tmzxx8Y4ykItn3LiPC4/kj/KPXhA777xz2mabbfL6LF9Mt7N9ihaPXAjlfOH3v/99Di4SnGVd1qEcp7wl0Mj7ygkTArvnnXdemjBhQjrttNPKw7GEXeSDZ85RGJ6G17ToxC3K2Mq0fa+AAgoooIACCjSKwKDSyct/ztgaJVfmQ4FuBAh4UWHg5jVUVGg5+LnPfS794he/yAPqV1Z2ukmqx4/YVjHA1tcT/FifCgTrxteN1xHMJBO0eOCz4ryYTxq0eqRL+Uc+8pF04YUX5m5kxcxHBYg02BbP0RIx8sDyfFaszJCPeM/nxXGzisvyOtIuLh95LrqwPd4X55E2E8vz4DOWY+psObqQ0z2eFp10c2ccUYKdTLGv3KyA40+FjQodXdoJfnaWXl7RPwrUQGDatGm5JdZll12Wb+DF+9GjR+eLClxcIBBS/M7UIAsmqUC/CPCbTMs8LmQRpGMsZFo5EqSjhT9Bsv6Y2A7lAFOUU92ly29+cbnKciTGm+YiWvHiWZQVLN/Z+l3NjzKkuB3yV5kP3lNG0aOA8w56VLCd4rY62y/WYxvF3wXKXtaLeSxDmc/FPoKaEWzlc/LVWR757aH1J+dGODDUC13DWYflcY/16YY/duzYRO8OxhHlAmpP+e5sX5ynQK0E+H/l/3/8+PH5wgAXrLlwcP311+f/by4wxPelVnkwXQUUUECBxhOwC3njHRNz1EACUVEgCFGsMFC5YIoKTldZZh3WpWLAyVhxYl5UGKJCx7LFBydnsUxx3a5esyzbLK4TeYh88D4elemwHttkWZZh4pl5nZ0oFpeN5YrrVvrEfhbTzRsp/GGZddZZJ7caJX1u1MCYoqTFFPv2xz/+MVfUWIbKF+tEngvJ+VIBBRRQoMEE+B3nQVkav+1dZTF+84ufR3nEbz7DodDbgAAi76N8Zj3SjmVjfd4Xy4pYvnJ+5ftImzRZh/QJonAXcQK8tOzsLK+x3Xhmmco8xXqky4NtxbiW7B/vI8+V68Z7tr/nnnvmfDBuNq0w6eYe68UzQ9RccMEFOTt0Uae1aKQRefRZAQUUUEABBRRoRAEDmI14VMxTwwhQqYiT/sgUJ/pR2aAi01PlK9aLtCrT62p+rNeb50ijN8vGMuxHZaWluG+8Lua1s+UjrXiuDNIyv+hDPnnE1NnybJPWJkcffXS+yREVsIMOOih3J2d5HtxhnTHC+IxxNRk7jMqbkwIKKKBA/wnEb3Q890fKxXKF8qCyHOrNNirLleI6xTKG18XtdbZccfni55Wvo3yM5/ic911tI5bp6Zk0KtPtbJ1YLj6rfE8Xc8pGLiSefvrpuYs9LTNjYogabhgUNwjkbu0MbzOr+Y/0fVZAAQUUUEABBWop4BiYtdQ17ZoKcOIeJ93RgqKmG+wk8dh+Jx9VPStaX7B/zTZVVgQrK1eV+1O5fPFzbspz1FFH5e7hVJ7pPsRYXUy85uZE+B922GH5Bj7FdX2tgAIKKNA7gWIwsHKNCFx2t0zlOrV+31O5Uuvt1zr97srFnrZNa00ClHT/p/cC43Suvfba+QZ3U6dOzRf77rjjjnxDoB/84AdpvfXW6ylJP1dAAQUUUEABBRpGwABmwxwKMzIrAlSyGqmCNSv7MiuVl1nZbiOty7HkwU0azjzzzNwyJQK6jBW2//775+wyr1WOeyP5m5dZEyCwHv+vs5aSaytQe4H4DY1gZVf/v3xei4t2td/D9tkCx2jEiBG59SVjBfKecUx55kZH2223XeJO6rS65Nnj2T7/G826p3E+SP4tV5v1KJpvBRRQoP8EDGD2n6Up1VmAE5k4mYnnOmehppsrtsQ8/PDDEzcqYJytGMy/phtvkMSpXEXlOrJUPO7MswIWMj4PpAD/pwQJmDr7n+TzVvydGkhzt90/AvE7G/+fxYtolEP8X8f/dv9s0VRqJcCx47eGICY3wOO48Z753FTs05/+dK02bboK1ESg+PtT/G2qycZMVAEFFFCg4QUMYDb8ITKDXQlQ2YpAwUB1Ie8qb/0xv3iixsD8TFRE2mHihDX2n33m0Vnluh0s3MfmEIj/U3Ibv0vFnBf/p4vzfa1AIwjw+xq/seQnXvN/W/lZI+TXPPxHoPIYRXkZx5DxMJ0UaFYB/r/5n2aK88Jm3RfzrYACCigw6wKe1cy6oSkMkAAn5xEooFtxnOAMUHbqstnY37psbAA3UjxJbZd9HkBuNz2LAlxAKQYwCRhE8CCSLv5PxzyfFWgkgQhU8v8bv7vxf80zgYSY30j5bve8VP7WxDGKXhzt7uP+N79AnN/H/3bz75F7oIACCihQrYABzGrlXG/ABYoBTCpWBDFbdaqsoLTqfrpfCjSrAL9BPJgIVvqdbdYj2b75jmAl/7sRcG/lcrVVjnRXvzVxDFtlP92P9hSYNm1auWydffbZy79N7anhXiuggAIKzCaBAs0qQCuROEHnBCeu0Dbr/phvBRRoXoHp06eXM99ZC8zyh75QoMEFii0wyWrxf7vBs272FFCgxQS4iBLDRBHAdFJAAQUUaG8BA5jtffybeu+pZMXJTAQwowVUU++YmVdAgaYRiK613GSLiS5u/C7Z1a1pDqEZLQhE6+E55pgjz+X/+9133y0s4UsFFFCgfgIEMKMleDvdxLJ+wm5JAQUUaC4BA5jNdbzM7f8LUMniQRCTaerUqeUTnP9fxCcFFFCgLgJcOJkyZUreFoFLW2DWhd2N1EAguiMXAwXvvPOOPRxqYG2SCijQvQBla/H8fujQod2v4KcKKKCAAi0vYACz5Q9x6+4gJzJxMjNp0iQDmK17qN0zBRpagFZqEydOzHnkwso888zT0Pk1cwr0JBD/w/xvE8B0UkABBeopQPCS3x8CmDGMxXzzzef40vU8CG5LAQUUaEABA5gNeFDMUu8E6KZZDGDafbx3bi6lgAL9K8Bvz4QJE3KitL7kdylasvXvlkxNgdoLEIQnUMBEAIH/bbpw8tpytvb+bkEBBf49HAu/OQxhwTBRTPwu8ftk+ep/iAIKKNC+AgYw2/fYN/2ezz333GneeefN+/HWW2/lExxOdpwUUECBegnwm8MNBl577bW8SbreDh8+3ApWvQ6A2+l3AQIECy20UE6X/+9XX3213IXcwEG/c5ugAgpUCPC7Q6tLylZ6N8QQLQsuuGAeX9rfoQow3yqggAJtJGAAs40OdqvsKi1AqGDNNddc5VYicYLDyU7crbBV9tf9UECBxhTgt4jfGypaBHmYuPnJ/PPPn3+jGjPX5kqB7gUYx3WxxRbLCxFIePnll3MLTIIGBg66t/NTBRToPwHKWM7vowXmwgsvXB77vv+2YkoKKKCAAs0kYACzmY5Wm+eVihSPuLsv3TSpZFGh4iTnqaeeysEElomJ4ELxfcz3WQEFFKhGoHiBhN+WCGA+88wzOTlahi+++OL5d4nfpuLy1WzPdRSoh0CxrGQYhJEjR+bNUrY+++yzOUjPa8vTehwNt6FAewrwO8TvDBO/NVwcfPLJJ/NrGi0sssgi5RaYfO7vUXv+n7jXCijQ3gIGMNv7+Dfd3nOyQgCTFpiMgbnEEkuUr8Y++uijM93Ix7Fymu4Qm2EFGlqA35TiRIWLISzefvvtPHvYsGGJViIEL+O3qri8rxVoRAH+V/mf5f+bx4c+9KFcxpLXF154Id/IpxjkbMR9ME8KKNDcAtFAgb0oBjB5T9lKF3J+n7jIwu+VkwIKKKBA+wkYwGy/Y960exwBAXaAkxwCmCuttFLussm8O++8M9+tsLKVSFzNZRknBRRQYFYE4veEyhWvaSEyfvz4NHny5JzsCiuskIe3oJIVQaFZ2Z7rKlAPgShf+Z8lOMBdyEeNGpU3/eKLL6bnnntuhguEUc7aAqoeR8dtKNAeAvE7xO8KNw6j+/iDDz6Yd37RRRfNjRYiyMmyPJwUUEABBdpLwABmex3vltpbAgTLLrtsrmixY08//XS+kQYnPRFkiEpWS+24O6OAAnUX4LckflfYOBUsWqRNnTo1Pfzww/mZ+WuuuWa+qGLFCg2nZhSgbOUGeVwgZKIFJo/K70Az7pt5VkCBxhQo/r7wmouDzz//fPkGefS4oncDv09OCiiggALtK2AAs32PfdPvOS0w6U6y+uqr53156aWX0t13351PemLn4mpuvPdZAQUUqEYgWnvQ+iO60nKxhLuP33vvvXkedyBfb731Es/RSqSabbmOAvUSiEA8z/Hgf5exXNdZZ53cGpNWUHfddVcO0vM/z3IEGOI7Ua+8uh0FFGhNgeJvSgQyuTh4zTXX5N8bfmsoW7lBHi3EnRRQQAEF2lfAAGb7Hvum3nNOZjiJ4UY+G220Ud4XxqCjGzldOaOSZQWrqQ+zmVegYQT4LYkADy1ACGJyZ1Rafj/00EM5n7RYi5sM2EqkYQ6dGelGoLMykgDmHHPMkZZbbrm00EIL5bWvu+66PA4mraL433dSQAEF+kuAoGWUmbyOi4Pjxo3Lm+B3asMNN8xDR/Ga36gIdPZXHkxHAQUUUKA5BAxgNsdxMpcVApy88OCuhGuvvXZacskl88nMpZdemrucUMni5MZJAQUU6C8BKk5MBDIJ4kyaNCldeeWVidbfVL4222yzNGLEiJlaX0aLzf7Kh+ko0J8ClKURyIxnejistdZaaeWVV86b+te//pVuuumm3AqT/+f4LvRnPkxLAQXaU4DfoLhAyPOUKVPSLbfcku6///4Msuqqq6YVV1xxhuFZ4reqPcXcawUUUKB9BQxgtu+xb/o954SHFpi0EqFrCdNTTz2Vrr/++vTuu+/aSqTpj7A7oEBjCVBhonJF6xC6t3FzkyuuuCJnkpZqm266ae56W9nFjeCmAZ/GOpbmpnMB/k8pW/kfXmCBBdI222yTF+R//oILLkivvvpquft4tJTqPCXnKqCAAr0TiN+dKF+5OHjVVVelN998M18c3HbbbfO4vFxYiZaarGO52jtfl1JAAQVaScAAZisdzTbbFypZPBjU+zOf+Uyab775ssCpp56aaC1CgKHY3c1ub232D+LuKjALAgRsmKJVSCQVFazXX389nXHGGfnuzHxG60u6uDH+pRWr0PK5GQUimMCdyLfaaqu0/PLL592gG/m1116bh2lh+ASmCCbkN/5RQAEFuhGoLE+Li/IZ5+kMA/XPf/4zXXzxxfljWoF/9KMfzRcH/b0pivlaAQUUaE8BA5jtedxbYq+pZNFKhJsNEDjYeOON83498cQT6dxzz03ceKAYtPTEpyUOuzuhQF0EuDgSU4y1xe9JtL687777cgWL98OHD0+77rpr+QYD/taEnM/NKsD/P8F4xnT9/Oc/n3s7MM70aaedlt54443yxcEIOhT3s1juFuf7WgEFFOA3o3KK3xEujDz77LPp5JNPzr8xnOd/+tOfzj2tiq0vK9f3vQIKKKBA+wj8p4bWPvvsnraIQLRyopJF982vfvWraYkllsgnPVSy6NpZvKEPJ0g8HBuzRf4B3A0FaigQAczi70W0DmGoip///OfpmWeeyRdRdt5557TmmmvmIE+sV8OsmbQCNRfg/5gHd/3dbrvt8kVCNnr33XensWPHppdffjmXtXw/Kv/nK9/XPLNuQAEFmkIgWnfzuxEXBDkv50IgwUu6jBO8/Mc//pH3Z/XVV0+UrwsuuGAua1nfSQEFFFCgvQUMYLb38W/6vaelE495550338xnhx12yHcpZPwcKln33HNP7kpe7A7a9DvtDiigQN0EqDDxG0NliyEpCNwwTMVtt92W87DKKquUK1i2EKnbYXFDdRAgEMn/9NJLL5323HPPRJdyAg/nnHNOuuSSS/JNrDq7YV4x6F+HbLoJBRRoQoEoWyOASa+pa665Jp155pm5rKVhwujRo/MwUXPMMcdMF0qacJfNsgIKKKBAPwgMPqw09UM6JqHAgApwAkRFa+TIkemRRx5JtJB65ZVX8mtaRnEzAipjPDhp8irugB4uN65A0wgQuCQgw43BGPfypJNOSieeeGJuLcLvylFHHZU22GCDPAYvgU5+i2yB1jSH14x2IVAsJylbCSbwXeCi4IQJE9K4cePSaqutlruY0wsiJv7/i+vGfJ8VUECBEIhzcBoXcBGE35TLLrss/eQnP8nn7gwPtffee+fhK0aMGJHvPs68WC/S8VkBBRRQoP0EDGC23zFvuT2OyhJBA67SLr744onx6bhb6nPPPZeef/75RDeUYcOGlQMLBhha7t/AHVKg3wUI2PDghmC0vPzTn/6UW3bTwptW31SwPvvZz5a7t1HB8rel3w+DCQ6QQAQLeCY4zxAtBPEfeOCBHNAnmPmhD30oLbPMMvlzlokgfqw7QFl3swooMAACXMCIixhdbZ4LgixD2UoA85133kk33XRTOuSQQ3LjA9b72Mc+lg466KC02GKLpbnmmsvu411hOl8BBRRoQwEDmG140FttlyOAyTMBBAKVyy67bB6ri/F0nnzyyXTXXXelUaNG5a4oxau4rMOJFFNUuDipiiBEfBZmsXwsG/N9VkCBxhGI7218T4vveR3zK3Mcy/EclaspU6akp59+Ov36179Oxx9/fO42O3To0Nyldq+99iq3QCv+rlSm63sFmlWA7wrlIQ9umMfFwH/961/5wuBrr72WuDM5Fw252Q/fC747LMt6ld+zCFwU58d3jnnF183qZb4VaHWByu9pvGe/ec0jvuOV3+tYlsAlvRr4DWFIisMPPzyXsyy/9dZbp//5n/9JK6ywQh62goYJzOf3I87NW93Y/VNAAQUU6FrAAGbXNn7S4AKczPAoTgQRorsblaqHHnoo3zH1xRdfzF3eqGBFaxFOiOJRPOHiBKmYNsvweWyL155EFdV9rUDjCURFie9tfIfjmXmdfY/je06XNlpd0tLyjjvuSD/96U/Tn//859xtnCDOl770pfSNb3wjB25oHUKrswjaNJ6EOVKg7wLxXeD/Or4rlK/8vy+//PK5m+djjz2Wvyc333xzLmcZD7ZyrDrWjXI2nuP7F99HlmGK7yrznRRQoDEF4jsd39vK98Vcx3c8nvmOU75StjLU0wknnJB7NTDkE9Mmm2ySDj300MRvCY0RKFvj94DXTgoooIACChjA9H+gqQU4sYkTowgq8p4xuQhgrrrqqolKFt3J33jjjXTDDTfkoCZj180333zlQCQnYFF54jUP0ougRHxWrMyxDK20+Ky4TlODmnkFmlCA7yFTfB/5DSh+V/ksvtN8xhSfxzq0COE1rULo0vbggw+ms846K/3oRz9K9957b/6ecyfUAw44IO2x30ISZAAAQABJREFUxx5pySWXzC3OuGBSmXbegH8UaAEB/rcp4yJIzzOBhXXWWSeXqbRO5vsyfvz43A2U79XCCy+ce0PEdyzKxyhH+Q4WH8xnWebFdym+l3zGFMu0AKm7oEDTCMT3n+9fPCKQGGVpLMNOMY/vMlPxu8v3mYuCkydPzkM7XXHFFbmV5eWXX57o5UDjgu233z4dfPDB+bx9/vnnz78h8bsTvxc5Yf8ooIACCrS1wKBSwfPvS99tzeDOt4IAJ0ic5HDSxGuu8r711lu5YnXKKaekSy+9NLegYl8XXXTR9PGPfzyPX7f++uvn8eyi5QgnX/GIEzTWId2oZMUJGvOZ4kSN15WfMc9JAQVqIxDfPYqyqFixJeZ3VbzFOvxOMPE8bdq0HLx85pln8s0ELrzwwnT//ffnz1iGFiGMebnNNtvkG5pQ4aJFGtss/k6wrJMCrSRQ/B7Fd4VABMOz8D059thj80042GcuHjJ+Hd1A+a4MHz48t8qMbqB8Vyq/M6TPg7Kz+B0OQ7bJevGI+T4roEBtBbr67jG/u4nvc1wUZFkuDEYjgvPPPz/dcsstuRUmaXCDsC9+8Ytpt912yxcGI3jJxcHYTme/C91t388UUEABBVpXwABm6x7bttuzYiWLAAUPTqAmTpyYx+viiu+ZZ56ZHn300RzcpDLEjThWXHHFtPnmmycCmdyQgJMpWmcSoOCkqbKyxXqVU8yLAGfl575XQIHaCPC957vOdzACk8UtFX8XolIVz9z5lEoVNyYhWMmdlbmZABc+CGgycbGD3we6jNN1ltZnBGlizMv47rNsVPZI3woXIk6tJhDfHb5rdAPlu3LjjTemM844I9166625hRX7TPlJefrhD384bbHFFmnkyJG5ZSbBCcrdKFuLF/yK36WiG8v4nSqK+FqB+gjwveO7znPlVJwXy1EGRsCSMegpX7nQwTAT/E5wU00ufjDxO7DGGmuk/fbbL6277rr53JshWooXBkmX9JjnpIACCiigAAIGMP0/aDmBCGJQGeLEh5aYdFGhokXw8oILLsitMTmRKp6A0UKEbqFLL710DlrQDY4bE0SFixMrKmUEL1iWChgVKx4RrGCbxQpZy+G6Qwo0mECxcsXreHDxggeBSB5Umgi4vP322/m34KWXXso3EKALLGPkUtEqTvPMM08OvtAyZKONNkojRozINzEpfveLy/tagXYQoEylvOOZB91CuRDAGHaUrZdddlm68847Z6Bgeb4/BDG5IMCD8pUhGShfKVv5XsXdhml5xTo8iuUpr7sKcs6wQd8ooEC/CPAdZyoGKClj47vP95/WlZStNBbgPJshm7goyDn2s88+m8tX1omJYOTKK6+cdt5557TVVlulpZZaKgczObfmO2+wMqR8VkABBRToTMAAZmcqzmtqgWJQkh0hiME8ghgEMuOK8LXXXpvvoEqX0WKLq9h5KktxJZjXUXmKZ5aLylQ8x7o+K6BA/QXiu1985jWPCGxG4IXfheLE95qW1wRWGN/vc5/7XFpuueXSYostlu+ESuWK73llUKWYhq8VaHUBvkt8Dyq/U5StBDK5GEAr5quuuiqPI0vZSnCjOMX3iPI1ytYoV/ksHqzDaycFFBh4Ab7zTDwXH1G2RmAzzrmLOebiBL2buLP4jjvumNZcc83cQjt6O3HRgonfBL/zRTlfK6CAAgpUChjArBTxfUsIcCJVrATFiRXPtMiM1lhcJeZO5dywg5v9PPHEE3mAcebHleeWAHEnFFBgJgFaWUaraypWPIoVq2gZFq3BqLQVf1dmStAZCrSRQAQ0KCt5TdlKiyxu6kNrrIcffjg98sgjuXx9qnTHYcpXWmexjJMCCrSuAAFJWlpTvq600kr5YiBl66hRo/K4uJStBDWLZWtczECF3xQ+c1JAAQUUUKBSwABmpYjvW1IgKloEMHnwnhaZXCmm+0tUuuheSuUrusRR2eI18wl6sg6VtFiXdCK9CHjGtloS0p1SoMEEqPTwHYzKTnQ/i9bTdE2l9SSVJSpNjGFJ11UqVrymBQhjcfGagCYVL5aP1mGkG0FLvtvxiO01GIfZUaAuAsUAQ5R50aqZZz6n5SXlZXQvpSzl9csvv5yHb3jttdfKn1EG82C9WL9YpkY5W5edcyMKtLkA5WqUdRFYpBzkdZSNlK1RXlJ2RtnKcBE8GB6C+QsssEB+Zggm1omymbSifGVbpM8z33U+472TAgoooIAClQIGMCtFfN+SApwQRRCCHSxWhqhgxUkTgcmoQEUlKk7ionLGukxRucpvSn9iuXjvswIK1EcgKj5sjYoPUwQYi+/jNRWoqEQVn/mc9WI5nq1EZU7/KNBrgSgbKVuZokzlmTKWMpTXPKIsjucoR6OcZX1eF7/jzHNSQIH+F4jyju9hTFEexnuWibKR1zwiEMlrgpq8J1jJM2VsrBPLsX58ryP9+M7H+9iezwoooIACChQFDGAWNXzdlgKcqHHiFCdPIMTJG89Usorv2xLJnVagyQWoQDFFBYrXxYpSVMKYH8vy2kkBBaoTiHIzLv6RSrGcLZa7sWx1W3KtRhXguNJ7hdbv/q426lGatXzFca0sQ2M+qVPWRnkb8+M739X7WcuVayuggAIKtKqAAcxWPbLu1ywJULHipKqyshUnYLOUuCsroEBdBfgeV353+X5XzqtrptyYAm0owHcxAhex+/E+Ahkx3+fmF2BYgGOOOSbttddeeUzE5t8j96BSgO8vj2J5ymu/z5VSvldAAQUU6A+BIf2RiGko0GoCcSJGay1OzDgR48Fr5jkpoEDjCvA9jYsPfG/5Psd3mlxbsWrcY2fOWlug+D3ke8rEM48oY5lnOYtC804cT3qvcDf6MWPGpJEjR6avfe1rzbtD5rxTAVpXF7+rlq2dMjlTAQUUUKAfBf49WFg/JmhSCjS7ACfeEfxgX3gfz56cZQr/KNDQAnxPqVQVK1Z8p4vf64beATOnQJsI8J2MMraz722bMLTcbnIs33rrrXTCCSfkGzUdd9xxefzTltvRNt8hjnN8f+O5zUncfQUUUECBGgsYwKwxsMk3pwAnZTEVW4wU58fnPiugQOMK8J3lO8xzPBo3t+ZMgfYR4PsYFxqK5Wz7CLTunhKYvvLKK9Mtt9ySd/Lee+9N559/vheRWuyQ8x0mcMmz3+EWO7jujgIKKNCgAgYwG/TAmK2BE+gqyEFFi8+cFFCgeQTi+xzPzZNzc6pA+wj4/WydY03w8t13302/+93v0sSJE/OO0Z38lFNOSS+//HJ+T9CLeU7NLUDQstjTobn3xtwroIACCjSDgAHMZjhK5lEBBRRQYJYEDJDMEp8rK6CAAj0KELzkwdiXt9566wzL855WmXxOANMWezPw+EYBBRRQQAEFeiFgALMXSC6igAIKKKCAAgoooIAC3Qsw9iWtLytbWE6ePDn95je/yWNhErzkohJT5XLdp+6nCiiggAIKKNDOAgYw2/nou+8KKKCAAgoooIACCsyiQNzEhVaWla0vI2nGwrzwwgtnGAvTlpih47MCCiiggAIK9CRgALMnIT9XQAEFFFBAAQUUUECBLgUIYE6ZMiUdf/zxacKECZ0uR/fxk046Kb344ovlz6MlZnmGLxRQQAEFFFBAgS4EDGB2AeNsBRRQQAEFFFBAAQUU6FmAQOTf//73NG7cuG4XpnUmyzkpoIACCiiggAJ9FTCA2Vcxl1dAAQUUUEABBRRQQIGywOuvv55bX/Y0piVjYY4dOzZNnTq1vK4vFFBAAQUUUECB3ggYwOyNkssooIACCiiggAIKKKDATAJx5/GeWl/GiuPHjy+PhRljZ8ZnPiuggAIKKKCAAl0JGMDsSsb5CiiggAIKKKCAAgoo0K0ArSq583hXY19WrkzA84QTTphhLMzKZXyvgAIKKKCAAgpUChjArBTxvQIKKKCAAgoooIACCvQoQAvKq6++uss7j3eVwG233eZYmF3hOF8BBRRQQAEFOhUwgNkpizMVUEABBRRQQAEFFFCgO4E33ngjHXfccem9997rbrGZPps0aZJjYc6k4gwFFFBAAQUU6E7AAGZ3On6mgAIKKKCAAgoooIACWYCb9NAFnInnK6+8Mt1+++35fV//3Hvvveniiy9OjoPZVzmXV0ABBRRQoD0FDGC253F3rxVQQAEFFFBAAQUU6JPA4MGD02yz/bv6QCtKxrLs7diXlRsicHn88cenl156qfIj3yuggAIKKKCAAjMJGMCcicQZCiiggAIKKKCAAgoo0J3ATTfdlO6+++40dOjQmR6DBg2aYVXezznnnDMtd99996Ubbrght+a0JeYMZL5RQAEFFFBAgQqBIRXvfauAAgoooIACCiiggAIKdCsw99xzpzFjxsy0zPTp09MxxxyTnn322fJnyy67bNpzzz3T8OHDy/PixaKLLppfEsCsDHzGMj4roIACCiiggAKDSicLHTIooIACCiiggAIKKKCAAr0ViCpEZdDx3XffTZtsskm66667ykltuumm6ZxzzklLLrlkeV7xBWNr0j3dSQEFFFBAAQUU6ErALuRdyThfAQUUUEABBRRQQAEFuhSIG/p0uUAvPzB42UsoF1NAAQUUUKCNBQxgtvHBd9cVUEABBRRQQAEFFKhGgJaXBh6rkXMdBRRQQAEFFKhGwABmNWquo4ACCiiggAIKKKCAAgoooIACCiiggAJ1ETCAWRdmN6KAAgoooIACCiiggAIKKKCAAgoooIAC1QgYwKxGzXUUUEABBRRQQAEFFFBAAQUUUEABBRRQoC4CBjDrwuxGFFBAAQUUUEABBRRQQAEFFFBAAQUUUKAaAQOY1ai5jgIKKKCAAgoooIACCiiggAIKKKCAAgrURcAAZl2Y3YgCCiiggAIKKKCAAgoooIACCiiggAIKVCNgALMaNddRQAEFFFBAAQUUUEABBRRQQAEFFFBAgboIGMCsC7MbUUABBRRQQAEFFFBAAQUUUEABBRRQQIFqBAxgVqPmOgoooIACCiiggAIKKKCAAgoooIACCihQFwEDmHVhdiMKKKCAAgoooIACCiiggAIKKKCAAgooUI2AAcxq1FxHAQUUUEABBRRQQAEFFFBAAQUUUEABBeoiYACzLsxuRAEFFFBAAQUUUEABBRRQQAEFFFBAAQWqETCAWY2a6yiggAIKKKCAAgoooIACCiiggAIKKKBAXQQMYNaF2Y0ooIACCiiggAIKKKCAAgoooIACCiigQDUCBjCrUXMdBRRQQAEFFFBAAQUUUEABBRRQQAEFFKiLgAHMujC7EQUUUEABBRRQQAEFFFBAAQUUUEABBRSoRsAAZjVqrqOAAgoooIACCiiggAIKKKCAAgoooIACdREwgFkXZjeigAIKKKCAAgoooIACCiiggAIKKKCAAtUIGMCsRs11FFBAAQUUUEABBRRQQAEFFFBAAQUUUKAuAgYw68LsRhRQQAEFFFBAAQUUUEABBRRQQAEFFFCgGgEDmNWouY4CCiiggAIKKKCAAgoooIACCiiggAIK1EXAAGZdmN2IAgoooIACCiiggAIKKKCAAgoooIACClQjYACzGjXXUUABBRRQQAEFFFBAAQUUUEABBRRQQIG6CBjArAuzG1FAAQUUUEABBRRQQAEFFFBAAQUUUECBagQMYFaj5joKKKCAAgoooIACCiiggAIKKKCAAgooUBcBA5h1YXYjCiiggAIKKKCAAgoooIACCiiggAIKKFCNgAHMatRcRwEFFFBAAQUUUEABBRRQQAEFFFBAAQXqImAAsy7MbkQBBRRQQAEFFFBAAQUUUEABBRRQQAEFqhEwgFmNmusooIACCiiggAIKKKCAAgoooIACCiigQF0EDGDWhdmNKKCAAgoooIACCiiggAIKKKCAAgoooEA1AgYwq1FzHQUUUEABBRRQQAEFFFBAAQUUUEABBRSoi4ABzLowuxEFFFBAAQUUUEABBRRQQAEFFFBAAQUUqEbAAGY1aq6jgAIKKKCAAgoooIACCiiggAIKKKCAAnURMIBZF2Y3ooACCiiggAIKKKCAAgoooIACCiiggALVCBjArEbNdRRQQAEFFFBAAQUUUEABBRRQQAEFFFCgLgIGMOvC7EYUUEABBRRQQAEFFFBAAQUUUEABBRRQoBoBA5jVqLmOAgoooIACCiiggAIKKKCAAgoooIACCtRFwABmXZjdiAIKKKCAAgoooIACCiiggAIKKKCAAgpUI2AAsxo111FAAQUUUEABBRRQQAEFFFBAAQUUUECBuggYwKwLsxtRQAEFFFBAAQUUUEABBRRQQAEFFFBAgWoEDGBWo+Y6CiiggAIKKKCAAgoooIACCiiggAIKKFAXAQOYdWF2IwoooIACCiiggAIKKKCAAgoooIACCihQjYABzGrUXEcBBRRQQAEFFFBAAQUUUEABBRRQQAEF6iJgALMuzG5EAQUUUEABBRRQQAEFFFBAAQUUUEABBaoRMIBZjZrrKKCAAgoooIACCiiggAIKKKCAAgoooEBdBAxg1oXZjSiggAIKKKCAAgoooIACCiiggAIKKKBANQIGMKtRcx0FFFBAAQUUUEABBRRQQAEFZkGgo6Mj8XBSQAEFFOhZwABmz0YuoYACCiiggAIKKKCAAgoooEC/ChSDl++//36/pm1iCiigQKsJDGm1HXJ/FFBAAQUUUECBRhV4+umn0+23356sqDbqETJfsyowbdq09Prrr8+QzKuvvpouuuiitOCCC84w3zcKtLvAAgsskDbZZJM0zzzzpNlms21Ru/8/uP8KKNC9wKDSVR/brHdv5KcKKKCAAgoooEC/CJx77rlp9913T5MnT+6X9ExEAQUUUKB5BdZff/1EubD00kunQYMGGcRs3kNpzhVQoA4CXuapA7KbUEABBRRQQAEFFFBAAQUUUKAzAVpfEsC0dX5nOs5TQAEF/i1gF3L/ExRQQAEFFFBAAQUUUEABBRQYAAEClzyYBg8ePAA5cJMKKKBAcwgYwGyO42QuFVBAAQUUUKBFBKigDhnyn1OwaHnTIrvnbiiggAIKdCHA6G0ffPBB/pSgJe+nTp3axdLOVkABBRQoCvzn7Lk419cKKKCAAgoooIAC/S5A4HL22WdP06dPL6e94447pi222CK3wIlWOOUPfaGAAgoo0DIC48ePT2eddVaaNGlSHu/ymWeeSePGjUsrrrhiy+yjO6KAAgrUSsAAZq1kTVcBBRRQQAEFFKgQIHhJa5t33323/Mk666yTRo8enVviFLsSlhfwhQIKKKBASwhcdNFF6cwzzyyXAdzQ7YUXXshjX0aLTLuRt8ShdicUUKAGAgYwa4BqkgoooIACCiigQF8E6EbIg8lWmH2Rc1kFFFCg+QX43Wc4EScFFFBAga4F/JXs2sZPFFBAAQUUUECBfhHgzrIRoKxMsBi8tAJbqeN7BRRQoPUF+O33DuStf5zdQwUUmDUBW2DOmp9rK6CAAgoooIACPQp01yWQimt3n/eYuAsooIACCjS9gOVA0x9Cd0ABBWosYAvMGgObvAIKKKCAAgoooIACCiiggAIKKKCAAgpUL2AAs3o711RAAQUUUEABBRRQQAEFFFBAAQUUUECBGgsYwKwxsMkroIACCiiggAIKKKCAAgoooIACCiigQPUCBjCrt3NNBRRQQAEFFFBAAQUUUEABBRRQQAEFFKixgAHMGgObvAIKKKCAAgoooIACCiiggAIKKKCAAgpUL2AAs3o711RAAQUUUEABBRRQQAEFFFBAAQUUUECBGgsYwKwxsMkroIACCiiggAIKKKCAAgoooIACCiigQPUCBjCrt3NNBRRQQAEFFFBAAQUUUEABBRRQQAEFFKixgAHMGgObvAIKKKCAAgoooIACCiiggAIKKKCAAgpUL2AAs3o711RAAQUUUEABBRRQQAEFFFBAAQUUUECBGgsYwKwxsMkroIACCiiggAIKKKCAAgoooIACCiigQPUCBjCrt3NNBRRQQAEFFFBAAQUUUEABBRRQQAEFFKixgAHMGgObvAIKKKCAAgoooIACCiiggAIKKKCAAgpUL2AAs3o711RAAQUUUEABBRRQQAEFFFBAAQUUUECBGgsYwKwxsMkroIACCiiggAIKKKCAAgoooIACCiigQPUCBjCrt3NNBRRQQAEFFFBAAQUUUEABBRRQQAEFFKixgAHMGgObvAIKKKCAAgoooIACCiiggAIKKKCAAgpUL2AAs3o711RAAQUUUEABBRRQQAEFFFBAAQUUUECBGgsYwKwxsMkroIACCiiggAIKKKCAAgoooIACCiigQPUCBjCrt3NNBRRQQAEFFFBAAQUUUEABBRRQQAEFFKixgAHMGgObvAIKKKCAAgoooIACCiiggAIKKKCAAgpUL2AAs3o711RAAQUUUEABBRRQQAEFFFBAAQUUUECBGgsYwKwxsMkroIACCiiggAIKKKCAAgoooIACCiigQPUCBjCrt3NNBRRQQAEFFFBAAQUUUEABBRRQQAEFFKixgAHMGgObvAIKKKCAAgoooIACCiiggAIKKKCAAgpUL2AAs3o711RAAQUUUEABBRRQQAEFFFBAAQUUUECBGgsYwKwxsMkroIACCiiggAIKKKCAAgoooIACCiigQPUCBjCrt3NNBRRQQAEFFFBAAQUUUEABBRRQQAEFFKixgAHMGgObvAIKKKCAAgoooIACCiiggAIKKKCAAgpUL2AAs3o711RAAQUUUEABBRRQQAEFFFBAAQUUUECBGgsYwKwxsMkroIACCiiggAIKKKCAAgoooIACCiigQPUCBjCrt3NNBRRQQAEFFFCgXwU++OCD1NHR0a9pmlhzCvB/wP+DU3sK9ObY+3vRnv8b7nVjCPTmO9oYOTUXCrSOwJDW2RX3RAEFFFBAgcYR6CwINWjQoJzBys/ef//9csYrPyt/0M0L1uEx22xel+yGqSE+4lhXHuPp06cnHkx8Fv8nDZFhM1EWiONW7fFhPb6jPFPx5XU8d5VmV/PLmfJFwwp09/8Sn0Xmowwozud1T8e/N8vENnxuDIHOygB+B6ZOnVr+TeC493TsG2Nv2jsXnX3/OJZdHb84plEOdKYXy3T2mfMUUCAlA5j+FyiggAIKKFADgaiI8szJKs/Fee+9914OXnCyy+spU6akN998M02YMCFNmjQpvfvuu2ny5Mk5sMXnVHpYNtKJ15H1SJv3ngCHSuM8x/G577770uDBg9Occ85Zztxdd92VTj31VI9bWaQxX3AMi98tXhcfHFe+67PPPnt+zDXXXGmOOeZI88wzT5pvvvnSggsumF8PGTIk8WBd1onvdKTFd7u7Cm5j6pirSoH4znNcY+LYMvFZlAG8Zv7EiRPT22+/ncsBygN+/wlqxQWOKAPitz/SirR9bg6B8ePH5+NfLAPuueeedNppp+XfhM7+b5pjz9ovl/GbHb/XPPObHr/xQ4cOzWX9vPPOm+aff/40fPjwxGs+j/KCdXjwfSa9eN+ZJsvwuZMC7SwwqPQjaT+ldv4PcN8VUEABBfpVgEpmnIzyTDHLSSnzeVAZJTj51ltvJSotd999d3rsscfSc889l955550cyKTSOm3atLxsrMeJa1RYSTMelZmP7VXO931jCHB8OpuKQY7OPnfewAtUfrei8krOihVPKqY8CGRSUaUSy4OK64gRI9LKK6+cVltttbT++uvnoObcc8+dl2WdYjrxv+L/xsAf+2pywG938X8kfssJXFIGcMHqwQcfTLfeemt6/PHHcxnAxasIXFIOsE4EOnldLAPidTV5c52BFYjvdjEXfs+LGs3xOr7fxecIQEYQk3KA338uaPFbv8gii6QVVlghrbnmmmnttdfOZQIXuVguyoB4rlTgO28As1LF9+0mYACz3Y64+6uAAgooUDeBqHzyTIuae++9N91www3puuuuS3feeWeuqNYtM25IAQUaSoDWmauuumraaqut0kYbbZQfw4YNK7fgiczGBZGoJMd8nxtbgGADgaooBwhM3n///enaa69NN998cxo3blxubd/Ye2HuFFCgVgIEOddYY420+eab5wcXtWilSdnAZ/7m10redJtZwABmMx89866AAgoo0BACla0peE/llVaUtLQhWPmHP/whV1qfffbZcisaTk4JTnC1nRNWupgSwKClFl1O6WLGlfs4mWU5TmqZ4jnSaAgIM6FAGwjE95tdJTgVQSq+87SWo+UcDy5a8KBrMC2u33jjjfx7wDoR3CINvsO0zKTy+pWvfCV95CMfyb8BtMiJ1jwsx8SyTo0vwP9EtJykZf0DDzyQjj/++HT77benJ598Mv/PsBfx+81x5nd+gQUWyA9+/ykHaLVFOcD/QrTQYlnWK7bSinmNL2MOFWh+gc7KAH7T6WHD7zvPUQZw4YKhgYrDQ7BslB1o8H1eaKGF0lprrZVGjx6dg5n8FvAdjzIgfvvZdqyTX/hHgTYTMIDZZgfc3VVAAQUU6H8BTkZj4jUVV05gb7vttnT66aen8847LwcuYhmCFUsttVRadtllc3fS5ZZbLi266KK5skolNgKVnLBWVlQjDeZzYuukgAL1EeA7F5XH2CKV0OIUFVt+B6KSGr8HXMx47bXX0sMPP5yeeOKJ/Pziiy+mF154YYZ0t9tuu/T1r389bbnllvk3IVri+H0vSjfOa45z/FaTK95HAIPxDk866aT017/+tdzakmUJTiyzzDJp5MiRuRUuZcGSSy5ZDlbGMY8LVfG+cq8pK5wUUKA+Avy+84jf4vi9r9x6XKQqlgGUA5QBr776ah426NFHH81DRzzzzDPppZdeKl/YJu2Pfexjad99902bbLJJvphdDGSSJtv1u1+p7vt2ETCA2S5H2v1UQAEFFKiJACeqEdiIk1XGNrvkkkvSmDFj0iOPPFI+4SVIyYnpBhtskIOXCy+8cLmlFa1sqKRGRZWT2DhBJX0nBRQYWIH4nveUCyqXTDxHRZbKK69plUMlNiqyzz//fG6Vx7ASBDVZhmnxxRfPFdjddtstt8wu/jZE+v4uZKoB/xPHIzJCy3taXF144YVp7Nixuds4n/GbTiurT/0fe2cCd1019v9NZt6EEg16mpAGSiljmSXJW9FgKE1oRFQaNKiUqWTKmCnUmwpRMpQMoURUkqFMIanMf8L+X99Lv906+9nn3Ofcz30/z33u81ufzzl7Wutaa33X2mvvde1rrbX55mlpteaaa+Z8eMx/V1pZUq56DrDFuawTg/9MYIkS4D7kx7veIKc2Qc8AtuUzAMt8ngV80Pr5z39e8aHjvPPOy3384XgG7LLLLtWee+7ZDCvnnVBx6/1wUDp8zQTmIwErMOdjqTpPJmACJmACi5UAL5T86LjyMnrcccdVH/vYx/KFlYRgYUmndYsttsiXUoYHMpm7Oq10bHkpLl9IOeally1Ox3RoOa9rup6e/GcCJrDYCej+1z3aLwEoJ9WRpZNKB5ZFWxhizkePL3zhC/nhg3kSkUl7sOmmm1bHH398WmrLOptrtBn87JY8AcqDsqd8sbzkGYDi8t3vfnfTTj/oQQ+qnv3sZ1dPe9rTqpVWWqmZJoQy5UdZUt5lmVJXcO02Hn9q/1UX2n6WPBWnwATmLwHuO5zuV451L+qa7lH8aZ82guts+fHOqGfAH/7wh+qrX/1qdcYZZ+TiXjwjkL9ZWOIfccQR1QYbbJDTSPAOqLgUP3HYmcCkELACc1JK2vk0ARMwAROYFQK8mNJp5WUTC6rDDz+8+vSnP53HdEx5+dxxxx1zonaGjmNtw7yWvHgyp1mp9NDLKDLZRybX1WHlvK6x5Zo7rrNSrBZqAkMTUIeVALqH24G5X3Hacm8Tjh+KTOZJpAPLsEKGG2PBzTkcCzy87nWvqx75yEemskvtAVu7JU+AMpXykjmODzzwwOrcc8/NckXZwCJN2267bSogmOdYz4ByTkty0a47yMQhvyxrjvnh3+1/IvKfCSxWArTbugeJWPck92O/89yv8kcY7u/yGaC5khm185nPfKY6/fTTcw5lZKK8POGEE9Jymw/fnJN1NjI4brcfxGFnAvORgBWY87FUnScTMAETMIHFQoCXUV5CGQ6K4oE5iy6++OKM+wEPeEBOxi6rSxbnkcUlHtT55MUTGWz1GybxvLRKzjD+7ccETGD2CNAWcE+WiqYyNu5x3fNqN/BLGI5RaKLIZOjx7373u1zw621ve1vOkYacVVddNedS3GSTTbIdIaw7rCXhJbOvsuQj1lVXXVW96lWvqi688MJMDM8AFmXaeuutc47jpZdeulmUDQ9SQKRn/5mACYwdAdpvtfu8v+E4nupdTs8L2nDt84zQM4A5Mb/xjW9km88CYLjVV1+9OvHEE3ORNz5+yBLT7Uji8d8EEVgqTJKPmKD8OqsmYAImYAImMCMEpHTgpZNJ2I866qjqS1/6Ur6MMnfRK1/5yuqZz3xmDhdkwQasLlE68OIpRYZeeNvHwyRwqhfkYWTYjwmYwMwQ4H4cpFDUPa7YdKwtbQM/rLZpK5gvl6HG1113XS76wCrm7GOFyTyKik9tiOR6O3sEaOtxKCgoNykvUT7fcMMN1SGHHFJ98YtfzOtY26PMZOoQFufB8pIVxSlfK59nr4ws2QQWJ4Gudphzw7TL8qctbQo/2gjaCp4BLPTFx3EW/mGaEfYf85jH5CJg8s/WzgQmiYAVmJNU2s6rCZiACZjAjBAoO64oFl772tdWn/jEJ7JDy1xnxxxzTPWkJz0pO65YXmqooL+Uzwh+CzGBsSagDqsyoWMpMWkvmCf3/ve/f049warlWOTwoYR95sXkujqwkuPt7BKAN2XFtnwGsBAHH7CY9xjl5oJYWZxnAvNdorxcZpllUilBuRLezgRMYLIJqM0XhfKYdoKPWFJirrPOOjmv7q9+9avq+uuvr66++upUYvJuSVvEc8POBCaJgBWYk1TazqsJmIAJmMCMEMDihg4sK0meddZZFUM9mYwdy6j9998/FQwoH5jrDKWlLW5mBLuFmMC8JoCFn9oKtnRk1YlleDIWOHRiGYq88cYbZ9tCO1R2fuc1oDmWOcqL6UPOPvvs6qSTTsp9FMuvfvWrc5gnlvgs1qZngJWXc6wAnRwTmGMEUEjyEQRHu8EzgPdIpqNgpXKeASgxmY4IS8zyo7jblzlWmE7OrBGwAnPW0FqwCZiACZjAfCWA0gCF5SWXXFIddNBBOWcdX8wZMrjVVltVK6ywQq4yy0smigi/WM7XmuB8mcDMEaDzimNLm0HbgQKTKShQhjEn2t/+9reca3G11VbLOdHo4Mr/zKXEkqYigJJB817us88+OYScstp3331zwR4+YKHMRMFA+VCWdiZgAiYwDAHaDLUbvFsyBQVtyne+852cJ/nyyy+v1lprrYrnAEPO/QwYhqr9zBcCnjRhvpSk82ECJmACJrBYCGB1gwUmioSPf/zj1bXXXpvKBoZ1PvWpT82XTDqydFytuFwsReJITGCsCfBBBEfbwo9jOqS0IXRemU+RxXue/exnZ5vCauWnnnpqddNNN2VbRBi72SdAueiHAhMLfMqBlcdp6x//+MfnsHHK6173ulcqLVFcWnk5+2XjGExgvhDQe2P5DOAj1uMe97hqm222yWzy/vmRj3wkP55rRNB8yb/zYQJTEbACcypCvm4CJmACJmACtxFQ5xXrS6yhTj/99OzQMufZHnvskROu03HFKsqdVlcbEzCBYQhoyCAdV/0IJ+UXbQoWmNtvv3210UYbpcjzzjuvOvfcc9MKkHbJbvYJUE6wRmHMasEXXXRRPgOImQU39tprr2qNNdZoLC/9EWv2y8QxmMB8I1A+A2SFqWfAdtttl9OHkGcWDDvnnHNyNJCeIfONhfNjAl0ErMDsouJzJmACJmACJtBBQJ3XP/3pT9WZZ55Z/fWvf01frDbOROsMGbTysgOcT5mACfQloI8ddFb5lY5rKMKYB23VVVetttxyy5z/DD98QPnjH/+YSjUp18qw3p9ZApQFygUUmH/5y1+qz372s7k6MLHwDFhzzTXT8pLy4mdnAiZgAotKgHaH5wLz6TI90RZbbJHtDJaXjAL685//nJb4PANsjb+otB1+HAj0viWNQ4qdRhMwARMwARNYzAT0YigF5hVXXFF94QtfyMnWV1lllWrrrbfOOYqYi8jOBEzABGaKAB1SOq+0LcyDtvnmm+fHEuR/73vfq84///y0BrQV5kwRHyyHZwGKA6YOYfEejrG6ZO7j5ZZbLucsRclpZwImYAKLSkDvnHwQYU51Fop8xjOeUT384Q9P0VdeeWXzDKAtan8AW9T4Hd4E5iIBKzDnYqk4TSZgAiZgAnOKAC+FfAVHmcCqs5dddln129/+Nq1xmPuSr+LMVcdLJv7sTMAETGC6BOiI8sPJ+kar0TIX2tOe9rRse7C+/PrXv56W4Pi34my6xIcPB2emELn44osr5iKF+YYbbpiLaTD3MeXlchiep32agAn0J0BbojaF91DeM1Fi8iELx/voBRdckM8A3k/9Ias/S1+ZPwSswJw/ZemcmIAJmIAJzDIBXhBZuIG553hRxCKKhRvYomBwx3WWC8DiTWACCNCOtNsSfURhLrSNN944FWa0QSgwb7zxxrQK5Fi/CcC0RLIIX6YOYQ5SHMM6n/70p+dCS3zAopzw0y6/JZJYR2oCJjBvCOgZwFRFj370o6uVVlop25rvfve71XXXXdd89Jo3GXZGTKAPASsw+4DxaRMwARMwARMoCWB5gwLz5ptvrn70ox/lJYYMrr322o31Zenf+yZgAiYwHQJdCkzkYImDld+KK66Y82FyjqHMWIPTNtFGoTyzmx0C8GX4OLx//vOfZyTLLLNMDumXBb6UDLOTAks1AROYVAI8F3gGyAqTd08cbdFvfvObbP9po/SbVE7O9/wnYAXm/C9j59AETMAETGAGCKAYoPPK124WcMA97GEPq+5///t7wYYZ4GsRJmACgwmgHMPKjyGELBrGPsOZv/WtbzUr0coCcLAkX50OAT0DmAP597//fYp4xCMeUd373vf2M2A6QB3GBExgJAL6QMKoH9oeFJos4vODH/yguvXWW1N5qQ9gKDLtTGA+ErACcz6WqvNkAiZgAiYwKwR4QcT6EkUmji/gWEShSOCl0dZPs4LdQk3ABIIAbQxtDQv6sOK1Fg27+uqrGwWmO62zU1WwcMXxDPjFL37R8xFL1pcoE+xMwARMYDYJ0M7Q9q+88soVw8lxV111VS7mRvvPe6ifA7NZApa9pAlYgbmkS8Dxm4AJmIAJzHkCeiH8xz/+kUM26cTi1l133VwZUl+8+TpuZwImYAKzRYC2BoXZQx7ykGx7iOeaa65JBSb7aovYt1t0AlIEwJV2n2cACkz2mff4oQ99aPMMWPTYLMEETMAE+hOgHUKByYrkCxYsSOtvfOsjFu+q+PG7aH+GvjL+BNzTGv8ydA5MwARMwARmmQAvhVjg/O1vf8uVZ4nunve8Z8UcmLxMatgmL452JmACJjCbBGhvll122VxAhniYl5cVyTUP5mzGPamyeQbgWPWXOTBxSy+9dDN83G1/IvGfCZjALBOQEnP55ZfP91Cio03i4wpOH13ywH8mMA8JWIE5DwvVWTIBEzABE5h5AnRgmWvopptuSuHMQ6fh41zTb+ZjtkQTMAETuN26kmHktD0PfOADEwtKtd/97nfNFBZWpi16bZESQJZMat///ve/NwpM5qFDiakpRBSr/OrYWxMwAROYSQK0S7Q9tEE4ngHMy6vRQXzMUts1k/FalgnMBQJ3mguJcBpMwARMwARMYK4ToEPL4j1awIfVZ1Ei8JKIFSad1pl0xMfqkt/5zneyw4z1JwsGrbLKKtWDHvSgXIWYOIl7GNfukBOG8JwfVsYw8UyaH3UU2kojzjNXKvUDzig5ZrJDQbkRZzvekj/x8sMy48c//nFOf3DddddlOlZdddVqQQxBYyEq/KgOdNUT5UWyyQfDZxenIw3kVR004iYNM8l0lPzATGXA8D1Z5SED60jmxxXTUeRO5ReZcKA+8REFx0I+f/rTn7Icpwrv69MnoHsJa1cc88/d4x73yHIuyxp/g+7LUVNA2V5++eU5VQAf0HjurLTSStVqq62WzwMUGTMZ3zDpU92fzXi550uuw6RrGD+LI+1KB3WB54DaVfLDvTuKU9iyrVP7g5xhGcHzhhtuyOHGTIPA/gMe8IBq9dVXzykpUIYNKk/SgQylB7/lc4008SvTOSifw5QvcfFDpuQSh9Kh+EZ9HikPkjkoneU1nqVM2aE2oLymfcpjxRVXzA9Mo6ZLMobZIlsKTPKjj+uEHTVfw8RnPyYwVwiM1oLOlVQ7HSZgAiZgAiawBAjwlRtFIo6VZ8uX00Ev/v2Syss3L57qgKCcuf7666vPfe5z1Qc+8IHsaPDCrJdt4lAH6DGPeUz1ohe9qHriE5+YL8pcG5QGXUNW+XLLec4pHeoQ9Esz5/GLP6W7yy9+FKe2Xf6GPSdWyCrTP1V4hSOt7OOGSU8ZTnGQp3bcOlZ+kc3+cccdV73hDW/IjhbK7ne/+93V5ptvPiU34iI88SO7TCudNs5xrTyv9LW3v/nNb6pzzjmnetvb3lb95Cc/SbnIwKkebbzxxtWee+5ZPeUpT0mFjPJTyrrooouqLbfcsjlF3l72spf1lL86o2LUj3Xbn4Qqz+06pfP4O/roo6s3vvGNmX+Ud9wjm266abJoh5PcflulQ9fbxzo/aAsr2oPnPe95yVd+119//eqjH/1oKgZ0bqa2cFVe73Of+6RYKTBhZTczBLruA9jDGkt83L3uda+cj7QdY1fYth8dI1P3ShmOZ83Xvva16rTTTqvOPvvsjJM6WvqlHnAf7LrrrtUzn/nM6uEPf3hnehTXdLdd94baH9Kj/X7yqZfyo20/v+X5kkd5XvukC3mD/JE+pR+/ZXsySloU56hbnudPeMIT0kKasM94xjOyTEnXMIpM/PFrO84NynfpH6vhK664onrLW95SnXfeeRXHqkvI4Mf7zF577ZVtGQrN8t1Gsv7whz9Ue+yxR/WFL3whT6211lr5rsJUOshDziCmpBn+ar+GST/y5B9FMMxuueWWbFu5F3Fbb7119eEPfzg5qQ1UmPRQ/IllWRfYL88X3hfaZbqOAw44oLrgggsWulaeIG98aOAD4fOf//x8fqLUnAmHbP30DIA/5aN8DMN2JtJiGSawJAhYgbkkqDtOEzABEzCBsSSAMpEfDssbXqb1wq7tKBkjjF60efH+yle+Uh155JHVt7/97WZRjrY8XuJJA50IFEt0jo444ohqk002adLSDsOxXmzb1zhfdira1/sd6wVZHQYdl/6RPR0ukiHZHCMfWeooyU+/LXEr/jINhB+m49hPbvs8sikTtkof8dK5+utf/5rpZcVQlNNcJx+kgXLXti2TY9WL8hphlS+2XczlH4vAV77yldVZZ53VWZeImzTSEbv00kurV73qVdX+++/fzKklOWzxS17kyG/bdaW37Ydj+SP9lC95YNtmo7D4E1sx5RydQ/HjeFSndChc+1jn+21JE+773/9+rgBbpuEHP/hBKgxQBMy0Ew/SqxVoKQ8UXnAUU6VvpuOfZHmw5z6GNY7FlFhMQ3UH9rhB92V6GPBHHEwH8Na3vjUV9FjJdTnqPmn59a9/Xb3uda+rTjnllPwQsffee6ditSvMdM6pPrXDqh7qOse4fnnXdbb9/LTjUB3Wfc51MUYO3HXcDtvvWHEjU2nv51fn8ac2SOeG3ZJOPnKo/aTukG7ODxs/camOEY60kx7lZVBa8IsS/PDDD8/Fp9p+uY6jnh111FHVmWeeWX3iE5+oHvzgB/fIJ63ETfqVFxShcqQPWUon5/HPT+kkzbqOPPnR9TzR+iO8HGEJx480SIGpd7JSvsL028qv8sXxsI77TnEOCgMfPkLwPvfpT38679NHPvKRg4IMdY208oMbH1FwcKKeqTyHEmRPJjCmBKzAHNOCc7JNwARMwAQWLwFeDMsXVxQovFDzIsnLIy/CejkfJWXI5WX4Pe95T3XMMcdUN954YxMcBcXKK69c8ZUdJRidB+Y5YvgXL+9SZKIwwcLv6U9/erMycSPkth29oGtbXkehpxf5QZ0JhSG/kqMt18gL4TmHPORybjpckIccxaWtlI+D5HKNsEqb5JAm5W9QeOWFcITBET+uPFZeFRdbyWe/dOUxfpAnv6U/9vGrPMifwutY/tphOcZC5dBDD63OOOOMRg5DBddYY40ccoYF2bXXXpv1iHg4xqoShQzWJcO4fmkXJ6VXsohHTtfaW66XcglTHit8eys57fPlMelS2ak+Ip/zhOc3TFylTBSHH/nIR5q6oWt0rk8//fRqq6220qkZ25JG0koeWEgMRz6kVBuGxYwlZgIFwVqKG5SXslTjvNqmUbCo7hGGushUDzvttFMqPVRfkcv0ITwLpLinjnEPYxFGuF/+8peppPrhD3+Y97LmR+1KC2nF9avzuq661iWDa8Qrh6zyWOc5xzXlZdR7TOEkD1k4baeShz/d75LBlnQRlrx2XS/9Ki6dUz7b53V90LYMU+53hSGervRxfqo0I4+w3/zmN6t99923sRrmPYLpLVgAhnqFsvyqq65KhSD+mapg9913T4U4H2BII/FNlVbi6+KpcMjmuuQhk2PKlx/7XU5xl9cls8v/VOcUVvWqTAdMSSdOaZ1KHgrE9dZbr6c8kMG0D9yTDDXnXe3cc8/NMuB5sWDBgqnETnmd9PGjPcCRDxSYytcgplMKtwcTmOMErMCc4wXk5JmACZiACcwdAigs9IKLskedCF6KyxfsUVKMDL7OY/1AZ1SOYaj77bdfxRBfOqO8qKJoQnnJV30sdH7605+md6ztGAbMkNqnPe1pEtGz1Yt7eZJzZR7Ka4P2FQY/pdzyvHiU5wbJ7LqGbHVg2Kqz0eW3PNcVp+QoXaX/rn1kqDOg66SH8Jwv49B5/ImHtmVYnWOLDB3Lj7ac17V2PDqv/ChMub3kkkuqU089tamrWNO8/e1vrx71qEflxP90dBhSeOKJJ1Yf//jHMyhKGY5f+tKXpp9SXtc+6eBeKNOHv/ZxGZZrun9Kf8oTfsv90k8pp9yX/660tP2V8sSvPFf6H2b/V7/6VfWtb32r06s6rFhqU2eUzk7P0ziJPBRoOOoSH1dwnJ/puFLwhP9RX+DMVpZfKIP44ahHqlPTRUV9evWrX51KJ8lAQYolNUPEH/rQh+a9SfwoRi677LLq//7v/9JijvrPeRQk1DmmWpB1lmRpS1qVF50rt+U9MVU7Jb/95IkbyjLSKEb4xw3bHit97bo9jJx2GGSpvJR+ye/almlGlo67/A57jnQPEzd+2unvOtcVL+8TTGOiKQ94h2Dqj3322SfnUCUMH0z52II/rHlxKD2ZxoZ3Cj3vhm3DyrSW++28co1f+3wmoPhrX1e4wkvu8m5GGketT5Lf3rbl9ztec801kx/3GjIoV9piPjR/73vfq1772tfmRwnC897G/co9vqgODuSV91A5tUs69tYE5isBKzDna8k6XyZgAiZgAjNGgA4LP15OpYCh4zrqyzIycLx84jhGAXLQQQc1yksWZNhll13yHHNLlXEw3xk/5jp70pOeVL385S+vvvjFL6YsOh+HHXZYDiVHRpcjPjosDHtlLiy2zJPIi/cKK6xQbbjhhjkX4jrrrFMxb6PS2ZbF0HWGJsMDDjvuuGMuKMELO8pYOtbMx4TFENYJG220UbXZZpulJSlpkFxtS/lcx4IQGV/+8pcrlHFYidD5WhCWC3QYyPsGG2yQ83aVYbVPvj72sY+lpRRxbLHFFjlXItZJn//853P4/aqxiA1Wr21H/NfFQjfkhU4cSmLFTxjmHiX+hzzkIU3noSyjT37ykzm0n3JVXcFairi+9KUvNdE9+clPTqVE22qLjhiLBNCJJP+kBR5Y45J35jx99KMfndaUZbyN4NhhzjxZ5FG2dE6JD0eaUHBQJigsiYuFonAsAsA0BprvEvbM5YjSvHQMM8T6S2VJutTZLf1RP7AoIy8o9MgLylPqGgr6pz71qVnnqK8MW7z44oub4EylQB2EB/F9/etfr77xjW9knHhiMa13vvOd1Wc/+9kMQ1qYX455RlWvOIdDBulABnWX+UCxkCFerIxIBx8KyIc6shlwwB+ykccCPjjiREFMvaUDi/KAe+SFL3zhACmLdknWf+o0K7+LJtWh+xGAL6zluHfLe7Dcl59ht9RR2m/mrJWjrTkipgdhnlfKWvWafeouC/lQ52mvsaBGqUka+ShBWObeK9NE2rnOOeKj7pbtDPcU9xxtG20c9Zk2t91GKX3E9453vCPbR+Ri4c0Q9p/97Gf5XKK9o/1E0Y7VHz8+sHGfqe5KVteWNGIdSPtE+4GClzRiTc5HGZ6DyGNuwXY+YcXvhBNOyHYH+Tw7sTCnPWbqDFjz/DvkkENyKpZ2GogLi0QUT9zrPGMZ9cBz+RGPeES2xTAiPTgY4IiX5+yxxx6bbTdtjRwfjvgwiV/8YUV94IEHLvQs4zrPUOI///zzc8t8muSTD5oMRWbEBWWveRAVh7a0eWrbOcczmKHkmnqC+Em75jN+xStekW0X3JmihvcQ0kf6P/ShD2VZUB5ysDv44IPzecI5nisveMELspzlhy150TOdvNBG8tGVOswzlfmXmQqHxQlZuPCDH/xgxknYxz72sdW2226b+YYp0yXwbCONcshDyY8jT7ThzPeJU5mIN4pFRqzwbGfLs51r3EslU+YERdZUjrhgRF7wr/hYXIf7iC1zJHOv4OBKWod9zgyKn/hKC0x9xCJMeT8MkuFrJjCWBOJGszMBEzABEzABExhAIF6W63gBr0OZU8cXb3op9Ytf/OI6hgjVYblWR8dwQOjbL+EvFEjNiegg1WHxVsfLZspku9tuu9Xxspt+iHeQi7kL61jxOMOSpugU1ieffHJPHMSnXyiI6lDw1NGBacIQrvxFJ6/eZptt6uho9Y06rPnq6NRmOGSFcq5+yUte0pOWUma8ZNeh5Ky/+93v1uSJ9JTMyuPosNXxwl9Hh6AnXaU88hyd8zo6Zz15VYJDgVdHpy7Dk87o3Ndh+VBHB7uOl/48H4rA9F4yjs5pHdYodSj36lDM9o0/Ol11dPayTpD20kUHvm+4Mg+vec1r6rCYKINmub/5zW+uY+L/gTLWXXfdOhbmqak/XS4Utk34UBbWoYzt8pbxh7KjjsUb8heWOXV0MLOMCBBWnI2cMu3t/VB2NOUAT37cF2ENVocCu6nf7XChLMn6HgrFOoYt9sQVyopMM4xCOdpzrS1Hx2Ht0tQr1TPuJco/FpzoK4P7jnRy78C0XaZd8KITXcciWo3MUNLU1LtQzjTntttuuzqsnxqeXXKmc464Q3lQh9V2xkVdZT8U0DMe13TSNx/DUA95BoTCvClf2qBQuGRdH6bO9ONC2FDCNM8W6jPtaihYMkgoJpp63SWDdHH/qG0jPG1YKMC6vNehxMn6UtZV3UPack+EQqd+17velXW4S1Ao1Hraqsc97nF1KO3r+BjQMJI8tqQvlJh1KD1r2tpBLpRm9UknnVSHEqhv+4G8+JhT02aWbSk89XwJBViTFtp/nmvct3qO87wLRWaTFMLyo03imRZD95vwZV7YRwbP01DU5n1XxhuK25o2oR2mfcyzDI6ELV3Mm1g/61nPGvisDuVYPqt/9KMflUGb/VD61qFca9IQln8Zj/LYeIyd+EiVzzQ9C0LRWYeiN71wLRTijZx2HnQMy/iA2bCXfNIXis06lIKdMkKZl3WN96sLL7yw5pklmTxP5WCq84O2cJejHvDjeRDK+joU/nVYS/aVQx54/wjl70Jlgkza3fgY2ISPjyp5rJIAAEAASURBVL51fKxSdD1bONM+cC8qvTyH9H7X43nEA+o7aYmPkymb9xyef9zb5NXOBOYzAb4U2JmACZiACZiACQwgwIsoL50oZNQpidU4U4FJR0wvyOo0tUXpJZrz5T6d1lKZGEMEs+MkOWx5Ge33QspLbFgb1mE11/zCQqKmwyuHDI7DWq2nY6AXajqBZcdX58MyLZV57Y4VcksFJi/OMZ9WTSdEYaWQ1TFb4lAHUmnTVmkMq4ga5WA7PXQUUYK25dEZoMNDeH44WJUKTNISlid1WFj0hJcCU+FQuIV1zkKKU9JCJ1AKW6UBuWH9U4cVU09HZzoKTNIQliD19ttvn0poxcEWrsTfZoKyetddd02llTiyRVbMvdjklU5jWB2WXhpe+IUXdRilGFuOxWQUBSbhqGdskRWLAtVhkdOkQ3kiH2VepChBCSo/bKejwKTTLUceUAygRGyXHcddTFEElh8QkEV+cO37gM5j2SFHkRHWpamoVz6oy3Sa22FT4CL8wTcsmOrXv/71yYz80Hm1AnMRoE4RVApMFDQqX5QyKHcoD90zU4jpvEzbgyzJ5RlD2aresC3vy7YQ4kZxwX2uZwH7KDZLx/2JEigs3ha6J4i7q93mnghLvDoWeVkoj20FJh8kynuin0za8rA2TcVvmT72yQv1eIcddljoIxLpQ/lUPmuIg7Yw5vztVAyVCswYEVDT7pf5lAJTjNmG9XwqWkt/xMNzSIpPjvVDkRhzUKcSVfVgFAUmbQnxEpYyQpEX1oiNfMVDe9r1YY33BpSVOOTgqC8x2qDn/WLnnXdu6ipxqW3DP8e0//pRJyVrFAXmZz7zmZSFPMKH1Xwqucs2X/lplyMfLcPasqZM5GcmFJik45RTTqkpf8nVFqZ6p9M5trxbhLVkDyM4DaPAVN7ZosBEySnZKPcpY9ygezo9DPiTAhPlPbJ5BsRInrxPkauyGyDCl0xgbAl4CHnc9XYmYAImYAImMAyBeClshgXHy3fPkCGOB7l4U2iGH0bHKL0ynFXzU3EilKI5pFVy4qV/4FAj4gxrvBy2hHz8x0uzgueWc1/96ldzeCJD0uQYxsfwO+ZVi5fhHDLNsHKGWOGiA5YrU3OdOPq5eFnOYVhcZ4hgWI1Uq6yySg4BY2gXw5mRT/oYuhsv3Dn0NzqCjUiuMdyNuaGujaHJctGJqP73f/8308g5/DDUmC1hGBLOkECGbTOMENcuB3jAueQSVi/NsD8xY8EbhlSTVjmGUjNkmyF7DKNjWDjDghkejDyG7zPsk3nnohOUwRjuxtAxhjzyI50aWldyZLia4mZYNUMdyUd0blIOfEL5lkObQymQQxIZysgQ/ehkpj/muQwlWcXQP+LAER/DK+VC8Z7z4TE8j3IpORA/P4Zzcp591U3CM6VAWHrmUFOGispRJgwxlRN7wnKPwJJwpFOOoYoMd2VKAfwxNJLhdAwLZZhjdMDktWeL3+c+97kVdSE6xzmcEg+hgKzCkqoKa9XGP+kl/+QDpm9605uyvKijCkP5MASfIX8MY2RoqKZDoOwZKkmdj45zlmm7Pikyyh62ONIIE+oA9Z/pC3DR8c86wzDTmXQqtzJt5Ntu9gno/qEM4F+WwXRjp54w7YUc90h8zOi5F6eKh6HfYQGZdR85up8lk2Paf9orpqZQPrj3aeeY0iEUR7nwyAUxvJqh5TjuCdoZFn0Jq/Fm+LHklttQmOYhbVFY8efw5vhAl0PKP/WpT2W7jYdQjuUiMTx/SHPpiI+2Q3Pzco37a6dY2Igh46SDtph2kCHqoTzOtjCsNbOd5hmqtoS2qLwvQuGa+VN8tLG0XaSXOGDCwis8h6688kp5y6HNDMenXUAebRZthoZnM/UGc1gzhJ7nBQ6WtOkMe6YdIs04hnyHZWfu80caaIsUP0PM4Uw65Cib5zznOTlNC20Zzz2eFTyjcUwFwDOAeqPh7NQX0sCzTu8YDN+mbaLdVH2CkeIWN+p2WX94/iCfto1nHfHjiIsFgihjHHnhHUDh4c30OOWwc+LaNKZEYGg4z1VYsko3dRJGTBdSllkKvu2PofLUDdp2hq6TdhzD+eNj3m2+Fn4HYDoYmNLey/GsYJE1np/klfuP59Z1Mc0Jjjzuv//+OdScOkJcYpYeWn+6n8gf6Vcewvq0qfcE2WSTTZr6OUheS3zfQ5UZHpSGvp59wQTmC4G4wexMwARMwARMwAQGEIiX17Tu4Ct+vDDmF2+GWsWcWCMPIY+XzCYmhjPF+0T+GPKMNSVfz0s/jec+O/gnfYQpf/KO9URphYL1S8zLl9ZpWA4Rlh/WYwxZjM5Fj4VLdG7r6IRJXG5LC0ylP+bRSovU6IBmOpDJELToFPRYPpDP6Hz15JF0MCRfsthiiYEVi+SRNywXGNrFEK7oKKR/rG+wVsKfXGmBKZlYX8S8WCmToZXRWUp5pJNhhQzLll8sahjmSPq5Lq5YpVBGDDeWX9Jx2mmnNfmR38PDGjA6KOmPPGtona6X21CG9VguYf2KNSplovjZMryZIZqhiGzix/qV4Yali7kr65inrfETHco6Ot/10UcfXTPtANaekks6cGV62scMK1d+2cKx9F/uU4dKlpRPLEBSR4ewGWpL3LCM+TfTWhQ/pXz2scBs1+3otDbWm1jpYHVE3GVeOMZhPVNa7cIUzmWZEo4h3kwbUDJlH8vJfo5yIE9KM9Y65Ju4qVfUH12LDutCVjz95A57HispylDWN9QzLNBkgQk3u5klQPsCX9ozypZ7ijZLzwDq0nQdbUNpiR9KoazTyORHu6d63RVH6U9+y/tC5xiSrecXeWCqilAsNtMcEAa/1K1QuvVYwmGxTJuEH/3aFpjIxMqeYfbc33qWwe5nP/tZj5UpfrFgR5Yc+9y35RBiLOcZ+YA88qm4GRHx3ve+t8d6brXVVuuxOsVve+hzKNlyaDaWgVgxU6Z6duCfqT30bCGNTMfBMwc/ipt8wYg2PpSfzb3O85zzOPnl+RuKvsYPz1NdU7mpnaPtKK3nsbZkihmev2JJWNJCvYsPOz3lGXNrpoWleCKvPTUH+WcIfSgKs0x4xig92pbpL/fJW8y72eSF+gNDhdOWMOStbK9hyTP4/e9/f8McP9Q3yoCpCtqjJAhTWmBKPs/v0hKVdwVd05Y04JANc2Txw9qSKUmQIe74gynPHKbP0XMb/4wkUNnjr22BGUr1fI7BQT/KhpEwTFvDFAiKmykbeA7OhCNNxMc9jXzSTFqxlOYabO1MYL4S4AuBnQmYgAmYgAmYwAACvAzSYTqlUGAyXyAvkLwsTscRrlT0hBVBDjciLl7CR3Vd4ThHh6FU5NAB4SUcRzz40T4v9CjomKdML90MCZTyLT3GX1uBiXKIoVJth2w6ngxvLZVUDNVGCSNHnGHl0MTJ0NuwgGk6rOq84Z80h7VGDjWnU82P4bt0puXaCkw6mXAoHTJxbFHItdPXb35JwjBMruyU0slFEVa6WHyj6QhJgVlehw0/4qdDKd50nkkr18ryISx+OR9WKD2dbOY2Kx1sjz/++GQjudqG1Ut2QhnCCUeVA3GV8ekYuSgVFJ5tWBalX/y0XVixNvnGb1gfptJY8rRVuGuvvbZm7rxSPvt0JnHiRLhYbKNTgamylEzCMHRcMqn/p8S9K6biKP8cw1T+2cIH15bNORTG1FH5Z35XzRdHHHwg0DU6lihAZtJJgUm9JR7igA2d9a70zmTckyqL9pq57lB2wxwFJkOrUVboHpoOG+o1dRN5qjPMKVw6KSDLc1377XurvHd4fpXtOgog2skuRzjqEco8pYktczJynnjYthWYyGROPj0TkVM65kIslZMMOdezCH+EK+e7hQlzu0peKUt5Q4mn5wBb2ubSlR/vyANKU57b5EEy5J/zCxYsaPKMQlTzB8u//JJ/7rett9668Y9yjDa1dMyT3X5W6Lo465gPLHyQEnOG+hO+y5EeeDJPqfzrQwppkwuLwp55eeWXsmJuxp1jWPmHP/zhbG+ROcihHCs/ulKfxFLhyBNyaL9jJECTNhTnKCnl5E/HpJlpbsr7gLSWCkz5hXs/Bab8qGwZRs/HLuWbdwXSRhr54a90KB7D4rXxTx6ZJkaurcBk2DvTEsRCcM1vs5iyJixte5TbKC/5ALAobYXSwJZ7AoUyH1rJG8+AWByoGUJe+vW+Ccw3Av8dwxY1384ETMAETMAETGAwgXjhbYbphKKpGa43OFT3VYbbhXKvuRhKrlzRe7pyy3DxspJDnqJTkKs0K554yc1VbRmGh4vOQg4f0z7X44U9h44jD8cwWYbqxYt+Hnf9MVyQ4WBthwyGlTFsl2FycmGN06ySTVoZ4s1QOxxpYOVmhuMpT0oL10nz4x//+Fyd/NoYbs6PlbJZGbafY4VThkmWTjLJF0O9Q0mQlxkGzPBhhhWSti5H/AwBl2OYGKt5D3JtWeSDX3TGelYnRy6rpnflnXPIYSgfUwDIMfSfoZRy0bmrwkI4hzAy7DGUs7qUq+6yEjsr5D772c/OIW0MDxd/cVH6moCtnX7XGSpa1hVWjQ1lX+ZVYdjKMbQ9rAdzSLjOlVvSIxbleWQordrqOsMvWUFdjuGCDFeVHG11nTpHHS3rsPIh2So/8nZBDLENhX0GJyz1n3qOI10MJ4+5+vIY/9RP2o6Zdkqb5Jbcdc7bmSNAHVA9KKW2y6G8NtU+8kIx1CNX7XMZtrxnyvPlPn5Kf+V+LODW1FnCMEQ9LNnL4M0++aFeh/VfrkSuCwzFLdu5NouwPM4Vl9XetLmEZXO2XZIXypycVqQ8DiWPDqtYQCfbYslrLsQOsvl94AMfyGeAngX98qSwYaWWw6rFqmTEFB2UBY7ztAlMXaHjMj/sM2yflbolg/wwLcawDhlwxvGsDqvQJn7yzIremp6jLZM448Nhz3ONKVrCErxpFwkDc6ZdYToShoLLhQIs28gPxorfDLvfYIMNcmg706TwLKRsabOmalPIg/KPbNUJpiAI5aaiy2cNq3HLtcPBgTTy7BvVSVaZDvZJC9PnMHWCHOUVSvRMM34IWzqmX2GqE8miXlHvla/SL/th5ZrPA8pdv5iXu2IqAIa6ky9Wi2dKBJ5BPJtn0rXTP5OyLcsE5iqB7gmH5mpqnS4TMAETMAETmGME9KI7TLLUKeh64aaz0O8leRjZpR/SxIszHSrml5KjAxNWF83Luc6XW9LG/IZspXRBBh2scr4lhcHfggULmmsKU15HSYViUA7lLfJwdJZQAJJWXFjR5DxhZacVLiVn0sH8XsO6GJqWnc3Sv+QRv+Yy4zqM6MgSJz/y13acl1KYa8wbGpZYORcXx11hOF864ocV85eF9V5zCcUpCslBHR3mNCuv00FjvjE6q+oQw5F5wZhjDgUtigGUGHSqcHRMw8q0ipXhq5e//OU5BxlKTebvnK5DZpsl802KdZdcWMW0BangLjl0+e061yUbJQuKdzlYMWdlWad0TVu4SOnIOeYlRAZKGZzqIPWUuThVz6mHYSmVfvgjPcxFR0eYOWBxKDxjioVUnFA+CjtMPUkBff668t7Hq0/PAgHx13a6UbTrgdpGyetqd3Vt0Jb7kbTx4z5Xm4U8ngNhmTwoeH4UYt5JPUO4H1DMoNSjHrfzzVyI/RRuRES8YdXYxMl9wHzCcigP9WGAc3xM48Mert89wz1b3rfpuc8faWYOSrWR3NM4tfMo//QhiLYC5RRzTQ5yYc2X7QoKQRx8puMIT1iliToRFnapfBwkr+THswwlZrtcUE6i6I3V1iuUazHEP9s3ySXP/GJIfirh+KDEPJmUV7tuKkzXVm0k15j3kucLDt7UN5Vlnuz4QyHMx0HSJw4d3oY6BQNklM8jAvKsRqHbz1HP+Kio8DwXwoo165/qTb+wXee5B1FMH3nkkTlvJ/MhiylxEU+7vLrk+JwJmMDtBKzAvJ2F90zABEzABExgJALTefnUizkv62UHkpdmdTBHSsQAz3Ro6ATJqeOp435bKfxklUcnTR3IdhgUbihx9BKubdmZwfoSxSBKNhwddHGg41RaSMCknDSfePXC3457mGPCYnHRpQQgDXQcYS9HnlH8TeVgK0ceUCoq7zo/1Rb/5L1UWLCojBQGg8Krw4wfwtORXRCKZDpMODpb5I8yR5lGnshnrFKcC+FgoYiSDjmEZ1EKFIgxRLbHWjaFDfFHOdHhl4KUICgLSkVrPzFYL2IpGsPz+nkZ6TxlWPIhz3Qip3JSouOP/FA21FtYqg6iHEURLMfiGihu8C+FEQp7FqmQAhPFBB1pLHsoE/x11UfJ9HbuE+DeVZ1YlNQiB0tDtmoTaSfV7qlOcZ1zoypR8M/9zXNAbQP1NeYjnFIW9yVWfsggLPeHLBS78owF86B6DS+eFfhRm1e2o1jsiQHysTLHH/GT/0V1cOZ5JUd6FB/5Q7kFYxztB0o/FvUa5AhftjWD+AySgwwtoIc/WMccm1PmW+mV7PJ5r3NsyXcMd08LWOSi6EShiYUiC9boGYiyjoWeaPfwPwx3GCgdMKXMkKdzfEwrRwyU6Sr3CYu1PvWTZ8miOtJVWoEij4V5pnLUBaUdv8pL173HInKxAn0+M3WPkn/emWDLokRYccKahaFYBEkf9VT3iKtL9lTp9HUTmFQCVmBOask73yZgAiZgAkuEAC/pvOjSiVsQCqeY/zHTQcdBq7guasLUoeDFuOwgojSdyunFHaWjFJgo6Po58kKe5NThkRyO237kly1pLTuAcKEDwxYZ4lWGGWWf8FjoKF3tsKXSimvEOR1F8nQ62aSJ+NWRIX46P/xGdWX8ZXkgh2swpUyx0mRoIpafKCtZIZf8kgamCsDiKBYnGTX6LKc2S+Lsx70dgSwd2+enc0ydV/0j/HSZkvZ2xxI+UgTRMY/FfJIdzGGoMAw/ZcVcHB1gLEAZSsj1dvmkJ/9NJAHqA9NfoDBS+88zQW0C9Y/6pno1CiTaUBxhyzYc60I+FKm+DpKJP6UB/2Vb3Q43Vb1W3Wfb5co0cp32SvfVVLK75LXPcb9KjtqH8rh8VhJ2UF7bsnXcL2+63m9LOtrtZ5tHv7Dlecqc+lK2W8oraUORyY9pCvjIwocvhj7zHNC0G3xIigXCcsgzZYBDhupkGR/7yC1/+C1ZkqZScdwOr2PkU0bDfPRSmKm2bYbTebarjnTFRb6wFObdCgZ6NmD1yrQ1MTdmTsXA+x1T58QcsTmlCPkUs0Hyu+L0OROYdAJWYE56DXD+TcAETMAEFhsBvbAqQuZ7igVy8hALPubdi4V9Bg51VdiptrwU01FFiYRsHC/QuHYHJ0/e9kcaGfrFkGg5OtiDXrKR1+4Mlx0oyena0rkhjXJ0OLCagANpmU2HfDpodJjUWW0PCW7nq50edbqwVJqOk4WfwmKJSN4H8ZZfbRmap3nzxIwy0T7+JI9z7GMdyTyjscBEddBBB2UdQdFHZ5b58UrrYMUz1RZ2lLsUsFj2qEM3KCwdXqYRmCkH03K4OMPiGQpb8pgqLjqmyy67bOZFiiAs4+AjR92h08+cm20HAyzY1IGOFWkr5gOl4yo3Vd2Sv1G2yJwNuaOkwX5HI8A9z9BqWewyDyH3A9bT1Nlh29J+sXK/00Ygi7pB+97PUq+Uwb2LJZnaRu6pYT6ClTJG2af9KB0W4mq3yvMzsQ+HUjb3uJR1yCevDPdlNELbDbq/aGdwsBul3EhLyZb0MNcxz6ZR2q1Ydb0nX0o7MtpyaHdpK/nYwlQjvI8w3yOOdo13ADFph5Vcbcvr7XqCZT9TA5R+FK69pY3V+0r72nSO23WKvI5SLsTJ8PdBYciX8oY/PfOoJ0zHw3D8Y445Js9jvQ/bzTbbrAkznXx1hVG8Xdd8zgTmEwErMOdTaTovJmACJmACY0WA+Z5QDmro2AdjQn0WAIkVyYfKB1YOseppz3xWdISZU5AOEC/TC8LKk7m9cFgB0HkdNGcYL+IonqSEIpwW1GG/yxGPXuC7rvc7RweKuTE1qT4v/FhI0GnmZbzsGPSTMWpHsS2HtMMMi0Qcna9YlTX50akkjf3SoTSSbuRM5ZCFKzvOWESWFieUfaxC3KPUJcygdHC9dFjQSOlA2lFulnOQyi8KNixEYvXXHN7GeazAGAY+qgKT9MGAIYBiSTlixctw1UGO+l8qzAf5HeYa9QkFpCzaUESQx0H1XnIpS35l2XONcwwDjxXF5TWHvNMxHcbBgrlVscKEk8pzmLD2M78JcH9QR6XAZKgpw5ff+MY3Dp1xFETtxdZYXArLZtoApjWgbaNdUBure7ZfJDwrGP4qR5uAnNly3Lel0r+814aJk/aY+5b8TuXa7bUY6WMWx89//vNzYZuyvUau7l21E11xteV3+SnPUTYL4lktRzr4sITyTK6dDp0vt3omcQ7FIe0v6SUsH0/4KCNXyoM9i7pJgYkcPiSiRMfBYxDX8hpyUfyqLLEsZcg6da981ikd2vI+Q5m3LVF1fZgtecWRBn58WKTdlaO9ZkqVUVzJdJhwKnu2/PhAAQvKA+UsH5Jj5fJhRI3kR/GOFMieTWAMCdw+5msME+8km4AJmIAJmMA4E0DZw4rbevHEkuu4445LBR754sVZChWO2eccjhd15kvcYYcdqn333Td/BxxwQCptJI9tucAI1mB0jOkoSLbkKR4WakDZo/OSISu0jHyG/uj0IJ+Vt2WFifKMRWdQPpEm8qm0EC37KLxYcIBhbyeccEL1wVD8MkxXeRglecSPlYQcc5jBFVk4bXWdLWmjo3f55ZfnD8WwOk5cZ78rXNkJJB/4oTNVLmzBXI1S5pV5VweRcCgoWZSDH0o1+Sdu3D777JMKEZQiG2+8cXVhLNzQz6GoLvliqTXMcL+2POWNlVblkMuQOTpucuS5ZEOdZBX0Ua1ukCGG2ioOhvSVllNYvKDgwZ/Kif3SYfkDT8oVRRLH6uATF/cMiytRz6brPvaxjzVTBiBbZTpdeV3hVA5d13xubhKgbWUhLbWB1E3uCdohtdVKebuuc0x7iLJr7733bp4FWPajFMPhh49lUuBTn88444ym3eC6/OXObX/cN0x9IMcclxtuuKEOZ3xL/mmz5FDklvPN6ny5RWnLc0DPAu7h6TqGVMtCGmUbc+d2zcWodoF4sJRVW0zbQVsHX379HNdod0s/KPZoq/XhCCUe7Q3+uu5pygxFNIvlKH4+POrDFXFTf7Cs3GSTTZIr9aNsi9vlXioOeS5inY/rl5+u8zpHOZaL9mCBrulykEncZf45h/Jy0AI7+OlyipNtyYpy4mOu7gPCMsqFe4rnAL92OcCHOYtLpvjHtdObJ1t/ZVoUhncqseY6ceraMDJbUfjQBCaegBWYE18FDMAETMAETGBJEeCr/G677ZZf6EkDL7Nnn312TjRPx4SXcb0QS/GCP16osSp41atelXNYoQTihyKQYWDyy4s7CiUWL8AhC+WkVubUy3PZmfj4xz+eacgA8Yf1JZ2AstOma4u6VWeDjiPKXDkUmBdddJEOexQ9pPW0006rXvGKV1SvfvWr84cVKh0u5acJOMQO4bCK0xyMsMNKg+GLpSNe/bCMwoJis802SzZYbCpu/JAvOuNscXRY6Fgqv5zTNeJHCa1j4qUzjkIPmVwv/dPBeuUrX5nxUi5PfvKTs6Oanm77w6oXRSw/rGhYOECdsNIf6UJBIAUoZcxwa3Wi5VeKDx1jmdXPbb755j0rxFNWzBvZ1WmD9fnnn1+dcsopzfV+cjlPulQP4UyHG24wEj/8oYDF+kwOi9CTTjqpYUC8yGELYxbroT7Bkx95KBf9wQ/cWX1cDks0lE6DfiiSy6kFuO9++tOfNnVFsrw1ARY5YaV6WajRnvNseP/739+051CirlMfqbvcA3zwYWoCFJYotAjH/cqiXbpvCcOHEhRZcijp+ZhFeN1TamuQj8L/qKOOaqyYCffc5z43hxxLxkxveV5ttdVWDQPu77e85S1pRai2V3GSf6wL99xzz+Y58JrXvKZHWSW/w26ZVmP99ddvvMOUxVdwYs6WtLBFIUc7o3Zjp512yg8fXJODrZSinKOMdF1b+WVxF7UXxEG7OEiB+7nPfS7n4FX8KLHLtpnyh5OeBbRpKKWRLad95sKkLZbDIlPTknCOtKJo551FjrCl0hM/xIeDJe8jcjzXjj322Jy6AH/tNhsl/Otf//qFnrsKX25p61W3OV/mue0PpXBpccmCO0zRQBr4UT7kQ/cT5c1ia2J68MEHN9OA4H8qhxwxwC91FK7clzjeC3inwg0jLz36zwRMoJdA3Dx2JmACJmACJmACAwjEC24dX9Hr6EzW8cLLW2y933771dExqEMxMyDk1JeQHVYudVi3pFxkxwt6HS+5dSiy6rDqqGPIUR0dgDqsPepQXNbxUl1H5yL94Z9fDFOqY9XLjDBeoGvk8gsLkjo6sz2ywzqtjtVVU15Y89Vh+VnHytd1KGPqeMFu/EaHso7J/OtQvvVk5O1vf3sdnZn0h/+wrui53nUQVnGN3M0226yOF/vGGwxj2HQdnaPGT3Sg6lgEpQ6rjDoUTHVYviUH/MW8Vo0/9qODUJNnuVAC12H9kX5IZ1gB6lLnlrKNeaoamdG5qqOzX4diNNkQN2kIpXJ9xBFH1KFIa/yGcriOYZZ1KAgzDaSDX6zq3eSH8kR+DOWvQ4GV/sm/0kz4UOI25RnDvetQatbR0aopH+KPDl4dSoc6Osl1KDkyfuSGIrUOBWRPvkh3zF3WpJH0hrK3jg53HQrNlEU6qAPUBdUh8nLppZdmvSFtylPMl9fUe/xGxzTrJTLC+jRlUoa6T3bZZZdGJv5JS3Su67BqqUMxkumFRXRo61C29vhVWmLIdU+eOPjoRz9ahzIg/XMfEk9YwWYaSAdlJEc8pFPyqFuUAfUcppQ59y/53XHHHWvquvxGBzbTqDwhM5SwzXX8HXLIIXUoNfv+QlGR16gvkku5ve9972u4qvyV5mG3oTSoKZO3vvWtKZv6SnqoI4vaHg2bhknzRxvIfRgK+WRO/dt9992berKoPKgLlOnOO+/ctAPUm1DGZ/38/Oc/X19zzTX5HKC9oC0Ky/O8/8u6Sz2PlZbrUEw27YvSFtaKNfe46iP3UgyTrkOplXK5L3jGnHrqqfV6663X3PO0M2FRVxNv6cJKuY5VmBt5tOtTOZ6hSi/tHPeVHAxoU8JqsJHJPRMfmLLtoJ3jvqWe8xyMRVIaf5RHzN270LOKdlX55ZnK87DL6b6Jj2d1fMxqwvCcPfLII+v4CJLxhvV9lnkourJ9gQ3yyVOs3l2HoqpHPG1SWPg38mjvQvGYzzWe67Rbamdob+NDS8MHuWGdX8cHsuSi5xBtW1gq9pQl8fMcLtsU4n7e857XxE1aY47OOiw7s7zhCNNQbCY7vdvwzIxRHTVtWOm4B0LJ3siL+TPrE088MdmQD360iXK81+g5TF6QG3N01vEhKPPDs4jy5vlNmateqLzYhtWoxDXb+LhXx9D6Jh28A1xwwQUpizpKOuDAD6a8w9BGSu6CBQuSH/xhGsrbmnDU+/L+oO6FxWbzPCQB3CPx0bCRxX0Slq819wI/ePI+Rb7CAnahZ0soVPM+bzIzzR3KgvbiXe96V6aF/MWHzRl5J51mkhzMBBYbAbT/diZgAiZgAiZgAgMISDEzWwpMFBIxpC87K3rJ1pbOFC/JvPiipAzLg+blWX5i0Zfs0PGy3na8xKP8DMuSnnB0Fugc0bkKy48epSByeSGmc9vV4ZtpBSZpphOBgqnsaNCBQPEZc3PVW2+9deah7OTQAUZxA7/SjarAJCwdjlLJCgM6aCgy6QSSBjrA6uRxnY4THQh1QNV55Bh5Md9YD3M6TjHHZR0rlNYwpLyoW/iPxWFSKa0yZYtSG6XAdtttV8dq1/WKK67YIy+sAGuUEsgoHR3PQw89tEfRijzKO6YUqMPCMPMKX8UHSxSKOHX82PKjU04dlF+2dOzpDJOXPfbYI/OiNNDBjrnTevzTeaZziELhCU94Qo2CWiwp05gHsMd/lwITZT7xlumIOUSzXpCOk08+WUlIJigjyg8DhIMhdR6mKCpJRykPpnwIKMuSziJKTvmj3GN4aRPXoB06t2WdRumCPMpecQwK33XNCswuKrN7jjKbbQUm7QAKklhoZCFlDsqfsNJMxQ1tSPnhQfWSj0kHHnhgjYIH19Uu8FGs/FBEWNopFELcF2GttlDc3GN8FJE86i373KMzrcCEAYov2l7li20MZ65jGHzet7RfpZKR66SfDyTte2pYBaZqD+yOPvromvawjJ9nb4xuqMMKNdOhDynyEwvu5HNWcrSlLebDoNo6/PNBh2cNbRbMUTSKLc9bnjelf8qLtvY5z3lO1g0+zJTpo/3kY05beUoaYhh+HaMbevJCPUEhTZppi9ttKs+8mLOy82NIWDD2xE06wmo/88LHtBg5oazXYRlZhxXvQvWND2rUGxSBYanZfJTiGUE5lx8I2wpMOJHPl7zkJT15gimyYEr6qQf8qE+kIyx7ez4MiCnvFdxvvB+1n4coa4mLOFWv2gpM3sdQysJRP5SxpKX8iEi589xA8T0TjvbICsyZIGkZ40jACsxxLDWn2QRMwARMYLES4AV2tiwwyxdtOmAoynjRVceo31YKITpUWNZJThcYrmHxxst6u/Palo9cOodYeWKhphf3Uu5sKDBhjEXGS1/60oVe/Ntp5JhOFxYvWMS03XQUmOQTC0c6qWVHpituFFIowk455ZTOTiOyyE/MZ9qpcEZmDHdMRRZ++dEhwTIH5QTKiq54dY4OKx0kLFfooLUd8uCCFQ0WP5SpwnZt6TTCUhaMSpPkkhese9pKRsmiE46f0n3zm9/MDupUeUGBCKcXvOAFPWnsUmCi9KND3FYeKB2HH354Dw/8wxRWpRJR/sstTOn8YulGXmCAY4uVJ4od+ccijM7jMA5ZfCBQWO4/FLxtxsPIkh8rMEVi8W0XhwJTdYL7EOtaFE/US9WdflusNFGwxZDwTsvLkhKWmTFvcN7LU7ULKKdQBqGUKtsZpRNrs5lWYCKb+5YPeijtpkoj9xPKJyxSKSPCl25UBSbhsSI8/vjjU5k2VfwoA1GAYc3X5ZAXcyqmgrVLFspjnnty+EdJhuKurcTtKn+e1VjcliMaJIsyQx5tIErPqZ5rsEQZh+U/4fi1He9BfEzrqpdtBR3liEIWC9ap3mmoazxHsFDneaS8wqFMi/ZjOo5kKn/lFlm0u3omEYaPuDHdQM8IkzJMuQ9TRizwwaLNgOdSaYFZhuu3zzOQZxAW011K5jbjYY6twByGkv3MVwJehTxaGzsTMAETMAETWFIEolOTUYeCJVcfZw5KFk5gsnnmv2KRgHiJbpIXHaZcoITVo8OCIifpj45JzxyAjefbdogjXqCr6BzkCtvM7cUcmvES3OOVuROZ/4l5vZgHELnDONIXL0oD0zCVnLA4yRXZo+OYC04wbyOLEDAXZOmic5FzVoa1Zi6+M2waSxld+zBi/rNQSuaPubDgH53AxjtpDCvCnLMyrGRyYQTOtR2y+IUyNucRi45LrsLKXGTRqUvvXMdpGx3CzBfzY+GfuVAp++iEpT/+iIv5vMJ6MFfIZb60fvFTT2AZnc2KxWNY7CI6yj3yYMkcmjEUNreSpTQpYs5T15h3jDlUWeQglBcL1R/Sil/Cs9gH+QiryKzLLMhBHZFjgQfmEWXeP+Yb22uvvXSp7zY6gukvlNdVDPfLRR9iGGRPGXEfyeGf+U1DEZT1/swzz8xyKJnin5V2QwlRhRI1/ZIH1WnSTD2IYYkplmubxdyn3CvDOPxzP4VCN/MfHdgsWxbesjMBESjvOe5L6gcLsNFWh1I9F5di8TA56i2L6oQCMeem5D4OS8nO9kBh2IZ1W84bySIrPA/C8jvv5fLepC2KDyl5T8Sw7IpV0sv0aV/bUv6i7Ese9218bMu5oWk/SCNtYenww3y9Yf1dhWXiQmks/Y6yTxqYQzemiMk2jHlC1XaWcuIjSrb/O8W8l6zeXS5YU/pDXlhbZrsZ05/kczeUYDlvY8mcMHrOhwIvV6BnTkwWtelaTIj2nWc05UMbH0q7MtrcV1vIM516ElNwZNvDYj/M6StHefNcYd7UsDTPZ5zKQn60DavCKoaN57zK1E3yEoq+nrZdfikj0snigqGMzvlcWVCufKbTPsYIkszHzjvvnOXcFTesOM+PfeSx0BXPI9pWMVXcyJXDf3xwzPlUWdWd58AFF1yw0NyZ5I3nHM92mA1iKtn9ttQP7hvuSebhZLFGnu12JmACi07gDnFT3/42uejyLMEETMAETMAE5h0BOhZMFM/KrSh7OKaDE8OXc/EXdRRmKuM8mulghPVCFRYPOfE9L/0obsJiIyfSp8MUFhNNlF0v/c3FYgeFHDJ54b/22mtzgn86Grxoo+gJS4lcdECdhbIjIDGEZ3J60sl1lDkotwalgUn8pTAl3XS+S27IUueEfeJA4RZD2TL/dAhYrZv88yO+MrzSxhZ2YSGX5YRMFAL9Opgos5RutvxgxKIGMEJxheIRLnSYl1lmmZRH54b4FbaMX/vUE+RTjiyWQf7JGz/SxA+nc7AkTFjYZf5ZlT4sezI8HTDKh/jJ/1SKW2TKwSOsurIOUw7UZRSxlIHKjrjJS1d5Sw4yKRfyAyPSioNFueq3GMIHhS0d3Ji/LxdogAEddJSv1GfKkfoHY+TikEteOY8rGXONdFA+MTyzZxGJkmkGLP6IFwaUJ/UeBnQwWYyHsuVXxid+bEk/yiP2Vd/p7A7ruHfJn2SqDKkb/erwINnkhfSg3KAdQgYLeLCgEPV8OjIHxedr/104jTqDMo0PCNQDFD5HHHFE1uPZYE79oM5wz1GHaNNod1FChuVyttO0i2Gpl/cIfkdJB3K5j2K6i1x8hjaKewhlFm0DdYl88uO+k2zi4ZhfWAs27Trpop0a5LjH+eiADO5rtQFdYfDDPa408tGEMlBbSL4Jr3R1yaAN56MBDkUd9zz5GcYRP/Gp/SJ+HG0TaYAP9/Kg+BUPsuBL/kkPZYsjLbRBtD34EWf2aWPFizaLvMCYBZ9otykrFIT94i/bF+RyTF6oS2zDEjzbbpjAkWeC2kClu2uLLLXr5IV91RPShQKYNCk/XCNu4oUhzzSe7ZTfggULmjYYf7RttJXknfDwRSb7OOoM+9oik+cb6SAM5/nxrsC27Ug7YWK+ykwH9VdM4QkDpb8rPHFwH1Iv5ZQeHbMl/7zn8EM+z8gueWWYUfZhzn2BMpaPgMTHs4DnAPnoVydGicN+TWCuErAF5lwtGafLBEzABExgognwEo1yh44qFmK8eON4yeeFWS/0bDk3rKODQqeAzhdWmaXTS2/ZuSqva5+OBz+c0jLVyzmdNDny0vaPHM7xY19pjKGReazzXMO1w0s2Wyk7y3P99pXnMh/wRKFFxwmrTNLLOXEhbpVHP7mcxx/h6FAgj/DKB1vJYSvHvjo+dKawlFLakEW8HIthGVYy2HJe/lSXOE9dkuO6/OncoC1+KRc6zYpXXMSDY5w6wvBFYckP1/bHMT9Yo5hVePlVPBk4/pRm/MpPGQbGKlOu458fCl+UMqQDpjjlHf+Ek+y8GH+kCz/cK5SfrisP8jdoi1z4o7BVOKW3TOcgGb42uQSoK9Q9fgtC2TPIUb/4qX4N8ss17mN+KLBwuh8Ir33V+XZd5Tr3OB8uyvjadTwFF38o/kdR/qP44RmIwlD3Nlu5Mm6dK7flh5Xy/DD75J1nMIz4wEfeyDc/HMf4GcYRBkUWbQFhlO6yvPAjztrnOUv7w8ezMi6uKz3iMlU6KC+eKbSdWAPGsPImL4RVmqaSw3WUwbSlpEPxk74yb8oD/vXeQX703qFwXCcv/Hj2LbitnnMdGTjktvc5LuuTeJT+Oadj8occvb/wLFQa2OKQiZ9+jnyUSnr8Egeylb5+YX3eBExgZghYgTkzHC3FBEzABEzABGaUQPtlmGO9jLOv69rqZX+qTohkkFi90LOPHGTwQt5+Ged8+xxhcPgf9ML/X1+9//hXunWlTLfShbUDjk5dGaYdVjLKbZmmYfwTVmlo+2+f57o6mmWc2lda8aewXFMY5Qt/ut6Ok3LSObYcy3+ZN8XZ3rbrg8JIJv4ll32lg/2pXOlXaSIMccopPvyW9aeMH79KA1t+hJOfMh7JLc9Jrq6xLa/rvOTCkOv8dE5xlcfIpawkS34Iz/nSr+Lot5UMZBJulLD9ZPr8ZBBQ3VFuy3tD59hSL3G6F/v5S0/Fn/yrfnNJdVTeymv4L/10xVP6l4x+W8Lrnurygyzut/b9KC5Kj9qBUeLuiq99TvFwnrjax8Q3SpyER45+yB0UnmuEUbylX+V5kIzSv+KWTMJJLvuUA+kqw3C+yykcacCVYcr9rrDEUZYnxzjJ1HF5btA+13C6BxT/oC1+FR/+ymPi55rC/1d6/3/8UUeRUcpReOW1vwRfMQETGJWAFZijErN/EzABEzABE5hlAnr5LaPRi3J5rtznJXoYx8s5L+n8kFnG1U+GzqvTVIZRR2CYuOVH8nTctSUOrB1wdAzUsVC6u8KU5wiDGzZ9pdwyf6XMmZJF/sv4yjgUd5tReSw/Zbhyv6vTBA/CtcMiV9dKGYP2SxnkA8c5lRfx6xznB6W9vD5sOsSulJsR3pYO9vHDryyztv8yH4TRdW2VN2RoX7LbYTnf5eQPmcqftl3+fc4EREB1R8fUwfY5rpV1nONh65fqOWFwyG/HMehYaVE40qFz/5XY+1/64wp+22noDfHfI/mRbG2Rh9N19sk7rs0kT07jT22pOCgPixqHnqXIUX7ayeO88ti+Vua5fa3fsfKg+LTFP/Jgh59R2BGOMMNwJz6lW3VUaSIN7XjL9HF9kGuHld+2DI5hr3jb4ZQuhR92W8Yj2YRVfoeVY38mYAJTE7ACc2pG9mECJmACJmAC84oAL9vlC/ewmWu/7A8bblH9lfGW+4Pkyt+w+ZT/QTKHvTaVrOnyX5T4B6Vp0LWp4uziK3ld1wbJU7hBfkZhN0r8XXG3w9MZ5dx0O6WKQ9tB+fQ1E2gTGLbeDOuvLb99b011XIZv3yvltXJ/WH9lmH77XfmcSfnEqzi05VybC+dGcZI1TFrldxT58tsO2z6WP22HSY/8si3ljcpEcZUyStmzuT8ozum27WX+lbfZzINlm8AkE7ACc5JL33k3ARMwARMwgREIjNOL+TildYQiGMrrks77ko4fSDORhlJGuT9UIdiTCUwIgWHvjWH9LQq2mY6jLa99PGpaFzX8qPGN4n/UtMm/trMZ1yiyp/I7nfROJdPXTcAEFh+B4Wf9X3xpckwmYAImYAImYAImYAImYAImYAImYAImYAImYAImkASswHRFMAETMAETMAETMAETMAETMAETMAETMAETMAETmLMErMCcs0XjhJmACZiACZiACZiACZiACZiACZiACZiACZiACViB6TpgAiZgAiZgAiZgAiZgAiZgAiZgAiZgAiZgAiYwZwlYgTlni8YJMwETMAETMAETMAETMAETMAETMAETMAETMAETsALTdcAETMAETMAETMAETMAETMAETMAETMAETMAETGDOErACc84WjRNmAiZgAiZgAiZgAiZgAiZgAiZgAiZgAiZgAiZgBabrgAmYgAmYgAmYgAmYgAmYgAmYgAmYgAmYgAmYwJwlYAXmnC0aJ8wETMAETMAETMAETMAETMAETMAETMAETMAETMAKTNcBEzABEzABEzABEzABEzABEzABEzABEzABEzCBOUvACsw5WzROmAmYgAmYgAmYgAmYgAmYgAmYgAmYgAmYgAmYgBWYrgMmYAImYAImYAImYAImYAImYAImYAImYAImYAJzloAVmHO2aJwwEzABEzABEzABEzABEzABEzABEzABEzABEzABKzBdB0zABEzABEzABEzABEzABEzABEzABEzABEzABOYsASsw52zROGEmYAImYAImYAImYAImYAImYAImYAImYAImYAJWYLoOmIAJmIAJmMAiEvjPf/6ziBIc3ARMwASGI1DXdcXPbu4Q8DNg7pSFU2ICk0DgDne4wyRk03k0gYUIWIG5EBKfMAETMAETMIHhCJSKhHJ/uND2ZQImYAKjEbDicjRes+W7bO/ZtzJhtkhbrgmYQBcBPwu6qPjcJBCwAnMSStl5NAETMAETmDUCvERifWMLnFlDbMEmYAK3EXCnde5UBZUFWysw5065OCUmMAkE3OZMQik7j10E7tR10udMwARMwARMwASmJvDb3/62Ouecc6b2aB8mYAImMEME/v3vf1drrrnmDEmzmOkQQHlwxzvesbrhhhuq8847bzoiHMYETMAEpk1g1VVXnXZYBzSBcSZgBeY4l57TbgImYAImsEQJXHnlldWuu+66RNPgyE3ABCaPwGGHHVYtu+yyk5fxOZbjn/zkJ34GzLEycXJMYL4TWGqppapXvOIV1eqrrz7fs+r8mcBCBKzAXAiJT5iACZiACZjAcASwwLnb3e42nGf7MgETMIEZIkAH1m7JE8AS08+AJV8OToEJTBIB2v873clqnEkqc+f1dgKu+bez8J4JmIAJmIAJjERgrbXWqt73vvdVViaMhM2eTcAEFoHAv/71r2rBggXVZZddtghSHHQmCKyxxhp+BswESMswARMYmgBzrq+88soVo4DsTGDSCFiBOWkl7vyagAmYgAnMGIEHPvCB1dprr53yrMScMawWZAIm0EGATisLxjAH5i233GIFZgejxX1queWWq7bffnt/xFrc4B2fCUwwgVtvvbW6+eabrcCc4DowyVn3KuSTXPrOuwmYgAmYwCIR0MrjVl4uEkYHNgETGIIAU1bQ1qDE1ArYQwSzFxMwARMwgXlGwKuQz7MCdXaGJmAF5tCo7NEETMAETMAEegm0XyCxjLIzARMwARMwARMwARMwgZkmwHumP2LNNFXLGycCVmCOU2k5rSZgAiZgAnOKQFuBaUvMOVU8TowJzEsCtDvttmdeZtSZMgETMAET6CHAe6bb/x4kPpgwAlZgTliBO7smYAImYAImYAImYAImYAImYAImYAImYAImME4ErMAcp9JyWk3ABEzABEzABEzABEzABEzABEzABEzABExgwghYgTlhBe7smoAJmIAJmIAJmIAJmIAJmIAJmIAJmIAJmMA4EbACc5xKy2k1ARMwARMwARMwARMwARMwARMwARMwARMwgQkjYAXmhBW4s2sCJmACJmACJmACJmACJmACJmACJmACJmAC40TACsxxKi2n1QRMwARMwARMwARMwARMwARMwARMwARMwAQmjIAVmBNW4M6uCZiACZiACZiACZiACZiACZiACZiACZiACYwTASswx6m0nFYTMAETMAETMAETMAETMAETMAETMAETMAETmDACVmBOWIE7uyZgAiZgAiZgAiZgAiZgAiZgAiZgAiZgAiYwTgSswByn0nJaTcAETMAETMAETMAETMAETMAETMAETMAETGDCCFiBOWEF7uyagAmYgAmYgAmYgAmYgAmYgAmYgAmYgAmYwDgRsAJznErLaTUBEzABEzABEzABEzABEzABEzABEzABEzCBCSNgBeaEFbizawImYAImYAImYAImYAImYAImYAImYAImYALjRMAKzHEqLafVBEzABEzABEzABEzABEzABEzABEzABEzABCaMgBWYE1bgzq4JmIAJmIAJmIAJmIAJmIAJmIAJmIAJmIAJjBMBKzDHqbScVhMwARMwARMwARMwARMwARMwARMwARMwAROYMAJWYE5YgTu7JmACJmACJmACJmACJmACJmACJmACJmACJjBOBKzAHKfSclpNwARMwARMwARMwARMwARMwARMwARMwARMYMIIWIE5YQXu7JqACZiACZiACZiACZiACZiACZiACZiACZjAOBGwAnOcSstpNQETMAETMAETMAETMAETMAETMAETMAETMIEJI2AF5oQVuLNrAiZgAiZgAiZgAiZgAiZgAiZgAiZgAiZgAuNEwArMcSotp9UETMAETMAETMAETMAETMAETMAETMAETMAEJoyAFZgTVuDOrgmYgAmYgAmYgAmYgAmYgAmYgAmYgAmYgAmMEwErMMeptJxWEzABEzABEzABEzABEzABEzABEzABEzABE5gwAlZgTliBO7smYAImYAImYAImYAImYAImYAImYAImYAImME4ErMAcp9JyWk3ABEzABEzABEzABEzABEzABEzABEzABExgwghYgTlhBe7smoAJmIAJmIAJmIAJmIAJmIAJmIAJmIAJmMA4EbACc5xKy2k1ARMwARMwARMwARMwARMwARMwARMwARMwgQkjYAXmhBW4s2sCJmACJmACJmACJmACJmACJmACJmACJmAC40TACsxxKi2n1QRMwARMwARMwARMwARMwARMwARMwARMwAQmjIAVmBNW4M6uCZiACZiACZiACZiACZiACZiACZiACZiACYwTASswx6m0nFYTMAETMAETMAETMAETMAETMAETMAETMAETmDACVmBOWIE7uyZgAiZgAiZgAiZgAiZgAiZgAiZgAiZgAiYwTgSswByn0nJaTcAETMAETMAETMAETMAETMAETMAETMAETGDCCFiBOWEF7uyagAmYgAmYgAmYgAmYgAmYgAmYgAmYgAmYwDgRsAJznErLaTUBEzABEzABEzABEzABEzABEzABEzABEzCBCSNgBeaEFbizawImYAImYAImYAImYAImYAImYAImYAImYALjRMAKzHEqLafVBEzABEzABEzABEzABEzABEzABEzABEzABCaMgBWYE1bgzq4JmIAJmIAJmIAJmIAJmIAJmIAJmIAJmIAJjBMBKzDHqbScVhMwARMwARMwARMwARMwARMwARMwARMwAROYMAJWYE5YgTu7JmACJmACJmACJmACJmACJmACJmACJmACJjBOBKzAHKfSclpNwARMwARMwARMwARMwARMwARMwARMwARMYMIIWIE5YQXu7JqACZiACZiACZiACZiACZiACZiACZiACZjAOBGwAnOcSstpNQETMAETMAETMAETMAETMAETMAETMAETMIEJI2AF5oQVuLNrAiZgAiZgAiZgAiZgAiZgAiZgAiZgAiZgAuNEwArMcSotp9UETMAETMAETMAETMAETMAETMAETMAETMAEJoyAFZgTVuDOrgmYgAmYgAmYgAmYgAmYgAmYgAmYgAmYgAmME4E7jVNinVYTMAETMAETMAETMAETMAETMAETMAETmCQCdV1X//nPfyYpy86rCSxEwBaYCyHxCRMwARMwARMwARMwARMwARMwARMwAROYGwTucIc7VEsttdTcSIxTYQJLiIAVmEsIvKM1ARMwAROYPwT+/e9/V/zsTMAETMAE5i8BLKDsTMAETMAETMAElgwBKzCXDHfHagImYAImMI8I0Kn1V/F5VKDOigmYgAm0CGD9ZAVmC4oPTcAElggB2iM7E5hEAp4DcxJL3Xk2ARMwAROYEQI33XRT9a9//au64x3vWPllckaQWogJmEAfAp77rA+YxXQa5SVtvRzHN998c7b9/oAlKt6agAnMNgFG/LjNmW3Klj9XCViBOVdLxukyARMwAROY8wQOPfTQ6sYbb+zp1M75RDuBJmACY01glVVWqQ455JCxzsN8SDxKhGOPPba6/vrr/QyYDwXqPJjAmBC4973vXZ188sljklon0wRmloAVmDPL09JMwARMwAQmiMCll15aXXfddROUY2fVBExgSRNYb7310vJ7Sadj0uPHAvP73/9+dcUVV0w6CuffBExgMRJYfvnl/dFkMfJ2VHOLgBWYc6s8nBoTMAETMIEarPeKAAA+cUlEQVQxIvDwhz+8WmGFFfwiOUZl5qSawLgTWG211Tx8cA4UItOGrL322tXSSy/tZ8AcKA8nwQQmhcB97nMfz8c7KYXtfC5EwArMhZD4hAmYgAmYgAkMR+C4446r7nnPe1Z3vvOdK89PNxwz+zIBE5g+AZRm/Mq5GKcvzSGnSwDrS8rhsMMOSwUm89FxzHk7EzABE5gtAmpn3NbMFmHLnesErMCc6yXk9JmACZiACcxZAve73/2q+973vo01FEpMKxbmbHE5YSYwLwj885//rG655ZZ5kZdxzQRKBJSWWEItt9xy+RFLeeE5wHV+diZgAiYw0wRuvfVWPwNmGqrljQ2B25fSG5skO6EmYAImYAImMHcI0FnVl3B3WOdOuTglJmACJrA4CLTb/fbx4kiD4zABE5gsAnrvnKxcO7cmUFW2wHQtMAETMAETMIFFIIDFpTqs2i6COAc1ARMwARMYIwLtdr99PEZZcVJNwARMwARMYE4TsAXmnC4eJ84ETMAETMAETMAETMAETMAETMAETMAETMAEJpuAFZiTXf7OvQmYgAmYgAmYgAmYgAmYgAmYgAmYgAmYgAnMaQJWYM7p4nHiTMAETMAETMAETMAETMAETMAETMAETMAETGCyCViBOdnl79ybgAmYgAmYgAmYgAmYgAmYgAmYgAmYgAmYwJwmYAXmnC4eJ84ETMAETMAETMAETMAETMAETMAETMAETMAEJpuAFZiTXf7OvQmYgAmYgAmYgAmYgAmYgAmYgAmYgAmYgAnMaQJWYM7p4nHiTMAETMAETMAETMAETMAETMAETMAETMAETGCyCViBOdnl79ybgAmYgAmYgAmYgAmYgAmYgAmYgAmYgAmYwJwmYAXmnC4eJ84ETMAETMAETMAETMAETMAETMAETMAETMAEJpuAFZiTXf7OvQmYgAmYgAmYgAmYgAmYgAmYgAmYgAmYgAnMaQJWYM7p4nHiTMAETMAETMAETMAETMAETMAETMAETMAETGCyCViBOdnl79ybgAmYgAmYgAmYgAmYgAmYgAmYgAmYgAmYwJwmYAXmnC4eJ84ETMAETMAETMAETMAETMAETMAETMAETMAEJpuAFZiTXf7OvQmYgAmYgAmYgAmYgAmYgAmYgAmYgAmYgAnMaQJWYM7p4nHiTMAETMAETMAEFgeBuq4rfnYmYAImYAImYAImYAImYAJzj8Cd5l6SnCITMAETMAETMAETmB0C//73v6vLL7+8uv7666s73vGO1UYbbVT99a9/ra644orqP//5T7XmmmtWa621VkYuheYd7nCH2UmMpZqACZiACcwaga42/Pe//3116aWXVjwLll9++Wr99devLrzwwur//b//V93rXvfKZ8Ld7373fD7MWsIs2ARMwARMYFoErMCcFjYHMgETMAETMAETGDcCdGZRXu6www7VH/7wh+qxj31ste6661Z//OMfq+OPP7666qqrqgULFlSf+tSnqhVXXHHcsuf0moAJmIAJFARQUi611FL5cYrTtPXHHHNMdeqpp1Z3vvOdq5NOOqnaYIMNqi9/+cvV+9///uoud7lLdcABB1R77LFHdde73jWVnHzo8kesAqp3TcAETGAJEvAQ8iUI31GbgAmYgAmYgAksHgIoL7Gy3G233aprrrmmWmaZZaqjjz66Wmmllap11lmnOvzww7OTetlll1W777579Ytf/CI7vbLgWTypdCwmYAImYAIzRQDFI204P5SZb3jDG6p3vOMd1d/+9rdq1113rbbccstUcO63337Vk570pLTMP/jgg6uzzjor/Sv8TKXHckzABEzABBaNgBWYi8bPoU3ABEzABEzABMaAAMPE6Zh+//vfr+5///tXxx57bFpf0kHFQueJT3xideihh1b/8z//U33pS19KKx2uYX1jZwImYAImMH4EaNtlQXn22WdX73rXu6p//etf1TbbbFOhtLzTnf47GFHPhEc84hHVX/7yl+rII4+sLrnkkvyo5WfA+JW7U2wCJjB/CfitfP6WrXNmAiZgAiZgAiZwG4HzzjuvOuecc9IS58UvfnH1nOc8p4cNHV2sM7HIufXWW3M44fe+970ePz4wARMwARMYPwLMecxwcYaQMz0Iw8jve9/7Nh+o+Fi16qqrplX+0ksvXV199dX5DPj73/8+fpl1ik3ABExgHhOwAnMeF66zZgImYAImMF4EGNb2pje9qXruc59b7b///tXvfve7aWWg37BnDaUbVShD7/rJRNYocuk4kr999923uuGGG5qkfOITn0irmF122SWtJJsLt+0ofsWlYy7rXBmGNMsx3+V73vOePKTTyhBxFJZtxwIOe++9dzNnmoYatv352ARMwARmgwAW4rSP/M4999yhomDxMX5lm1gG7He+9DOdfeSW7Wz7GJmcK+P/1re+Ve28886ZPz4oyV133XX5TCDfKBpL109u6Uf7ZXo4p/ixqmfhHtp94n/AAx7QWGYqLNtHPepR1ZOf/OQ89clPfrL6yU9+Ul72vgmYgAmYwBImYAXmEi4AR28CJmACJmACIsDQtosvvrg644wzqs9//vO5OraujbKlM1u68rjcL/0syn7ZQZUcznXF9bWvfS3zR+ecoXpyP/zhD6szzzyz+sxnPlOxSqxkSka5VadUYdvHnJeCknBYX8IVK5uXvexlaWmj6+100oHdbrvtUjQd7G9+85tNWhSftyZgAiYwGwT4aEX7z++nP/1pRtHVvnFB5xnizE9tZJkuzumHf1zbn47bbaHkKLyOtaU9VTvKOfyVx5KnePHzq1/9KueXJH8/+tGPOJXu5ptvToUt51E0lq4dD9f6fVQr48cfaWJ18Te/+c25fdjDHlbttNNOuYAP1+XE4H73u19+xMIKkzS95S1vWYiXwnhrAiZgAiaw+AlYgbn4mTtGEzABEzABE0gC6thpO1NY6Myqg0fHDPllHLJS6TrPOa4Tjh/7mgOMazoveVyng8l5nMKwz/nSH+cWxSGr7KhzrPQpjZLPea7/85//rL7yla+ksvSBD3xgtfnmm/ekUf61Rc62226bc2FiIfqNb3wj49B1b03ABExgJgnQTvEbxqldK/2rTW6H57xkq30u/ega5ySPNrvL9TuvsKSrVB5KXpesUc6181amuYybj3/4JR2lI90s3vbjH/84T7NQz4IFC5r8ln61/7jHPa5C0Yn79re/nUrXLtny760JmIAJmMDiI2AF5uJj7ZhMwARMwARMoIeAOltdncsej3GAn2E7hXTa1JlUOOJin/P81BEs41YYwutHOggr/yj4ynRIVqlYJCyOreTrXF6Y4q+Mu1RMEi/ydI5jpbktUulkWP4FF1yQl9dbb71qzTXXzIUbFI64JA9PHONvjTXWyDBYb8pvnvCfCZiACcwgAbWt/USW7SFtEW2gfmq/aMPa7RTndB3ZegZwnvBlvOyX8ZRpKf1xnmPCyxGuHbfkcx7/cvgtXVt2eY19/JdxyT/n9fxU/F0MkPHFL34x5zVmf6uttloorZwnrNxd7nKXnAuZ49/+9rcVcyErDvnx1gRMwARMYMkQ+O/Sa0smbsdqAiZgAiZgAhNNQJ2mdudPUOissXo284N997vfzU7UOuusU62++urVPe95zzyW33LLIjR//vOf0+rk8ssvr+5617tWj3zkIzMcq65eeeWVuZjB3e52t2rjjTdugjKkjw4b8T760Y/O7TXXXFP94Ac/yE7fgx/84OohD3lIdY973KMnbvJBZ1Jbhuwhi/ncOMfKrigECTeKk0w6jzgWVGAIInL/9Kc/VWuttVZFmpZZZplMH/5IOx1emHKM/2uvvTb3UUwyB+ZUjkUekAvzyy67LK03WZ3czgRMwARmmoCeA225tGVYFmIJftVVV2U79qAHPSjb0/vc5z7NCtrtcISh7fzFL36RbSVTcqyyyirZ1t/73vfOuZWZsoM2kg86yy+/fIpgSg/aPNpP4llppZUq5g/mGfLLX/4yp97AMpEVu0lz2dayL4fVO0PhaadJw8orr1w95jGPyXZafkbdigXpYV5KeNCWb7DBBpl+PVtKZSdx8PxEAQmP5ZZbrlp33XV7lJX90sHzj+cmi/5gwbnFFlskr37+fd4ETMAETGDxELACc/FwdiwmYAImYAImsBCBro6rlHV0uL785S9X7373u6vvfOc7TViuMwzu6KOPrjbccMOeTiydPDp4p556anXEEUdUt9xySxPuzne+c/WUpzyleu1rX1sddNBBOayaTi3KUbnjjz++OuWUU/KQBQxOPPHE6qtf/aou55YFDgj/xCc+MZWCpIcfnWE6wB/+8IerN77xjT1yuY7/17zmNdkh7xE44ECKXawoP/e5z1VHHXVUdibLzjKKxb322qvaY489soOttEgsi0bAEmUtaehiLr/a0nHF72mnnZZKU5SYm266qS57awImYAKzTuDXv/51ttdveMMbsg1ThCxAs88+++SiNyw8VjoUeBdddFF13HHHpeVh2VYuiKHTBx98cCoeX/KSl1R3v/vdq3e+853Vi170ohTBnJtPfepTq3/84x/ZnjIfJAvqoASUQwn48pe/vCK8PhxxjXiIG2UncfP8KONGSfrSl740lZm00XLlvs6VW7XnKFxPPvnkTC/tuRzXN9poo4wTJSnPOZzaeT7IaS7Rxz/+8VWbl+S0t7B66EMfmvlBEcszyB+x2pR8bAImYAKLn4AVmIufuWM0ARMwARMwgb4E1OnDcgWFHxYgWJegVKMjiXULK6piYfmhD30oO1kIo1NHx5MOKgpMOlwoAAlHpw7rRYZDYxlDp24qRwcZv1h6MqQOeYqb+cQYlo2VDnEQN1aXKC5Z9ABFJueJl7ST7gsvvLDCmhProFEccaLEPfbYY6sbb7wxZWJ5g2wsi4iLBRouueSS6vTTT6+wMCJuONK5/c1vfpPRcQ6LIp2fKg10YOWuv/767JyrU6zz3pqACZjAbBHgYxKW5ljNs6gMbTjW9bTffMxBgbj77rvnddo62lY+eu25556ptOMcbTeKSq5hRXnggQem5XqZ5q52jQXVaFtRShIP4WnjaXOJG7f//vtnW8s+MrB0fP7zn9/MN0ncfDji+cCHtde//vU5CoB8yOl5p+P2luuke/vtt69QYnKMTOYzZpEd0sg8lSzMg/wddtihUV4ii+cWz1Ac7X9XXvNi64/nFpamOJ47cLczARMwARNY8gRun/BjyafFKTABEzABEzABE7iNAB0vlI/vfe97UwmHMpEVsbGQQRlHpw3rGTk6q6zgin/CMjTwbW97W3b+GIL49a9/vdpll13SogSF3FSODisdQoZg02llZVg6p3QAUa5iyUnHlHhJD6umv/Wtb80OJR1FrIZ+9rOfZdqxyiFuOpLDKE/LtLF6+Ote97rsRDIU/eyzz66wTPr5z3+ewwixvCQdKEjxRycbp6GE5B1HurEC0vk82eePPK2wwgrNVfI/bMe3CeQdEzABE1gEAljQP/OZz6yuvvrqbINp80444YS0BORjFe0tQ6lpr3C0y4cddlgqL1Ee7rrrrhUW6LSBhMWakqHnLEw2lUNp9/SnPz2fObTZPDPe8Y53VEyvQdx8qEJhKYeCkg9uTB3C82CbbbbJj1y0nTxD3ve+9+X0Iygh+Sglh0JykBITBihdmcYEd/jhh1fXxagBrCrJF1aZTKmCkhOFKs+c0vE8QMmJw3qUtA3jUJLCCnfTTTdZgTkMNPsxARMwgcVAwArMxQDZUZiACZiACZjAdAjsvffeObwP6xssDlHgYYnI0G8cixOo80cnE+Uljs4XHUyUhhrmx1xhb3rTm1IBmp6m+HvhC1+YQ7Nl0cjcZyglFTfzgsm6kTSgLEVByTA7hpgzrBsLFtLNfJIoQ5/3vOeNpAhEMUmnG0sbrC4ZmkinGmUinfbVVlstlZYodfF71lln5Txxyhrn6FjjsGKiQ6oOrLjJb3tLZ1eODqydCZiACSxOAszXyLQetLm0W7SnWFfuuOOOmQwUligM1ZYxzQZzWOK23HLLDMszA2Um7SfWmkw9Msww6lVXXbU65phjqvXXXz/bTiwSsXLcbbfdUh7tKkOrccR//vnnV3xswjF/JMpOtrT/PEOwjKQtL+NWOy4FbAYu/pCLspWPY7htt902lZl8iCIMsnlO8UxEFh/5PvKRjzQ8CIMCU0PgGRI/7IcoPh7y3MVhBcuzxM4ETMAETGDJE7ACc8mXgVNgAiZgAiZgAgsRoLPFwgFlh4tOG/Nerr322ukfBSKWMjgsUrBMwT3rWc/KH50wwtP5ZUuH7IADDmiGxqXnPn8M2UMRqs4l4Rm294xnPCND0IHFsgbHvqxxUJSiOKVzSVg6ofyWXXbZ7HyyHdahOERRilsQQ7r5YWHDIg78GMpO3DAhfVgZ8ZMjfg39U3p0bSpLTDr9cqXFkM55awImYAKzSYA5G1n8TG2w4tp6662zbUY5R3uotuxrX/tatndYSe63337NgmVqg/mIw0ekYebzxQ9ThOB4fpAG2kQ+IKEMxUlZShvLPtOaEAdWoBp+TdwKi0LzxS9+cYblj3RzrZ0/eSAs7T8fsBgGzxzOPONo9/XjmIXtuI5jlAIWonLEwWgCng+kbVhX+qf9Jy12JmACJmACS57A8C35kk+rU2ACJmACJmACE0MARR9WL12OIdo4OmcoMP9/e+cea1dR9uH15ftDECpiud+saKUIRbBQpBIsN6MiimhiVEKIWEUTNcaoMRAlkoBXNERFI0JERDAGFDQgFgooakWuQq1akHu5FOQiGPzr6zPkd77pYp/TU7rP2evs/Uyy9rrPzHpm7XfW+847M3gL4oGZSXte+9rX9rqtHKNrNB4s6Vo93oUowShx7cCMsgS6qaOwEuqxLZkZHGWSvKH0EUcUVBRivCDXl3aJdO0PHkbxnkFRf8973pNT66wxdEbBJC8YfkmTtKNso+yTXzxSCfHEXCeiaoeujwmJI/uuJdBVAvwPWPKf62o+zdf6CUTW1lcit/ByR44h85H/MQTSPZtA41eMj7k37wMykUamX/3qVznVc40BkgawhNxPXUPDFiEyEtmKIZFAIxeTDCXkPvYxgFI/8AyT8WjkufAwJWCEpAcAnv69QhqZMHaSr7DjGRjHmXE3qR8n+98gvtRveJBuiPGzV/48JgEJSEAC/SGgAbM/HI1FAhKQgAQk0FcCKEy9DIgkUnsHxnCHEhklDoUL5a/X/Sh0UUAnynA8WtrX9EobYybpEdLtrlfaeEHmfDve9j7xYbyMByXjmGU22fa17KOkEsIg6ccTCIWZLoawgVnOl5t6/KR7PKcSR4/LPCSBThGIPOhUpoYkM7UxbjoeqZa1dXoYANMAE4Mc8iyT1SBnkfOcy3nynv004tRxtreJI2lwLs9e10uR+RgXqQMI1Bt1vpNm5C1ymjgmY8AkvjwTaTDOJXlKXoibwD7Py0LcqTM4RyMg3dYx9CL/iad+Bq7pFTB4ZugQGrC4xyABCUhAAoMnoDQefBmYAwlIQAISkMBGEUCRw+sFxRTvxnjiJFLOR+lDkYtilvMvdB3llPHSUHgJeEDmOGsUV9JmG2UUJXKyAS8alE+eaf/99y8TByXuKMTtfcbbrEPGskTZ5tnb5+tr6228mxLwaDJIYCYQyP9tJuR1puURWdPlgHcjQ2jgaUgDDJ72vUK8GnudeyHHMBJmbGQm+4nnInI/Rk4MlvDDCFl38Z4oPe7fbbfdyiXUbSeddFLpLp66LOWR+oULaSDDCxRDJf8FjJpp3Iq3auqMxJM81PGRx/RoIG0NmKHkWgISkMBgCTy/b9hg82PqEpCABCQgAQlsIAGURIx9MdYxU3c9FmSUSNZM9FCf28Ck1rk8Ch8GzCjLzFZ+zTXXrHMdO3hGMkt6uh0+74LWAZRPninxMvM4Ewm96U1vKgvjobEwVlu6+GHsbHf3ZnxMAuknXzF+tpIc20XZvuqqq8o+Hj90uTRIQAIS6CoBZHtkHUNvXHrppWOeiLX8ZyiOTIrTr2fBSIhsphELT/lzzjmnGBCJH/kZeUvjFXXAZAP3Md4z8caYiPxn0jYWtg855JAyTigGRha85fECjcGR+mPO2rGTCb/97W+L8bRtuCwn1/6EE/vUN7fffntpfOPZ6LXA+dR5uce1BCQgAQlMLwENmNPL29QkIAEJSGCICMSTY9CPhEKGERGDHgHvwRNPPLFMspM84pFy9dVXN9/61rfGlMuNzTcKJmmzZjZYtlH8mL0WJZp9AnlghtpvfOMbZSyyyaaLEkq8BOJlZnW8e6JIEv9ll11WxsZk0qGvfvWrz4sfj0s8KDFKMtEQCjaBPPXqxsjx2ouVSTRiRC03+iMBCYw8gfHkxyDBMMEO4yPThfo73/lOs3Tp0iLnkJPIOhqPTj755LHJ1/qVV+Tx4sWLx7wwzz///ObCCy8sxkI4ERib8utf//rYZG+TSZs877fffsU4Sjzf/OY3m5UrV5ZnIk0WPD6ZmA75z8LkPnXAexLPVBjctXacThrvUi9xHfEmjzG0cvyWW24ps4/jXYoRlW7x9X1cY5CABCQggeknYBfy6WduihKQgAQkMEQEovwM8pFQvPCCYfbXK6+8sszc+pOf/KS59tprmyOPPLJ4JS5fvry57rrrirERDxXG+Opn+OAHP9j86U9/an75y18WxXnhwoXNW97yljKZxIoVK8qkESiAdOfLxDyTSZ+Je5hdF4UYAyhelO94xztKd3kMknj0YNTEyMgMt21jI+nhpXnRRReVmXLxQGKSI/JSj/FW5+XWW28dmzyCWde7UMZ1/tyWgAQkUBOgDnj961/ffPzjHy+NV3g7vutd72qYyRwj4KOPPlpk8H333dcwQRzdqfsVkKMY+b7whS80H/rQh4qx8thjj22+//3vN8w8TqMRDU3IXrzl2cc4uT6DIPHSgMTkPe985ztL9/NFixaVOg1vU+Q+xlI8JfHSfNvb3lZkfeQ18bMceuihZfIfuoVffPHFY93QMYAm5FruJW9cR6A+WbBgwXrzmnhcS0ACEpDA1BLQgDm1fI1dAhKQgASGjECULpScKEpdeURm+Mbz5nOf+1wxVuK1+N3vfncse3g0fupTnyoGxhtuuGHseD826L6O5yWTCf3mN78p3j7nnnvuWNR0wVuyZElDF3O8MScbeCa8hlBmzzvvvObGG28sS30/CjnXvPWtbx07TPlwD4ZdlN5LLrmkeOCQ9kSztFOmGIFR8PG+OfDAA1Vex6i60SUCvON1qD3I6uNu949AL8aRNf1LZeKY2uWeq5HvNCThaXnmmWcWQyGymCWBsYTxlvzyl7+cQ31bH3XUUcVTnrjxuKSxKcN2kMi8efOKIZJeABgfx6s/Y0QM64MPPrh41xMvnv3UK3XdQtw0an3pS18q8h4+3EtdjZESAySemBh1ke0f/vCHi2EyRkvurwMNbjSOEfDg33XXXevTbktAAhKQwAAJaMAcIHyTloAEJCCBmUWgl8KDssUSw+YLeaIociigeNEQF+M/ZvKBdpwY4PCuwZOScR+jQKO0YXC74oormrPOOqt4ROJxQ7x77bVXc8wxxxSPFrrDzVk7LljGzCR+4mCsxyeffLIkl0l5knbSmDt3bkmbdJk4KIG06aqHpyPjr6E0p7se3dtJG2+gU089tdlhhx3KRAvEwbOjZDLOGM80a9as4iFEvOGCFw7ePO9///uLFxHdBDGUYtzcZ599muOPP77khTwQF2sWAmu8d/DUwfiJEoxXJ/f2CuT529/+dkl78VpF/6CDDtqosu2Vhsck0A8CvTzI+hGvcYxPoJbzkU8cY7s+N34ME59hDEfkIAEZHXlW30WDDY01TMaGXK/TRa6ddtppRebhnY4xDm97xgZGDmJkpPFq1apVpVt0Jt8hfrwjuYYu6HhUtgPPSEMUXukMU0JdRQgH6iu6cx9xxBHNj370ozKZHBO3YTxkvErk7h133FG6sDNrOXI9gWvoAk/dhvc+cpvnyvKRj3ykcPne975X4iX91GPvfve7y1iYuZaGK0K4wOtjH/tYmQSOXgJwIb5clzxQx1GvIP8xdhL/Jz/5yWIUzTWuJdAlAgwNZJDAqBH4n7WVTren1Bu1EvF5JSABCUigcwRQIun2hnGOLnIoeB/96EdLVz3GV9zY8bGoillidANAjBP1sYBB0YpylmO9riOfdB3ECxHllDRQ2mKMzL2s24pyr2vq69vbxJ04yBv3o7yyjVGSdPNMbLefOftczzbPw/XsJz7WHEPJRClH6cU4m+t7PUeOnXLKKc3Ja700uR4PILxw2oE80w0fAwABJfx973vfWB7a17svgUEQyP+a9xODEe80XtcYW5iFuW2YGUQehy1NmDP0xbJly5qjjz66yAS6SdMg0486oM0LWURYX1lyHXKRkDogcpZj5BlZyXvBe8I1uY7zLzTUsjmyOzKbONnGSEm9SUMV3uztQBzj5SXP0Os8z4zxlnqNuiXP346/3mdYEAydNH7R/ZxJ2ri3HfC8fPvb3166qy9e24CFsZPyNUigSwSQR3g5X3DBBc0nPvGJ8t9G/n/6058ujRXrkxtdehbzIoENJfCce8KG3uX1EpCABCQggREkgDIVZYmW7yhuG4uCOGtFrVYO67hrpY57srTv5Tryxnk8ejBecg0Lyh/rxJX4ub4OibN9Xa7heM5F2c49XMMHNF4/eAShOPe6pp1m+3mIj2OEbBMvXkAolUmPa1IWOcY9pEkeOYbBGQ9Ryu1rX/taGVeTa7gvz8Ls7WeffTaHi+clk0Ik3XLQHwkMmEDeV975/KfIUv4nA87eUCcP43imR95QBtnOw0fuZP+FrJE7kWWRT4mnTi/yqS5/trmGgOGQOgCZiezkXP3eJM56XcdfH6+9vZIu54kzea3TpocAcrqX8ZL7ksdsZ5/nJR4WQnhmzTHqFQyjuYZjEwU8/OleDwOGMcETvz0ONAYhJr+79957S+8EDELUYQYJdJEA/5P6v5z/YBfzap4k0E8CGjD7SdO4JCABCUhgqAmg/OQjkY9HFK7JKlAbCqZW4Nr35lzW9Xnylzwmv9mvr2tvc20dJnouPpo5n3i5t6101nGxjRGT6xIv6zpN9nOufS9xE6Lgkm59bY5nnfuJP3nEWxNvKbq9033ypJNOKuOw5drVq1cX70u6DjLuGV6YdRq5zrUEBkmAdzxL/he8p3nPB5m3UUi75oxBr5Zhef5+yA3iSDykWadLOshg3oNcl/qIcznOPXX+ci3X1IF78y7lOHHUxhGOt/OQa+s1aSTNbLfjIW7Sy3X1/dlu55W0OUbgvniT5nrSCJMcq9dcT+8Jur8T6IrOUCd5bjxVM3M750844YTS7T1syLNBAl0jgCdmAu84Ie9sjruWwLAR0IA5bCXq80hAAhKQwJQRQIGKEseHI0rNVCg248WZtCfzgG0FMPdEEZxsXL2u63WM9NqKatKs15O5pr6e7SiuSbfeZzvHa27tdPi4p2sgM9pioMRQyUQXlCNd0k8//fTy4Y+nDsots+cm3nZ+3JfAoAjwTub9/+9//1uywbF4Bg4qX6OSLsOFJCBvagNCjlM+KaMc29h1bZwj7tr4x7laVq0v/fra5KuWndzPNe3r2vu5d33rXve1+dR5bl+ffdbZbqfZPteW/1xPI9YZZ5xRZjHHsxKD5QMPPFCiwiuTIWJesXa8ZsbHpCsuXqvE285rO233JTAoAqkDSJ86IP8j39lBlYjpTgcBJ/GZDsqmIQEJSEACQ0EAZSaKYwyYU/FgSaPfcffro7ZXPOMplu1neCHPVqdXb9dxc7yOu97mutzHRBJMfEFg0oncx5iYjGnHfXvuuWc5748EukoAL5tnn322ZC/vcFfzOkz5Qj7AO8bLePDVzxhZUx/b2O3x5BnxTnSuV7rt/I0nu9vX9YprMsfa8bT31xfHZK5vX9NmkjTmzJlTxkCmuziBsUEJNGoxfAjxbL/99qV7Osfb8XLMIIGuEMiwDryn8cBk2/e2KyVkPqaCgAbMqaBqnBKQgAQkMJQEUIrykcgEBb28b4bywYfkofiox0th/vz5z/PkQYE1SGCmEMCAhucwAQNU7Rk4U55hpuUTzpEheD5hQLYOmFmlSBnusssuZalzjtGShVB7o9bXuC2BrhHgO5SAXMJj2CCBUSBgF/JRKGWfUQISkIAENpoAH4gYCWIowHigorPRWAcWAV0Ms5CJXl0OB5Y5E5bAJAhkEhIaVpiRGRllmBoCsM0SQwFGzNqAiTdmPKKmJhfG2i8CE8l76/V+UTaeqSSAvNGAOZWEjburBDRgdrVkzJcEJCABCXSKAJ4beO9hKCAw6D/KaroQohCp+HSqyHpmJuWFMYIyZSFk3fMmD0qgIwSQMbzDGM4ef/zxkisMmBjVNGBOfSHRgJVZtTEeYMSM3If/eF2Xpz5npjBZAtTV48n71OP+lyZL0+sGQQCZw/fnv//975I87zPDIeS9znfOIPJmmhKYagJ2IZ9qwsYvAQlIQAJDQwDj5aabblqe56mnnlrH+0bFdWYU83jlpMI6M8pv1HMZYxkK6pNPPllwYFSbNWuWxrMpfjmQETRiMXYuAQ9YPPFjLFCGTHEB9Cn68eqAlON45/uUvNFIoC8EqAueeOKJElcMmL67fUFrJB0noAdmxwvI7ElAAhKQQHcI4HmDoYDw2GOPreN9051cmhMJSGAYCeBxE88bjC2PPPJIeUwaVphV2dA/Ar26GGOgxFjMbNYEPGAxYsao3L/UjWkQBCjfeLANIn3TlMBkCCCb8MCnPnj44YfLLby3W2+99ZgXvu/xZEh6zUwloAFzppac+ZaABCQggWklQMs2XXSivK5Zs6ZM4oDyGs+Nac2QiUlAAiNFIBOI8dAosLUBc8sttxxTXkcKyhQ9bNuTKcYtuurPnj27pIr3E574yv8pKoRpjpYyZjFIYCYQoPt47YVvI9ZMKDXz2A8CGjD7QdE4JCABCUhgqAlEed18882bbbfdtjwr4589+OCDxZCgAjvUxe/DSaBTBPC8QfZEeUVxZcHASYOKHoH9K654YoYpXvjMYk3417/+VTzx4xEV9rm2f7kwJglIQAL/T4A6YPXq1WN1wM4771zGQWaIC70v/5+TW8NJQAPmcJarTyUBCUhAAn0kgAETjxy6D+64445jY8399a9/XWcczD4maVQSkIAEehJg4pg77rijeIBzwctf/vIim9LQ0vMmD74gAvHEhC0LdcB2221XjMUYEe68884ylAiRx3CZ9QtK0JskIAEJTECABnNkz3333Vc8wLl0zpw5ZXxeZJTyZwJ4nhoKAhowh6IYfQgJSEACEpgOAiivu++++9hM5DfccMPYOJh+NE5HCZiGBEaXAIorXcdZbrvttjED5j777FMMa5BBgTX0nwBeTWnE2nXXXctwIqRy4403jtUB7FMPWBdAwiABCfSbALIFj28mD1u1atWYB+bee+9dvkvT0NLvdI1PAl0ioAGzS6VhXiQgAQlIoNME6KKJAZNuhIR//OMfpRshreF2I+900Zk5Ccw4Aum+XGccOcPYi8geziOT5s+fP+aBqQJb0+rfdrjCe+7cuc0WW2xRIseQzDiYGJUpG66L12b/UjcmCUhglAlguMw3Juunn366oQcQdQDfo8gkZFPk1Ciz8tmHn4AGzOEvY59QAhKQgAT6QAAPHMYXYgzMPfbYo8TIOHR44Dz77LPl4zIfmH1IzigkIIERJ4DMiUcfaxpK6D5+7733FuUVPCiuO+20U1FeNZxN7QtDebDA+9WvfnVJ7NFHH23wxKcOSFn1MjxPbc6MXQISGHYCGCdTB0Tu8MyvfOUrG8bA5PvUOmDY3wKfDwIaMH0PJCABCUhAApMgEM+aTTfdtFm0aFG5g0kcli9f3jAbJEorCqxBAhKQQD8IIHMiU2gcYaHr4M0331yMmKRB10Em8MGwxvWGqSMAX7yc8Hg64IADSkL/+c9/mmuuuaZ4YVIHUEYaEaauDIxZAqNIIHUB8oVGrD//+c/N/fffX1DMmzev2WGHHYrcSX0xiox85tEhoAFzdMraJ5WABCQggY0kgJEgBkwmzkBhvfTSS5u77767fFTycWmQgAQk0C8CteKKl9+aNWuan/3sZ8UT56UvfWlz8MEHl/EYMazZiNIv6uPHQx3wohe9qDn00EPLZD7I/GXLlhWP2HQjpxwMEpCABPpFAMMkcgUZ89BDDzU//elPS9R8jx522GFlSAvqAOST8qdf1I2nqwQ0YHa1ZMyXBCQgAQl0hgBKKgueNXwk0m0TDxyMC8wEefnll5cxiRwLszNFZkYkMBQE4lGD/HnmmWeaa6+9tlmxYkV5NroOLly4sMgkDiCfcv1QPHzHHoIywEDAZG54PB1yyCElh3fddVezdOnSMqEGBgaDBCQggX4TQP7g8f273/2uTOJG/DSk0yMImUTgm1QP8ILCnyEmoAFziAvXR5OABCQggf4Q4KOQhcA4Q1tttVVz9NFHN1tuuWU59uMf/7iMhcnHpV5QBYk/EpBAHwhgkKRhBNnCrLPnnntu2UYOHXvssc32228/NvYZMgoDm2FqCKQeoBFr9uzZzVFHHVUMmRgWzjvvvOYvf/lLKRvqAL2gpqYMjFUCw0oAWV8v9XNSB9CARWPJD3/4w+bxxx8vnuDHHXdcs/XWW68ziVt9n9sSGEYCfuUMY6n6TBKQgAQk0FcCUVwxDrBssskmzb777lu67pAQk2pgWHj44YfLGHV8bBL4GEW5NUhAAhLYUALIDhbGPENh/fnPf97cdNNNJZr99tuveADShRCZlAaWDU3D6ydPoK4H8HiiDjj88MNLBEyqcfbZZzdM7EZXfw2Yk+fqlRKQwHPfi2kA59sxgTqAb0rGWmfIIsa/JCxYsKBZvHhxs9lmm401YuUe1xIYZgIaMIe5dH02CUhAAhLoKwE+LjEW4P2E9yUeUHQn5/jFF19cFib24WMzRkwNC30tAiOTwEgQQIFFhtAlGZly1VVXFQMZxkw8bo4//vgyBqMzzw7mdaCbJmOQfuADH2jmzJlTDM2XXHJJc8EFFxRjM+XGEiN0bZAYTI5NVQIS6DKBNJAjK9gmUAcwcRsNWL/+9a+bs846q3xvInuWLFlSZA9j8vqd2eWSNW/9JvC/J68N/Y7U+CQgAQlIQALDSKBWQvnAnDVrVjFmMiYRhoWVK1c2jEu3yy67lOPx2PHjchjfBp9JAlNDAKMXjSKs8brB4+bUU09t7rnnnpIg3QaPOeaY0oiCJ6Bjnk1NOUwUKzKdOgAPWLqUX3/99aWL59/+9rfmVa96VbPjjjuW2coTR+qC7LuWgAQkEAJ8W8ZwiVxhG/lPIwh1wG233dZgsrnzzjuLsfK9731vQz2AIdNGrFB0PSoENGCOSkn7nBKQgAQksFEEMChECeUDkwXFdeeddy5dxzFe0kp+8803FwV2m222KYaF3MPaIAEJSKAXgbpxJB7cTzzxRBlX8cQTT2xuvfXWInOYdfyzn/1sGXsRzxuMl8qWXkT7f4w6gFAbGlIH4CVLGWFsYCxMDJg77bRTqSNSB1BnGCQgAQn0IhA5gXyhDqBR/Mknn2xuueWW5vOf/3wZPoRrqAM+85nPlIZy6gBkkHVAL6IeG1YCGjCHtWR9LglIQAIS6CsBlM98YLKOERMPKGaCpGX8rrUDrGPEpLUcL0xmqqV1nGv1kuprcRiZBIaKQDxu4nXz1FNPNTfccENzyimnFA9Mzu+1117FC2fPPfcsnn/IFI1i0/capA5orzEgMJQI3pd3331389hjjxUjJnUADVnUEak7LK/pKy9TksBMIRD5QCMJC8bLp59+esx4iRc+dcC8efOaL37xi6UuwPs7DVjcb5DAqBDQgDkqJe1zSkACEpDAlBDgA/IlL3lJg1FhxYoVzQMPPNCsWbOmue6668rg6swSjAKL4soHaD40s06mOEdoH8951pO5pr7ebQlIoHsE8j/GWMn/nX2UVrxumG38oYceaq688soGz0u8+QgMTfGVr3ylTBzD0BXInSiv3XvC0ckR5Yds33zzzZvXvOY1pZs/DVl4ZC5fvryUEZ6Y8ZZNmUMoZR+Zn/eCfd4H1jk3OkR9UgnMPAL1f3dDcs//HPmBXKjrAL4hr7jiiuJ5iQcm8e+2226lQWvRokVF3qRxXDmxIcS9dhgIaMAchlL0GSQgAQlIYCAE8uHIByhGTBRYZiTHC4euhH/4wx+aRx55pHQlfPGLX1yU2WSUD1IW7uXDlZD4cg1rPmy5LopsvV1f57YEJDCzCPBfjtLKzNV4XSI/zjzzzOaMM85o7rvvvvJAe++9d/G6QXFFzqC42m2wG2WNXEaGpw6gIQsDJuVI988//vGPDTOUb7vttqVBKzKf+9jOwv2EGDTYj8zvxpOaCwlIYCICaZzgf5v/8fqu5zwygLEumayHOoDvxx/84AfN6aefXra5Zvfddy91wBve8IYy7iXyn4V7CcqKgsGfESGgAXNECtrHlIAEJCCBqSGQD0c+JmfPnl08pBi7DiWWLkC33357mUGYj1O8dPDG5EOXwMdnPnrZJi7WLLVRk2ui0Ca9qXkaY5WABHoRqP+T+T/W19Xn2/9hrucYAS9L/tssGC2RC8gLhqBgFmu6jDPbLIrsJpts0rzxjW9sTjvttGa//fZrtthii7HJwXrloc6P29NHIHKbOoAyWrBgQZnQ54477igetdQBS5cuLWVOQxbemHknci/7BPaznWtYs3COxSABCQyGAP9DZHf7v8h+5D7r/E/z32VN4F62Uw+wfuaZZ0pjxz//+c/m8ssvb05eO1nPZZddVuoAvhcXL15cju2///6lAYtj8b5v52MwVExVAtNL4H/W/sme+6Ka3nRNTQISkIAEJDAUBPKByockreh0Ab3//vubiy66qHhSPfjgg+U5+eDcY489mkMOOaQ59NBDS3cglFmMFJzDq4rAdh3Yp6puH6+vcVsCEhg8Af6nLFFWyVH9mR2lFTnBgpESWYHB8pprriljXnKcQGPHkiVLymzjr3jFK8qYl8gI5UDB07kfyjZ1AAYJuoCef/75zTnnnDM2ezwGTmYof/Ob39wcdNBBzfz580u5rq8OiHcm8We7cwDMkAQkUAyT/M+RB4Ra/lMvsM85FmQ9jdz33HNPaeRm2JCbbrqpNGpxLzOMM9v48ccfX8ZZp04gbhuzoWMYZQIaMEe59H12CUhAAhLYaAL5QEW5TMs6nlVM5sPYRSiwGCfoRkjgA5RuoEzwg1fV6173ujJjLR+rjG2HMstCK3s+VutMko5BAhLoDoHIgDpHHENBRVHFyxKjFsNKYLSkazheeXQvRnnFA5NJGwgoqXQVP+6445oDDjigednLXlY89iILkDExYpEGi0bNmvxgtikHZDPlTRlR9oyDuXLlytKQde211xajJrmjLJH1jI3JxEx4VlEfbLnlluU4k3PgpUkdkHHu8lTK/5BwLYHBEYgM5r+ekG/A7KcOQLbH2x6DJUNLMFY64xtff/31DZ6X1AFcQ6AO2HfffZsTTjihyAbqgFoW1DKANMgDx5KnpO9aAsNKQAPmsJaszyUBCUhAAgMhwMckSixdhTBaYLi8+uqrm1/84hcNSixGjHZAmd1qq62KsQIllg/YzTbbrHy0osii8LLwkRqFtv6ITYt8O173JSCB/hOI0kjMbMdoxX+f/z3GK5RRFFeMlyisGC4ZD5cZqjFstQNGqwMPPLB45x1xxBFlOAqO8X+P8bK+J0prLQfq824PjkDegxivKXfGQ77wwgub3//+98VY0c4d8n7rrbcu5U4dwD4LjVl5B7JG3tcyv95ux+u+BCTQfwJ1HUDsyHyOIf/bdQC9cjBcYqTEMzt1ANfXgR45CxcubI488sjm8MMPb7bbbrux70DkfK+GKmQN/3+DBEaJgAbMUSptn1UCEpCABKaFQD5u+ZDFiMHHK0rsqlWrmmXLlhUllhZ4DBuca3/I1pnkw7VeONfLaNHrWB2P2xKQQH8ItP+v2WddL+Olxn8VwxTjJTJuLobLww47rEwChhELRTYNFSitibOXAjteGh4fLIEYMckFdQCNWdQBGecOzysm+sGwTaNW3qFeua7lf+R81rm+vZ/jriUggf4TaP9fsx9ZnfVEKdNARW+cbbbZpnhcMrTEvHnziuGSOgCvS/7XNGAR/I9PRNNzo0RAA+YolbbPKgEJSEAC00YgHlKs05UUryxa41FYmbRjxYoVZZZJupSuXr16rGUeZRfPLe41SEACM5MACice1CiqMVZioGRMy5133rnMLDt37txyDm+7eFtzH8ZKPWtmZrnXuaYRixCvfOoAGq1YaNBiop+///3vpUsp46HincuC/F9f41adjtsSkED3CCDLMUQi3+lpQ4MVnpXI/zlz5pQxcTFa0k2cRqt43SP741nNmm9B64Pula85GgwBDZiD4W6qEpCABCQwxATSGs8j8gGb1niUWbbxyGEbZRbFFoMmC0prup5yPAZPDKAsuS9KMXGxnQ/cIUbqo0mgMwRiYEyGYmzMOGUoohgj8aLhHMfZZ0GRxesm1+Jdw/XEmWEiEi9rjhtmLoE0ZCGneRdYx5jJNjKdBWMl3pjUASxp9GJNg1bWxMd9LAnEZ5CABKaXAN9dMSpmO3KddbwokeupA/C85zjGzFyL/E8dgLwnLtaR/VlP79OZmgS6S0ADZnfLxpxJQAISkMAMJRCDJdnPB24UWT5Go3xyHcon5wgc5xj7OVZOrP1JnIkn+5wnDfYJWZcdfyQggSkjwH85/+8kUu+3z6PIcr5euI99/rdcz0LI/zz75aA/M45AypGM12WJrM+5ug7gGO8Cx9qynHN14Hz7WH3ebQlIoP8E+B/nv4nsrv/XpMaxOnA+16WxK8fYJy7WdTz8/6kvDBKQwPMJaMB8PhOPSEACEpCABPpCACWVD1NCPnjrj9QcqxOLEbO+pz7f6576vNsSkMD0Eaj/z3Wq9fEor/WxXFsfizEqCnCMWZEhucf1zCcwkRyn3FP2Ez3pRHFMdJ/nJCCB/hCo5XevGHO+Vx3AfzyynntzLdv8t+t9jhkkIIHnCGjA9E2QgAQkIAEJdJTAZJTYjmbdbElgZAmgeNaK6ciC8ME3igBGDOoAgwQkMPMIWA/MvDIzxzODgAbMmVFO5lICEpCABCQgAQlIQAISkIAEJCABCUhAAiNJYN1BGkYSgQ8tAQlIQAISkIAEJCABCUigOwT0vuxOWZgTCUhAAhLoBgENmN0oB3MhAQlIQAISkIAEJCABCUigEHAMPF8ECUhAAhKQwLoENGCuy8M9CUhAAhKQgAQkIAEJSEACAyWgAXOg+E1cAhKQgAQ6SEADZgcLxSxJQAISkIAEJCABCUhAAhKQgAQkIAEJSEACzxHQgOmbIAEJSEACEpCABCQgAQlIQAISkIAEJCABCXSWgAbMzhaNGZOABCQgAQlIQAISkIAEJCABCUhAAhKQgAQ0YPoOSEACEpCABCQgAQlIQAISkIAEJCABCUhAAp0loAGzs0VjxiQgAQlIQAISkIAEJCABCUhAAhKQgAQkIAENmL4DEpCABCQgAQlIQAISkIAEJCABCUhAAhKQQGcJaMDsbNGYMQlIQAISkIAEJCABCUhAAhKQgAQkIAEJSEADpu+ABCQgAQlIQAISkIAEJCABCUhAAhKQgAQk0FkCGjA7WzRmTAISkIAEJCABCUhAAhKQgAQkIAEJSEACEtCA6TsgAQlIQAISkIAEJCABCUhAAhKQgAQkIAEJdJaABszOFo0Zk4AEJCABCUhAAhKQgAQkIAEJSEACEpCABDRg+g5IQAISkIAEJCABCUhAAhKQgAQkIAEJSEACnSWgAbOzRWPGJCABCUhAAhKQgAQkIAEJSEACEpCABCQgAQ2YvgMSkIAEJCABCUhAAhKQgAQkIAEJSEACEpBAZwlowOxs0ZgxCUhAAhKQgAQkIAEJSEACEpCABCQgAQlIQAOm74AEJCABCUhAAhKQgAQkIAEJSEACEpCABCTQWQIaMDtbNGZMAhKQgAQkIAEJSEACEpCABCQgAQlIQAIS0IDpOyABCUhAAhKQgAQkIAEJSEACEpCABCQgAQl0loAGzM4WjRmTgAQkIAEJSEACEpCABCQgAQlIQAISkIAENGD6DkhAAhKQgAQkIAEJSEACEpCABCQgAQlIQAKdJaABs7NFY8YkIAEJSEACEpCABCQgAQlIQAISkIAEJCABDZi+AxKQgAQkIAEJSEACEpCABCQgAQlIQAISkEBnCWjA7GzRmDEJSEACEpCABCQgAQlIQAISkIAEJCABCUhAA6bvgAQkIAEJSEACEpCABCQgAQlIQAISkIAEJNBZAhowO1s0ZkwCEpCABCQgAQlIQAISkIAEJCABCUhAAhLQgOk7IAEJSEACEpCABCQgAQlIQAISkIAEJCABCXSWgAbMzhaNGZOABCQgAQlIQAISkIAEJCABCUhAAhKQgAQ0YPoOSEACEpCABCQgAQlIQAISkIAEJCABCUhAAp0loAGzs0VjxiQgAQlIQAISkIAEJCABCUhAAhKQgAQkIAENmL4DEpCABCQgAQlIQAISkIAEJCABCUhAAhKQQGcJaMDsbNGYMQlIQAISkIAEJCABCUhAAhKQgAQkIAEJSEADpu+ABCQgAQlIQAISkIAEJCABCUhAAhKQgAQk0FkCGjA7WzRmTAISkIAEJCABCUhAAhKQgAQkIAEJSEACEtCA6TsgAQlIQAISkIAEJCABCUhAAhKQgAQkIAEJdJaABszOFo0Zk4AEJCABCUhAAhKQgAQkIAEJSEACEpCABDRg+g5IQAISkIAEJCABCUhAAhKQgAQkIAEJSEACnSWgAbOzRWPGJCABCUhAAhKQgAQkIAEJSEACEpCABCQgAQ2YvgMSkIAEJCABCUhAAhKQgAQkIAEJSEACEpBAZwlowOxs0ZgxCUhAAhKQgAQkIAEJSEACEpCABCQgAQlIQAOm74AEJCABCUhAAhKQgAQkIAEJSEACEpCABCTQWQIaMDtbNGZMAhKQgAQkIAEJSEACEpCABCQgAQlIQAIS0IDpOyABCUhAAhKQgAQkIAEJSEACEpCABCQgAQl0loAGzM4WjRmTgAQkIAEJSEACEpCABCQgAQlIQAISkIAENGD6DkhAAhKQgAQkIAEJSEACEpCABCQgAQlIQAKdJaABs7NFY8YkIAEJSEACEpCABCQgAQlIQAISkIAEJCABDZi+AxKQgAQkIAEJSEACEpCABCQgAQlIQAISkEBnCWjA7GzRmDEJSEACEpCABCQgAQlIQAISkIAEJCABCUjg/wBmpP8g9aIciAAAAABJRU5ErkJggg==;" vertex="1" parent="1">
          <mxGeometry x="70" y="37.22" width="870" height="499.53" as="geometry" />
        </mxCell>
      </root>
    </mxGraphModel>
  </diagram>
</mxfile>
